<?xml version="1.0" encoding="UTF-8" ?>
<!DOCTYPE svg PUBLIC "-//W3C//DTD SVG 1.1//EN" "http://www.w3.org/Graphics/SVG/1.1/DTD/svg11.dtd">
<svg width="329pt" height="139pt" viewBox="0 0 329 139" version="1.1" xmlns="http://www.w3.org/2000/svg">
<g id="#ed6250ff">
<path fill="#ed6250" opacity="1.00" d=" M 30.95 59.78 C 30.70 42.58 45.80 27.09 63.01 26.99 C 127.66 26.93 192.32 26.98 256.97 26.97 C 264.91 26.91 272.77 29.89 278.76 35.08 C 284.70 40.50 288.90 47.97 289.74 56.03 C 290.44 63.55 289.97 71.50 286.27 78.25 C 281.61 87.12 272.76 93.70 262.87 95.44 C 258.28 96.12 253.63 95.84 249.01 95.88 C 187.69 95.88 126.37 95.86 65.04 95.89 C 58.92 96.07 52.75 94.67 47.47 91.53 C 36.41 85.24 30.05 72.38 30.95 59.78 M 239.64 48.50 C 235.95 49.88 232.59 52.84 232.09 56.93 C 231.49 59.87 232.93 62.61 234.24 65.13 C 233.97 68.41 234.02 72.05 236.44 74.60 C 238.68 77.56 242.50 78.25 245.99 78.21 C 248.38 79.83 250.98 81.50 254.02 81.03 C 258.35 81.41 261.42 77.84 263.39 74.46 C 267.03 73.06 270.40 70.15 270.91 66.08 C 271.52 63.13 270.04 60.41 268.79 57.87 C 269.03 54.59 269.00 50.94 266.58 48.39 C 264.32 45.43 260.50 44.74 257.01 44.73 C 254.59 43.15 251.97 41.49 248.94 41.92 C 244.63 41.63 241.56 45.09 239.64 48.50 M 73.36 52.93 C 73.37 58.63 73.38 64.33 73.37 70.02 C 73.91 69.98 74.99 69.89 75.54 69.85 C 75.46 64.83 75.49 59.80 75.51 54.77 C 78.34 54.77 81.17 54.77 84.00 54.77 C 84.00 59.85 84.00 64.92 84.00 70.00 C 84.55 70.00 85.65 70.00 86.20 70.00 C 86.21 64.31 86.22 58.61 86.24 52.92 C 81.94 52.88 77.65 52.88 73.36 52.93 M 90.70 57.39 C 90.49 63.49 90.75 69.60 90.65 75.70 C 91.18 75.73 92.24 75.78 92.76 75.80 C 92.74 73.48 92.70 71.15 92.59 68.82 C 94.71 69.81 97.36 71.02 99.51 69.44 C 102.66 66.89 102.83 61.62 100.51 58.47 C 97.96 55.62 93.95 58.01 90.70 57.39 M 108.12 57.33 C 102.67 59.64 103.66 69.94 110.00 70.20 C 114.13 70.85 117.09 66.81 116.52 62.99 C 116.75 58.75 111.99 55.53 108.12 57.33 M 122.81 57.13 C 122.25 61.30 121.82 66.03 118.31 68.89 C 118.27 70.77 118.27 72.66 118.28 74.55 C 118.79 74.52 119.81 74.44 120.31 74.41 C 120.33 72.94 120.34 71.47 120.35 70.00 C 123.30 70.00 126.24 70.00 129.18 70.00 C 129.23 71.52 129.28 73.03 129.33 74.55 L 131.30 74.41 C 131.33 72.51 131.36 70.61 131.40 68.71 C 130.90 68.42 129.90 67.85 129.40 67.56 C 129.49 64.08 129.51 60.60 129.52 57.12 C 127.28 57.12 125.05 57.12 122.81 57.13 M 136.40 57.43 C 130.92 60.03 132.42 70.43 138.98 70.23 C 142.90 70.53 145.63 66.59 145.00 62.93 C 145.22 58.62 140.24 55.41 136.40 57.43 M 148.36 57.09 C 148.37 61.39 148.38 65.70 148.37 70.00 C 151.16 69.93 154.00 70.25 156.74 69.61 C 158.76 69.06 158.88 66.78 159.31 65.10 C 158.51 64.46 157.71 63.82 156.92 63.18 C 157.66 62.38 158.41 61.59 159.15 60.80 C 157.86 55.87 152.17 57.24 148.36 57.09 M 160.74 56.64 C 162.28 59.07 164.11 61.29 165.90 63.53 C 163.89 65.71 161.93 67.94 160.12 70.29 C 163.96 69.98 165.59 66.05 168.05 63.65 C 168.08 65.77 168.10 67.88 168.12 70.00 C 168.60 70.00 169.56 70.00 170.04 70.00 C 170.07 67.85 170.09 65.70 170.13 63.55 C 172.60 65.99 174.25 69.95 178.13 70.29 C 176.29 67.89 174.29 65.63 172.34 63.33 C 174.21 61.21 176.05 59.06 177.65 56.73 C 173.98 57.22 172.45 61.00 170.19 63.41 C 170.13 61.29 170.08 59.18 170.04 57.07 C 169.57 57.09 168.62 57.12 168.14 57.13 C 168.11 59.15 168.08 61.18 168.04 63.20 C 165.84 60.79 164.16 57.47 160.74 56.64 M 180.23 57.10 C 180.24 61.40 180.24 65.70 180.24 69.99 C 180.88 70.00 182.15 70.00 182.79 70.00 C 185.00 66.47 187.23 62.94 189.61 59.51 C 189.52 63.16 189.46 66.81 189.59 70.45 C 190.04 70.22 190.92 69.75 191.37 69.52 C 191.72 65.31 191.41 61.08 191.48 56.87 C 190.38 57.20 188.89 57.02 188.29 58.23 C 186.07 61.34 184.19 64.67 182.11 67.87 C 182.08 64.28 182.08 60.68 182.09 57.09 C 181.62 57.09 180.69 57.10 180.23 57.10 M 194.00 57.12 C 194.00 57.56 194.00 58.44 194.00 58.89 C 195.41 58.90 196.82 58.91 198.23 58.93 C 198.24 62.61 198.24 66.30 198.24 69.99 C 198.73 69.99 199.71 70.00 200.20 70.00 C 200.21 66.39 200.22 62.77 200.23 59.16 C 202.01 58.85 203.79 58.52 205.54 58.02 C 201.87 56.53 197.85 57.19 194.00 57.12 M 207.02 57.06 C 206.99 61.38 207.00 65.69 207.00 70.01 C 207.68 70.00 209.05 69.96 209.73 69.94 C 211.86 66.45 214.06 63.01 216.33 59.61 C 216.38 63.09 216.38 66.57 216.37 70.04 C 216.88 69.99 217.88 69.89 218.39 69.84 C 218.35 65.43 218.39 61.03 218.25 56.62 C 217.60 56.87 216.28 57.36 215.62 57.61 C 213.14 60.73 211.38 64.35 209.03 67.58 C 208.97 64.08 209.01 60.58 208.99 57.09 C 208.50 57.08 207.51 57.06 207.02 57.06 Z" />
<path fill="#ed6250" opacity="1.00" d=" M 244.96 45.93 C 247.68 43.52 251.46 44.48 254.42 45.82 C 251.55 47.77 248.14 49.02 245.61 51.44 C 245.20 55.24 245.53 59.08 245.46 62.90 C 244.31 62.27 243.16 61.63 242.01 61.00 C 242.49 56.01 240.34 49.52 244.96 45.93 Z" />
<path fill="#ed6250" opacity="1.00" d=" M 247.16 53.11 C 250.76 51.20 254.08 48.61 258.05 47.48 C 263.03 46.74 266.77 51.50 266.49 56.18 C 263.43 54.47 260.41 52.67 257.30 51.06 C 253.98 53.09 250.62 55.03 247.24 56.94 C 247.21 55.66 247.18 54.39 247.16 53.11 Z" />
<path fill="#ed6250" opacity="1.00" d=" M 235.02 60.90 C 233.47 57.01 236.03 53.16 239.34 51.25 C 239.49 54.66 239.48 58.07 239.46 61.48 C 242.81 63.56 246.24 65.51 249.67 67.44 C 248.52 68.10 247.38 68.76 246.23 69.42 C 242.45 66.73 236.96 65.52 235.02 60.90 Z" />
<path fill="#ed6250" opacity="1.00" d=" M 253.37 55.57 C 254.49 54.92 255.62 54.27 256.75 53.63 C 260.41 56.13 265.30 57.40 267.69 61.38 C 269.77 65.33 267.33 69.81 263.71 71.78 C 263.57 68.36 263.58 64.94 263.58 61.52 C 260.20 59.50 256.78 57.53 253.37 55.57 Z" />
<path fill="#ed6250" opacity="1.00" d=" M 247.16 59.09 C 248.69 58.33 250.10 57.05 251.83 56.87 C 253.24 57.50 254.55 58.33 255.88 59.12 C 255.87 60.73 255.87 62.35 255.87 63.96 C 254.54 64.74 253.22 65.55 251.81 66.18 C 250.06 65.99 248.67 64.68 247.14 63.90 C 247.15 62.30 247.16 60.69 247.16 59.09 Z" />
<path fill="#ed6250" opacity="1.00" d=" M 94.25 59.07 C 100.20 56.23 101.99 66.80 97.04 68.46 C 92.05 69.42 91.44 61.58 94.25 59.07 Z" />
<path fill="#ed6250" opacity="1.00" d=" M 108.28 59.32 C 109.96 58.22 112.73 58.35 113.70 60.32 C 114.61 62.29 114.57 64.63 113.86 66.66 C 112.48 69.37 107.72 69.03 107.07 65.99 C 106.82 63.80 106.36 60.90 108.28 59.32 Z" />
<path fill="#ed6250" opacity="1.00" d=" M 121.82 68.29 C 123.17 65.33 123.85 62.14 124.87 59.07 C 125.48 58.90 126.72 58.58 127.33 58.42 C 127.38 61.68 127.38 64.94 127.37 68.20 C 125.52 68.23 123.67 68.25 121.82 68.29 Z" />
<path fill="#ed6250" opacity="1.00" d=" M 137.19 59.09 C 141.74 56.74 144.23 62.92 142.38 66.35 C 141.30 69.58 135.89 68.99 135.49 65.64 C 135.07 63.47 135.04 60.33 137.19 59.09 Z" />
<path fill="#ed6250" opacity="1.00" d=" M 150.52 58.76 C 152.38 59.33 155.53 58.08 156.53 60.13 C 156.93 63.39 152.44 61.91 150.51 62.53 C 150.51 61.59 150.51 59.70 150.52 58.76 Z" />
<path fill="#ed6250" opacity="1.00" d=" M 257.55 60.12 C 258.70 60.76 259.85 61.40 261.00 62.04 C 260.50 67.04 262.68 73.46 258.13 77.11 C 255.39 79.52 251.50 78.74 248.56 77.18 C 251.44 75.26 254.78 73.98 257.38 71.66 C 257.82 67.83 257.49 63.96 257.55 60.12 Z" />
<path fill="#ed6250" opacity="1.00" d=" M 150.54 63.89 C 152.91 64.07 158.18 63.68 156.72 67.61 C 154.74 68.38 152.56 68.20 150.48 68.37 C 150.50 66.88 150.52 65.38 150.54 63.89 Z" />
<path fill="#ed6250" opacity="1.00" d=" M 245.68 71.94 C 249.03 69.93 252.42 67.97 255.84 66.07 C 255.84 67.37 255.85 68.67 255.87 69.96 C 252.20 71.81 248.90 74.58 244.87 75.60 C 239.98 76.24 236.25 71.58 236.44 66.95 C 239.57 68.53 242.60 70.29 245.68 71.94 Z" />
</g>
<g id="#fefaf9ff">
<path fill="#fefaf9" opacity="1.00" d=" M 239.64 48.50 C 241.56 45.09 244.63 41.63 248.94 41.92 C 251.97 41.49 254.59 43.15 257.01 44.73 C 260.50 44.74 264.32 45.43 266.58 48.39 C 269.00 50.94 269.03 54.59 268.79 57.87 C 270.04 60.41 271.52 63.13 270.91 66.08 C 270.40 70.15 267.03 73.06 263.39 74.46 C 261.42 77.84 258.35 81.41 254.02 81.03 C 250.98 81.50 248.38 79.83 245.99 78.21 C 242.50 78.25 238.68 77.56 236.44 74.60 C 234.02 72.05 233.97 68.41 234.24 65.13 C 232.93 62.61 231.49 59.87 232.09 56.93 C 232.59 52.84 235.95 49.88 239.64 48.50 M 244.96 45.93 C 240.34 49.52 242.49 56.01 242.01 61.00 C 243.16 61.63 244.31 62.27 245.46 62.90 C 245.53 59.08 245.20 55.24 245.61 51.44 C 248.14 49.02 251.55 47.77 254.42 45.82 C 251.46 44.48 247.68 43.52 244.96 45.93 M 247.16 53.11 C 247.18 54.39 247.21 55.66 247.24 56.94 C 250.62 55.03 253.98 53.09 257.30 51.06 C 260.41 52.67 263.43 54.47 266.49 56.18 C 266.77 51.50 263.03 46.74 258.05 47.48 C 254.08 48.61 250.76 51.20 247.16 53.11 M 235.02 60.90 C 236.96 65.52 242.45 66.73 246.23 69.42 C 247.38 68.76 248.52 68.10 249.67 67.44 C 246.24 65.51 242.81 63.56 239.46 61.48 C 239.48 58.07 239.49 54.66 239.34 51.25 C 236.03 53.16 233.47 57.01 235.02 60.90 M 253.37 55.57 C 256.78 57.53 260.20 59.50 263.58 61.52 C 263.58 64.94 263.57 68.36 263.71 71.78 C 267.33 69.81 269.77 65.33 267.69 61.38 C 265.30 57.40 260.41 56.13 256.75 53.63 C 255.62 54.27 254.49 54.92 253.37 55.57 M 247.16 59.09 C 247.16 60.69 247.15 62.30 247.14 63.90 C 248.67 64.68 250.06 65.99 251.81 66.18 C 253.22 65.55 254.54 64.74 255.87 63.96 C 255.87 62.35 255.87 60.73 255.88 59.12 C 254.55 58.33 253.24 57.50 251.83 56.87 C 250.10 57.05 248.69 58.33 247.16 59.09 M 257.55 60.12 C 257.49 63.96 257.82 67.83 257.38 71.66 C 254.78 73.98 251.44 75.26 248.56 77.18 C 251.50 78.74 255.39 79.52 258.13 77.11 C 262.68 73.46 260.50 67.04 261.00 62.04 C 259.85 61.40 258.70 60.76 257.55 60.12 M 245.68 71.94 C 242.60 70.29 239.57 68.53 236.44 66.95 C 236.25 71.58 239.98 76.24 244.87 75.60 C 248.90 74.58 252.20 71.81 255.87 69.96 C 255.85 68.67 255.84 67.37 255.84 66.07 C 252.42 67.97 249.03 69.93 245.68 71.94 Z" />
<path fill="#fefaf9" opacity="1.00" d=" M 73.36 52.93 C 77.65 52.88 81.94 52.88 86.24 52.92 C 86.22 58.61 86.21 64.31 86.20 70.00 C 85.65 70.00 84.55 70.00 84.00 70.00 C 84.00 64.92 84.00 59.85 84.00 54.77 C 81.17 54.77 78.34 54.77 75.51 54.77 C 75.49 59.80 75.46 64.83 75.54 69.85 C 74.99 69.89 73.91 69.98 73.37 70.02 C 73.38 64.33 73.37 58.63 73.36 52.93 Z" />
<path fill="#fefaf9" opacity="1.00" d=" M 90.70 57.39 C 93.95 58.01 97.96 55.62 100.51 58.47 C 102.83 61.62 102.66 66.89 99.51 69.44 C 97.36 71.02 94.71 69.81 92.59 68.82 C 92.70 71.15 92.74 73.48 92.76 75.80 C 92.24 75.78 91.18 75.73 90.65 75.70 C 90.75 69.60 90.49 63.49 90.70 57.39 M 94.25 59.07 C 91.44 61.58 92.05 69.42 97.04 68.46 C 101.99 66.80 100.20 56.23 94.25 59.07 Z" />
<path fill="#fefaf9" opacity="1.00" d=" M 108.12 57.33 C 111.99 55.53 116.75 58.75 116.52 62.99 C 117.09 66.81 114.13 70.85 110.00 70.20 C 103.66 69.94 102.67 59.64 108.12 57.33 M 108.28 59.32 C 106.36 60.90 106.82 63.80 107.07 65.99 C 107.72 69.03 112.48 69.37 113.86 66.66 C 114.57 64.63 114.61 62.29 113.70 60.32 C 112.73 58.35 109.96 58.22 108.28 59.32 Z" />
<path fill="#fefaf9" opacity="1.00" d=" M 122.81 57.13 C 125.05 57.12 127.28 57.12 129.52 57.12 C 129.51 60.60 129.49 64.08 129.40 67.56 C 129.90 67.85 130.90 68.42 131.40 68.71 C 131.36 70.61 131.33 72.51 131.30 74.41 L 129.33 74.55 C 129.28 73.03 129.23 71.52 129.18 70.00 C 126.24 70.00 123.30 70.00 120.35 70.00 C 120.34 71.47 120.33 72.94 120.31 74.41 C 119.81 74.44 118.79 74.52 118.28 74.55 C 118.27 72.66 118.27 70.77 118.31 68.89 C 121.82 66.03 122.25 61.30 122.81 57.13 M 121.82 68.29 C 123.67 68.25 125.52 68.23 127.37 68.20 C 127.38 64.94 127.38 61.68 127.33 58.42 C 126.72 58.58 125.48 58.90 124.87 59.07 C 123.85 62.14 123.17 65.33 121.82 68.29 Z" />
<path fill="#fefaf9" opacity="1.00" d=" M 136.40 57.43 C 140.24 55.41 145.22 58.62 145.00 62.93 C 145.63 66.59 142.90 70.53 138.98 70.23 C 132.42 70.43 130.92 60.03 136.40 57.43 M 137.19 59.09 C 135.04 60.33 135.07 63.47 135.49 65.64 C 135.89 68.99 141.30 69.58 142.38 66.35 C 144.23 62.92 141.74 56.74 137.19 59.09 Z" />
<path fill="#fefaf9" opacity="1.00" d=" M 148.36 57.09 C 152.17 57.24 157.86 55.87 159.15 60.80 C 158.41 61.59 157.66 62.38 156.92 63.18 C 157.71 63.82 158.51 64.46 159.31 65.10 C 158.88 66.78 158.76 69.06 156.74 69.61 C 154.00 70.25 151.16 69.93 148.37 70.00 C 148.38 65.70 148.37 61.39 148.36 57.09 M 150.52 58.76 C 150.51 59.70 150.51 61.59 150.51 62.53 C 152.44 61.91 156.93 63.39 156.53 60.13 C 155.53 58.08 152.38 59.33 150.52 58.76 M 150.54 63.89 C 150.52 65.38 150.50 66.88 150.48 68.37 C 152.56 68.20 154.74 68.38 156.72 67.61 C 158.18 63.68 152.91 64.07 150.54 63.89 Z" />
<path fill="#fefaf9" opacity="1.00" d=" M 160.74 56.64 C 164.16 57.47 165.84 60.79 168.04 63.20 C 168.08 61.18 168.11 59.15 168.14 57.13 C 168.62 57.12 169.57 57.09 170.04 57.07 C 170.08 59.18 170.13 61.29 170.19 63.41 C 172.45 61.00 173.98 57.22 177.65 56.73 C 176.05 59.06 174.21 61.21 172.34 63.33 C 174.29 65.63 176.29 67.89 178.13 70.29 C 174.25 69.95 172.60 65.99 170.13 63.55 C 170.09 65.70 170.07 67.85 170.04 70.00 C 169.56 70.00 168.60 70.00 168.12 70.00 C 168.10 67.88 168.08 65.77 168.05 63.65 C 165.59 66.05 163.96 69.98 160.12 70.29 C 161.93 67.94 163.89 65.71 165.90 63.53 C 164.11 61.29 162.28 59.07 160.74 56.64 Z" />
<path fill="#fefaf9" opacity="1.00" d=" M 180.23 57.10 C 180.69 57.10 181.62 57.09 182.09 57.09 C 182.08 60.68 182.08 64.28 182.11 67.87 C 184.19 64.67 186.07 61.34 188.29 58.23 C 188.89 57.02 190.38 57.20 191.48 56.87 C 191.41 61.08 191.72 65.31 191.37 69.52 C 190.92 69.75 190.04 70.22 189.59 70.45 C 189.46 66.81 189.52 63.16 189.61 59.51 C 187.23 62.94 185.00 66.47 182.79 70.00 C 182.15 70.00 180.88 70.00 180.24 69.99 C 180.24 65.70 180.24 61.40 180.23 57.10 Z" />
<path fill="#fefaf9" opacity="1.00" d=" M 194.00 57.12 C 197.85 57.19 201.87 56.53 205.54 58.02 C 203.79 58.52 202.01 58.85 200.23 59.16 C 200.22 62.77 200.21 66.39 200.20 70.00 C 199.71 70.00 198.73 69.99 198.24 69.99 C 198.24 66.30 198.24 62.61 198.23 58.93 C 196.82 58.91 195.41 58.90 194.00 58.89 C 194.00 58.44 194.00 57.56 194.00 57.12 Z" />
<path fill="#fefaf9" opacity="1.00" d=" M 207.02 57.06 C 207.51 57.06 208.50 57.08 208.99 57.09 C 209.01 60.58 208.97 64.08 209.03 67.58 C 211.38 64.35 213.14 60.73 215.62 57.61 C 216.28 57.36 217.60 56.87 218.25 56.62 C 218.39 61.03 218.35 65.43 218.39 69.84 C 217.88 69.89 216.88 69.99 216.37 70.04 C 216.38 66.57 216.38 63.09 216.33 59.61 C 214.06 63.01 211.86 66.45 209.73 69.94 C 209.05 69.96 207.68 70.00 207.00 70.01 C 207.00 65.69 206.99 61.38 207.02 57.06 Z" />
</g>
</svg>
