<?xml version="1.0" encoding="UTF-8" ?>
<!DOCTYPE svg PUBLIC "-//W3C//DTD SVG 1.1//EN" "http://www.w3.org/Graphics/SVG/1.1/DTD/svg11.dtd">
<svg width="177pt" height="72pt" viewBox="0 0 177 72" version="1.1" xmlns="http://www.w3.org/2000/svg">
<g id="#ff6a56ff">
<path fill="#ff6a56" opacity="1.00" d=" M 4.63 6.77 C 6.46 6.75 8.29 6.75 10.12 6.75 C 10.14 8.86 10.15 10.98 10.10 13.09 C 12.08 12.09 14.85 11.42 16.49 13.42 C 18.75 16.51 18.82 21.33 16.31 24.32 C 14.57 25.72 12.24 25.35 10.40 24.37 C 9.14 24.71 7.88 25.02 6.60 25.31 C 6.60 20.03 6.58 14.75 6.62 9.47 C 5.38 9.00 4.72 8.10 4.63 6.77 M 10.41 15.44 C 10.01 17.62 10.19 19.86 10.13 22.07 C 10.93 22.26 12.53 22.64 13.33 22.84 C 14.66 20.78 15.12 18.15 14.17 15.84 C 13.53 14.36 11.46 14.50 10.41 15.44 Z" />
<path fill="#ff6a56" opacity="1.00" d=" M 19.03 12.39 C 21.42 12.38 23.81 12.37 26.20 12.41 C 25.98 13.56 25.38 14.43 24.38 15.02 C 25.12 17.01 25.87 19.00 26.59 21.00 C 27.27 19.00 28.02 17.04 28.74 15.07 C 27.90 14.37 27.34 13.49 27.06 12.43 C 29.37 12.37 31.69 12.37 34.00 12.41 C 33.83 13.56 33.32 14.53 32.20 14.99 C 30.16 19.44 28.93 24.26 26.53 28.53 C 25.40 30.35 23.10 30.04 21.27 30.18 C 21.33 29.49 21.44 28.12 21.50 27.43 C 22.19 27.39 23.56 27.33 24.25 27.30 C 25.19 24.80 23.68 22.45 22.87 20.17 C 21.88 18.00 21.45 15.30 19.23 13.99 C 19.18 13.59 19.08 12.79 19.03 12.39 Z" />
<path fill="#ff6a56" opacity="1.00" d=" M 28.90 34.65 C 31.38 34.63 33.87 34.63 36.36 34.62 C 36.39 38.10 36.44 41.59 36.31 45.07 C 39.05 42.24 44.49 41.43 46.86 45.10 C 48.95 49.31 47.92 54.23 48.15 58.75 C 48.80 58.90 50.10 59.19 50.75 59.33 C 50.75 60.01 50.75 61.37 50.75 62.04 C 47.54 62.08 44.34 62.09 41.13 62.04 C 41.12 61.41 41.12 60.16 41.12 59.53 C 41.70 59.29 42.87 58.83 43.46 58.59 C 43.71 55.10 43.82 51.55 43.30 48.08 C 42.01 45.03 38.28 46.14 36.37 47.85 C 36.44 51.42 36.40 54.98 36.41 58.54 C 38.52 58.70 39.13 60.15 39.08 62.03 C 35.84 62.09 32.61 62.08 29.37 62.04 C 29.37 61.35 29.36 59.97 29.36 59.28 C 30.01 59.16 31.31 58.90 31.96 58.78 C 31.96 51.86 31.97 44.95 31.93 38.03 C 29.97 37.75 28.57 36.87 28.90 34.65 Z" />
<path fill="#ff6a56" opacity="1.00" d=" M 8.85 40.83 C 12.76 34.88 21.55 34.76 26.90 38.78 C 26.88 40.81 26.87 42.84 26.87 44.87 C 25.74 44.88 24.61 44.88 23.48 44.89 C 23.28 43.40 23.04 41.92 22.82 40.44 C 19.44 39.17 14.75 38.93 12.68 42.50 C 10.45 46.78 10.23 52.71 13.30 56.66 C 15.73 59.50 19.78 59.08 23.01 58.17 C 23.15 56.90 23.30 55.63 23.44 54.36 C 24.55 54.37 25.65 54.39 26.75 54.40 C 26.74 56.48 26.73 58.57 26.71 60.66 C 21.74 62.63 15.46 63.58 10.97 60.00 C 5.57 55.43 5.32 46.60 8.85 40.83 Z" />
<path fill="#ff6a56" opacity="1.00" d=" M 105.89 39.92 C 110.07 34.58 118.15 35.29 123.40 38.58 C 123.38 40.52 123.38 42.47 123.40 44.41 C 122.52 44.42 120.78 44.42 119.90 44.43 C 119.74 43.14 119.58 41.85 119.42 40.57 C 116.29 39.28 112.04 38.76 109.72 41.80 C 106.75 45.73 106.68 51.65 109.01 55.90 C 111.25 59.54 116.02 59.19 119.61 58.18 C 119.59 56.42 119.58 54.65 119.58 52.88 C 118.23 52.81 116.88 52.75 115.53 52.68 C 115.51 51.62 115.50 50.56 115.48 49.50 C 118.32 49.50 121.15 49.50 123.98 49.49 C 124.05 53.00 124.03 56.52 123.97 60.04 C 119.42 62.43 113.74 63.47 108.97 61.10 C 101.69 57.04 101.29 46.14 105.89 39.92 Z" />
<path fill="#ff6a56" opacity="1.00" d=" M 127.01 36.37 C 132.32 36.62 137.76 35.77 142.98 37.00 C 148.41 38.48 149.94 46.22 146.02 50.00 C 142.86 52.94 138.24 52.21 134.30 52.29 C 134.30 54.44 134.30 56.60 134.29 58.75 C 134.96 58.88 136.31 59.14 136.98 59.26 C 136.99 59.96 137.01 61.34 137.01 62.04 C 133.67 62.09 130.33 62.09 126.98 62.04 C 126.99 61.35 126.99 59.97 126.99 59.28 C 127.70 59.16 129.12 58.92 129.83 58.81 C 129.86 52.42 129.82 46.04 129.83 39.65 C 128.88 39.50 127.93 39.34 126.99 39.18 C 126.99 38.48 127.01 37.07 127.01 36.37 M 134.30 39.83 C 134.31 42.85 134.28 45.86 134.29 48.88 C 136.51 48.84 138.78 49.06 140.98 48.59 C 144.42 47.56 144.68 42.14 141.72 40.46 C 139.36 39.54 136.76 39.96 134.30 39.83 Z" />
<path fill="#ff6a56" opacity="1.00" d=" M 150.12 36.37 C 157.51 36.41 164.89 36.33 172.28 36.42 C 172.26 38.68 172.27 40.93 172.28 43.19 C 171.43 43.19 169.73 43.20 168.88 43.20 C 168.77 42.04 168.65 40.88 168.54 39.72 C 166.83 39.75 165.12 39.76 163.41 39.79 C 163.41 46.03 163.41 52.27 163.39 58.51 C 165.38 58.85 166.84 59.74 166.43 62.03 C 163.04 62.09 159.65 62.09 156.26 62.04 C 156.25 61.34 156.23 59.96 156.22 59.27 C 156.90 59.15 158.27 58.92 158.95 58.81 C 158.98 52.45 158.94 46.10 158.93 39.74 C 157.25 39.75 155.56 39.76 153.88 39.77 C 153.74 40.92 153.60 42.08 153.46 43.23 C 152.62 43.22 150.95 43.19 150.12 43.18 C 150.12 40.91 150.13 38.64 150.12 36.37 Z" />
<path fill="#ff6a56" opacity="1.00" d=" M 74.50 38.39 C 75.96 38.38 77.42 38.37 78.88 38.36 C 78.87 39.90 78.87 41.43 78.88 42.97 C 80.12 42.99 81.36 43.00 82.61 43.02 C 82.63 43.79 82.67 45.32 82.70 46.09 C 81.42 46.13 80.14 46.18 78.86 46.22 C 79.14 50.33 78.26 54.61 79.41 58.61 C 80.54 58.83 81.68 58.95 82.84 58.95 C 82.95 59.70 83.18 61.20 83.29 61.95 C 80.34 62.57 75.86 63.02 74.81 59.30 C 74.05 54.97 74.65 50.52 74.47 46.15 C 73.76 46.15 72.33 46.17 71.61 46.17 C 71.62 45.38 71.62 43.81 71.62 43.02 C 72.34 43.00 73.78 42.98 74.50 42.97 C 74.50 41.44 74.50 39.91 74.50 38.39 Z" />
<path fill="#ff6a56" opacity="1.00" d=" M 53.80 44.54 C 57.95 42.32 64.23 41.28 67.51 45.45 C 69.81 49.49 68.00 54.40 68.77 58.78 C 69.25 58.99 70.20 59.40 70.68 59.61 C 70.66 60.22 70.63 61.44 70.61 62.05 C 68.36 61.72 64.56 63.37 64.17 60.10 C 62.09 61.65 59.60 63.10 56.92 62.23 C 52.64 61.59 51.38 55.26 54.63 52.69 C 57.24 50.32 61.05 50.86 64.30 50.62 C 64.00 49.08 64.04 47.28 62.75 46.17 C 61.05 45.62 59.30 46.15 57.60 46.41 C 57.51 47.14 57.31 48.60 57.22 49.33 C 56.38 49.32 54.71 49.29 53.87 49.28 C 53.86 47.70 53.84 46.12 53.80 44.54 M 57.28 58.44 C 59.16 58.70 61.36 59.36 62.99 57.97 C 64.48 56.97 63.89 54.91 64.30 53.42 C 62.55 53.53 60.79 53.55 59.06 53.86 C 57.27 54.68 57.38 56.80 57.28 58.44 Z" />
</g>
</svg>
