<?xml version="1.0" encoding="UTF-8" ?>
<!DOCTYPE svg PUBLIC "-//W3C//DTD SVG 1.1//EN" "http://www.w3.org/Graphics/SVG/1.1/DTD/svg11.dtd">
<svg width="244pt" height="120pt" viewBox="0 0 244 120" version="1.1" xmlns="http://www.w3.org/2000/svg">
<g id="#ff523aff">
<path fill="#ff523a" opacity="1.00" d=" M 189.42 14.73 C 190.34 14.69 192.18 14.62 193.10 14.58 C 193.45 15.19 194.15 16.42 194.51 17.03 C 196.40 16.96 198.11 16.32 199.21 14.68 C 200.04 14.68 201.70 14.67 202.53 14.67 C 201.52 21.49 190.49 21.53 189.42 14.73 Z" />
<path fill="#ff523a" opacity="1.00" d=" M 37.84 19.77 C 40.64 17.23 44.28 15.65 48.12 16.05 C 52.02 16.01 56.70 18.63 56.54 23.01 C 56.69 25.49 54.86 27.30 53.13 28.77 C 55.78 30.55 57.82 33.55 56.66 36.86 C 53.59 45.11 38.24 44.21 37.32 34.86 C 38.96 34.87 40.60 34.87 42.24 34.89 C 43.27 36.67 44.57 38.80 47.00 38.40 C 49.92 38.93 52.57 36.08 51.56 33.23 C 50.58 30.19 46.67 31.14 44.23 30.73 C 44.23 29.52 44.22 28.31 44.22 27.10 C 46.55 26.70 50.19 27.84 51.15 24.90 C 52.03 23.00 50.77 20.84 48.86 20.28 C 46.70 19.51 44.49 20.38 42.43 21.01 C 42.25 21.94 41.89 23.80 41.71 24.73 C 40.43 24.74 39.15 24.75 37.87 24.76 C 37.87 23.10 37.86 21.43 37.84 19.77 Z" />
<path fill="#ff523a" opacity="1.00" d=" M 59.25 22.98 C 64.79 22.99 70.33 22.99 75.88 22.99 C 75.88 25.21 75.88 27.43 75.88 29.65 C 74.78 29.64 73.68 29.64 72.59 29.63 C 72.56 28.98 72.51 27.68 72.48 27.03 C 70.66 27.02 68.84 27.02 67.02 27.01 C 67.04 30.82 67.03 34.63 67.04 38.43 C 67.72 38.54 69.08 38.76 69.76 38.86 C 69.76 39.65 69.75 41.24 69.75 42.03 C 66.25 42.03 62.75 42.03 59.24 42.03 C 59.24 41.24 59.25 39.66 59.25 38.86 C 59.89 38.73 61.19 38.48 61.84 38.35 C 61.84 34.42 61.85 30.49 61.85 26.56 C 61.20 26.45 59.89 26.24 59.24 26.13 C 59.24 25.34 59.25 23.77 59.25 22.98 Z" />
<path fill="#ff523a" opacity="1.00" d=" M 79.22 26.31 C 81.97 21.54 90.09 21.22 92.90 26.07 C 94.25 28.49 94.04 31.37 94.27 34.04 C 90.34 34.04 86.40 33.99 82.46 34.12 C 83.32 35.66 83.90 37.80 85.88 38.23 C 88.16 38.77 90.39 37.83 92.57 37.30 C 92.85 38.08 93.41 39.63 93.70 40.41 C 90.10 42.35 85.53 43.36 81.79 41.18 C 76.84 38.19 76.41 30.91 79.22 26.31 M 82.52 30.55 C 84.89 30.61 87.27 30.61 89.65 30.55 C 89.00 28.88 88.61 26.04 86.19 26.43 C 83.93 26.45 83.36 28.94 82.52 30.55 Z" />
<path fill="#ff523a" opacity="1.00" d=" M 96.86 22.99 C 100.20 22.99 103.54 22.99 106.88 22.99 C 106.88 23.75 106.88 25.27 106.88 26.03 C 106.34 26.19 105.27 26.51 104.73 26.68 C 104.74 27.66 104.77 29.62 104.79 30.60 C 106.84 30.60 108.90 30.61 110.96 30.62 C 110.97 29.62 110.98 27.62 110.98 26.63 C 110.42 26.49 109.30 26.21 108.74 26.07 C 108.74 25.30 108.74 23.76 108.74 22.99 C 112.12 22.99 115.50 22.99 118.88 22.99 C 118.88 23.76 118.88 25.31 118.87 26.08 C 118.19 26.23 116.83 26.52 116.15 26.67 C 116.16 30.60 116.16 34.54 116.17 38.47 C 116.85 38.56 118.20 38.73 118.88 38.82 C 118.88 39.62 118.88 41.23 118.88 42.04 C 115.48 42.04 112.09 42.04 108.70 42.04 C 108.71 41.37 108.75 40.02 108.77 39.34 C 111.12 38.82 111.00 36.55 111.24 34.65 C 109.07 34.64 106.91 34.64 104.75 34.63 C 104.76 35.57 104.76 37.44 104.77 38.37 C 105.30 38.50 106.35 38.76 106.88 38.89 C 106.88 39.68 106.88 41.25 106.87 42.04 C 103.53 42.04 100.19 42.03 96.85 42.04 C 96.85 41.25 96.85 39.67 96.84 38.88 C 97.53 38.77 98.92 38.54 99.61 38.43 C 99.59 34.47 99.60 30.50 99.61 26.54 C 98.93 26.45 97.55 26.27 96.87 26.18 C 96.86 25.38 96.86 23.79 96.86 22.99 Z" />
<path fill="#ff523a" opacity="1.00" d=" M 122.73 26.74 C 125.23 21.72 133.11 21.15 136.48 25.52 C 138.18 28.00 137.78 31.19 137.96 34.04 C 134.11 34.04 130.26 33.99 126.41 34.12 C 127.17 35.46 127.51 37.26 129.03 37.97 C 131.36 39.09 133.89 37.80 136.20 37.27 C 136.56 38.06 137.30 39.64 137.67 40.43 C 134.02 42.23 129.48 43.42 125.72 41.24 C 120.78 38.40 120.31 31.39 122.73 26.74 M 126.35 30.51 C 128.73 30.60 131.12 30.61 133.51 30.55 C 132.81 29.15 132.87 26.74 130.91 26.49 C 128.29 25.64 127.29 28.75 126.35 30.51 Z" />
<path fill="#ff523a" opacity="1.00" d=" M 139.87 22.99 C 142.37 22.99 144.88 22.99 147.38 22.99 C 147.36 23.43 147.33 24.32 147.31 24.76 C 149.54 23.39 152.14 21.77 154.81 23.00 C 160.47 25.63 160.78 33.52 158.64 38.58 C 156.75 42.86 151.10 43.38 147.65 40.68 C 147.72 42.20 147.76 43.73 147.82 45.25 C 149.77 45.80 150.46 47.36 150.58 49.24 C 147.09 49.28 143.60 49.26 140.12 49.28 C 140.12 48.26 140.13 47.24 140.14 46.22 C 140.76 46.09 142.00 45.82 142.62 45.69 C 142.58 39.31 142.60 32.94 142.62 26.57 C 141.92 26.45 140.54 26.22 139.85 26.10 C 139.86 25.32 139.87 23.77 139.87 22.99 M 147.75 27.66 C 147.79 30.73 147.58 33.81 147.92 36.86 C 149.30 39.56 153.99 38.61 154.34 35.60 C 154.85 32.61 155.11 28.56 152.13 26.72 C 150.60 26.35 149.19 27.32 147.75 27.66 Z" />
<path fill="#ff523a" opacity="1.00" d=" M 161.25 22.99 C 164.67 22.99 168.10 22.99 171.53 23.00 C 171.42 24.73 170.90 26.28 169.12 26.90 C 170.24 29.91 171.28 32.94 172.33 35.98 C 173.47 32.92 174.60 29.85 175.86 26.84 C 173.97 26.34 173.41 24.80 173.36 23.00 C 176.62 22.99 179.88 22.99 183.14 22.99 C 183.14 23.73 183.14 25.21 183.14 25.96 C 182.57 26.10 181.43 26.40 180.86 26.55 C 178.90 31.95 176.61 37.22 174.61 42.60 C 173.71 44.85 172.84 47.37 170.72 48.78 C 168.84 49.97 166.50 49.49 164.40 49.59 C 164.54 48.35 164.68 47.10 164.83 45.86 C 167.06 45.67 169.70 45.05 169.75 42.29 C 167.97 36.91 165.58 31.76 163.56 26.47 C 162.98 26.36 161.82 26.14 161.25 26.03 C 161.25 25.27 161.25 23.75 161.25 22.99 Z" />
<path fill="#ff523a" opacity="1.00" d=" M 184.86 22.98 C 188.33 22.98 191.79 22.98 195.26 22.97 C 195.27 23.77 195.28 25.36 195.28 26.16 C 194.65 26.26 193.39 26.47 192.76 26.57 C 192.76 29.25 192.76 31.94 192.75 34.62 C 194.96 30.78 196.90 26.80 199.12 22.97 C 201.70 22.98 204.29 22.99 206.88 22.99 C 206.88 23.77 206.88 25.31 206.88 26.08 C 206.22 26.21 204.91 26.47 204.26 26.60 C 204.28 30.55 204.26 34.49 204.29 38.43 C 204.94 38.54 206.23 38.76 206.88 38.86 C 206.88 39.65 206.88 41.23 206.88 42.02 C 203.45 42.03 200.03 42.03 196.60 42.04 C 196.60 41.24 196.59 39.65 196.59 38.85 C 197.23 38.75 198.50 38.54 199.13 38.44 C 199.14 35.74 199.11 33.04 199.08 30.34 C 197.01 34.21 194.80 38.02 192.89 41.97 C 190.21 42.02 187.53 42.05 184.85 42.04 C 184.85 41.25 184.85 39.68 184.85 38.89 C 185.54 38.77 186.92 38.54 187.61 38.43 C 187.59 34.48 187.60 30.52 187.61 26.57 C 186.92 26.45 185.54 26.22 184.86 26.10 C 184.86 25.32 184.86 23.76 184.86 22.98 Z" />
<path fill="#ff523a" opacity="1.00" d=" M 220.38 63.39 C 222.08 63.38 223.79 63.37 225.50 63.37 C 225.50 68.96 225.51 74.55 225.51 80.14 C 223.79 80.14 222.08 80.14 220.36 80.14 C 220.37 74.56 220.37 68.97 220.38 63.39 Z" />
<path fill="#ff523a" opacity="1.00" d=" M 19.25 70.00 C 26.58 69.98 33.92 69.99 41.25 69.99 C 41.26 70.77 41.27 72.34 41.27 73.12 C 40.61 73.25 39.30 73.51 38.64 73.63 C 38.63 77.55 38.64 81.47 38.63 85.40 C 39.29 85.51 40.61 85.75 41.27 85.86 C 41.27 86.66 41.27 88.24 41.27 89.04 C 37.93 89.03 34.59 89.03 31.25 89.04 C 31.24 88.26 31.24 86.70 31.24 85.92 C 31.80 85.77 32.92 85.48 33.48 85.33 C 33.48 81.56 33.48 77.79 33.49 74.03 C 31.38 74.02 29.26 74.02 27.14 74.01 C 27.23 77.71 26.93 81.42 27.32 85.11 C 27.83 85.41 28.85 86.03 29.36 86.34 C 29.37 87.01 29.40 88.36 29.42 89.04 C 26.03 89.02 22.64 89.02 19.25 89.02 C 19.25 88.24 19.25 86.69 19.24 85.92 C 20.16 85.73 21.07 85.53 21.98 85.34 C 21.98 81.42 21.98 77.51 21.99 73.59 C 21.08 73.42 20.16 73.26 19.25 73.10 C 19.25 72.32 19.25 70.78 19.25 70.00 Z" />
<path fill="#ff523a" opacity="1.00" d=" M 48.47 70.63 C 51.00 69.37 54.08 69.24 56.68 70.34 C 63.41 73.41 63.73 84.49 57.54 88.27 C 53.43 90.49 47.13 89.50 45.07 84.94 C 42.73 80.29 43.48 73.23 48.47 70.63 M 50.44 74.53 C 48.54 76.92 48.75 80.45 49.62 83.21 C 50.43 85.80 54.54 86.23 55.79 83.80 C 57.09 81.41 56.95 78.40 56.15 75.87 C 55.37 73.62 52.04 72.64 50.44 74.53 Z" />
<path fill="#ff523a" opacity="1.00" d=" M 64.49 70.00 C 71.00 69.97 77.50 69.99 84.01 69.99 C 84.01 70.77 84.02 72.33 84.02 73.12 C 83.36 73.23 82.04 73.46 81.38 73.57 C 81.40 77.37 81.41 81.16 81.39 84.96 C 82.07 84.96 83.44 84.95 84.13 84.95 C 83.99 88.23 83.83 91.50 83.71 94.77 C 82.12 94.76 80.54 94.75 78.96 94.75 C 78.96 92.84 78.96 90.93 78.97 89.03 C 75.19 89.05 71.41 89.05 67.64 89.04 C 67.64 90.94 67.63 92.84 67.63 94.74 C 66.04 94.74 64.45 94.75 62.86 94.76 C 62.73 91.71 62.63 88.66 62.43 85.61 C 67.42 83.91 67.04 77.92 67.33 73.66 C 66.38 73.46 65.43 73.25 64.49 73.05 C 64.49 72.29 64.49 70.76 64.49 70.00 M 72.45 74.13 C 72.40 77.85 71.88 81.59 70.31 85.01 C 72.29 84.97 74.27 84.95 76.25 84.93 C 76.24 81.34 76.25 77.75 76.23 74.16 C 74.97 74.14 73.71 74.13 72.45 74.13 Z" />
<path fill="#ff523a" opacity="1.00" d=" M 87.58 71.41 C 91.95 69.38 98.15 68.30 101.69 72.38 C 103.91 76.40 102.49 81.30 102.88 85.69 C 103.38 85.71 104.38 85.76 104.88 85.78 C 104.88 86.61 104.88 88.26 104.88 89.09 C 102.40 88.72 99.07 90.03 97.44 87.51 C 95.35 89.04 92.71 90.11 90.16 88.97 C 86.21 87.83 85.35 82.06 88.45 79.55 C 91.18 77.36 94.90 77.73 98.17 77.41 C 97.64 75.40 96.84 72.45 94.05 73.24 C 91.91 72.80 91.86 75.17 91.08 76.52 C 89.98 76.51 88.88 76.52 87.78 76.52 C 87.72 74.82 87.65 73.11 87.58 71.41 M 91.65 82.92 C 91.51 86.64 95.87 85.65 97.79 84.14 C 97.74 82.94 97.69 81.75 97.64 80.55 C 95.58 81.01 92.48 80.39 91.65 82.92 Z" />
<path fill="#ff523a" opacity="1.00" d=" M 106.37 70.00 C 108.87 69.99 111.37 69.99 113.87 69.99 L 113.88 71.70 C 116.12 70.09 119.07 68.78 121.75 70.19 C 126.01 72.33 126.62 77.78 126.16 82.02 C 125.86 85.39 123.57 88.98 119.95 89.35 C 117.74 89.89 115.85 88.50 114.04 87.49 C 114.11 89.13 114.15 90.76 114.18 92.40 C 116.32 92.66 116.91 94.27 116.89 96.21 C 113.46 96.29 110.02 96.27 106.59 96.28 C 106.59 95.61 106.60 94.28 106.61 93.61 C 107.20 93.30 108.37 92.68 108.96 92.38 C 109.37 86.13 109.00 79.86 109.13 73.61 C 108.44 73.48 107.06 73.23 106.37 73.11 C 106.37 72.07 106.37 71.03 106.37 70.00 M 114.16 74.86 C 114.15 77.97 114.15 81.08 114.15 84.20 C 115.42 84.60 116.59 85.62 118.00 85.34 C 120.18 85.25 120.84 82.74 121.08 80.98 C 121.28 78.32 121.01 74.51 117.93 73.63 C 116.54 73.45 115.41 74.44 114.16 74.86 Z" />
<path fill="#ff523a" opacity="1.00" d=" M 127.60 69.99 C 131.07 69.98 134.54 69.96 138.01 70.09 C 137.98 71.89 137.53 73.51 135.50 73.90 C 136.65 76.90 137.75 79.91 138.80 82.95 C 139.99 79.73 141.21 76.52 142.38 73.29 C 141.81 73.27 140.69 73.24 140.12 73.22 C 140.12 72.41 140.12 70.80 140.12 69.99 C 143.24 69.99 146.35 69.99 149.47 69.99 C 149.51 70.93 149.54 71.87 149.58 72.82 C 149.01 73.00 147.88 73.38 147.31 73.57 C 144.57 80.15 142.33 86.95 139.34 93.42 C 137.71 96.62 133.92 96.92 130.77 96.51 C 130.95 95.28 131.14 94.04 131.32 92.81 C 133.50 92.73 135.40 91.88 136.50 89.93 C 134.34 84.62 132.46 79.17 130.05 73.96 C 129.45 73.66 128.25 73.04 127.65 72.73 C 127.63 72.05 127.61 70.68 127.60 69.99 Z" />
<path fill="#ff523a" opacity="1.00" d=" M 151.37 70.00 C 154.71 69.98 158.06 69.99 161.41 69.99 C 161.39 70.64 161.36 71.95 161.35 72.61 C 158.91 73.25 159.10 75.59 158.95 77.58 C 161.13 77.59 163.31 77.61 165.49 77.61 C 165.49 76.27 165.49 74.93 165.50 73.59 C 164.93 73.47 163.81 73.23 163.25 73.11 C 163.25 72.33 163.25 70.77 163.24 69.99 C 166.62 69.99 170.00 69.99 173.38 69.99 C 173.38 70.77 173.38 72.33 173.39 73.10 C 172.70 73.24 171.32 73.50 170.64 73.63 C 170.63 77.56 170.64 81.49 170.64 85.42 C 171.33 85.53 172.71 85.74 173.41 85.85 C 173.40 86.64 173.39 88.24 173.39 89.04 C 170.01 89.03 166.62 89.04 163.24 89.04 C 163.24 88.26 163.24 86.69 163.24 85.91 C 163.80 85.76 164.92 85.48 165.48 85.34 C 165.48 84.41 165.48 82.55 165.48 81.62 C 163.29 81.64 161.09 81.65 158.90 81.68 C 159.07 83.61 159.07 85.77 161.36 86.37 C 161.37 87.04 161.41 88.37 161.42 89.04 C 158.07 89.03 154.73 89.03 151.38 89.03 C 151.37 88.25 151.35 86.70 151.34 85.92 C 152.27 85.75 153.20 85.57 154.12 85.40 C 154.12 81.47 154.12 77.54 154.12 73.61 C 153.44 73.48 152.06 73.23 151.37 73.11 C 151.37 72.07 151.37 71.03 151.37 70.00 Z" />
<path fill="#ff523a" opacity="1.00" d=" M 181.26 70.26 C 183.62 69.34 186.36 69.36 188.70 70.34 C 195.52 73.46 195.74 84.84 189.25 88.42 C 185.12 90.51 179.11 89.32 177.05 84.89 C 174.62 80.01 175.68 72.44 181.26 70.26 M 182.50 74.45 C 180.17 77.62 179.96 85.02 185.05 85.45 C 188.97 85.03 189.03 80.08 188.54 77.12 C 188.37 74.25 184.70 72.32 182.50 74.45 Z" />
<path fill="#ff523a" opacity="1.00" d=" M 196.49 70.00 C 199.91 69.99 203.33 69.99 206.75 69.99 C 206.75 70.77 206.75 72.34 206.76 73.12 C 206.14 73.25 204.90 73.50 204.28 73.63 C 204.39 74.72 204.61 76.90 204.72 78.00 C 207.31 76.09 208.64 73.09 210.81 70.80 C 212.44 69.25 214.85 69.90 216.87 69.87 C 216.81 71.04 216.73 72.21 216.61 73.38 C 213.69 74.04 212.03 76.53 210.53 78.89 C 211.98 81.07 213.43 83.24 214.87 85.42 C 215.75 85.58 216.63 85.75 217.52 85.91 C 217.52 86.70 217.51 88.27 217.51 89.05 C 215.13 89.00 212.71 89.23 210.37 88.73 C 208.36 86.33 207.83 82.42 204.51 81.39 C 204.45 82.74 204.40 84.10 204.38 85.46 C 204.97 85.56 206.16 85.76 206.76 85.86 C 206.76 86.66 206.76 88.25 206.76 89.04 C 203.33 89.03 199.91 89.03 196.49 89.04 C 196.48 88.25 196.48 86.66 196.48 85.87 C 197.17 85.76 198.55 85.54 199.24 85.42 C 199.23 81.49 199.25 77.55 199.24 73.61 C 198.32 73.43 197.40 73.25 196.48 73.07 C 196.49 72.30 196.49 70.77 196.49 70.00 Z" />
<path fill="#ff523a" opacity="1.00" d=" M 220.36 84.49 C 222.08 84.49 223.79 84.49 225.51 84.49 C 225.50 85.99 225.50 87.50 225.50 89.01 C 223.79 89.01 222.08 89.02 220.37 89.02 C 220.36 87.51 220.36 86.00 220.36 84.49 Z" />
</g>
</svg>
