<?xml version="1.0" encoding="UTF-8" ?>
<!DOCTYPE svg PUBLIC "-//W3C//DTD SVG 1.1//EN" "http://www.w3.org/Graphics/SVG/1.1/DTD/svg11.dtd">
<svg width="360pt" height="384pt" viewBox="0 0 360 384" version="1.1" xmlns="http://www.w3.org/2000/svg">
<g id="#efefefff">
<path fill="#efefef" opacity="1.00" d=" M 153.06 108.72 C 158.71 104.13 165.51 99.67 173.12 100.19 C 176.63 100.23 179.71 102.86 180.73 106.15 C 183.17 113.26 182.66 120.89 183.40 128.27 C 183.35 132.84 184.66 137.27 185.28 141.78 C 187.00 139.90 188.86 138.14 190.95 136.68 C 196.98 133.37 202.92 129.64 207.58 124.51 C 210.33 121.65 213.54 118.13 212.80 113.83 C 212.67 111.60 211.11 109.95 209.79 108.30 C 208.96 107.20 208.22 106.03 207.50 104.86 L 208.98 104.64 C 212.95 107.27 216.75 110.24 220.06 113.67 C 223.22 116.78 224.81 121.66 223.36 125.94 C 221.02 130.22 216.35 132.28 212.17 134.32 C 210.12 135.19 208.66 137.05 206.47 137.63 C 210.11 137.55 213.35 135.61 216.78 134.60 C 224.42 132.12 230.71 126.94 236.39 121.44 C 239.32 123.59 242.35 125.64 244.95 128.18 C 244.90 128.52 244.79 129.20 244.74 129.54 C 238.52 136.22 229.46 139.06 220.88 141.27 C 216.09 142.62 210.97 142.27 206.32 144.12 C 201.56 144.39 196.80 144.34 192.04 144.31 C 191.59 149.19 191.94 154.09 191.83 158.98 C 192.46 170.94 191.91 182.92 192.05 194.90 C 208.68 194.88 225.31 194.92 241.94 194.88 C 242.01 190.16 241.77 185.42 242.32 180.72 C 242.39 181.32 242.51 182.51 242.57 183.11 C 245.16 182.58 247.22 180.94 248.27 178.52 C 249.22 180.52 250.87 181.99 252.72 183.15 C 250.86 184.24 249.30 185.73 248.23 187.61 C 247.08 185.27 245.06 183.55 242.45 183.07 C 242.10 191.78 242.47 200.49 242.35 209.20 C 225.59 209.04 208.83 209.17 192.07 209.12 C 192.27 225.84 191.58 242.56 191.89 259.28 C 187.20 259.06 182.50 259.24 177.81 259.05 C 178.04 242.42 177.67 225.79 177.82 209.16 C 161.05 209.10 144.27 209.10 127.50 209.18 C 127.42 204.40 127.52 199.63 127.57 194.85 C 144.32 194.91 161.07 194.95 177.83 194.84 C 177.49 178.03 178.11 161.21 177.83 144.39 C 176.76 143.94 175.70 143.48 174.63 143.04 C 158.54 136.88 139.84 136.09 123.81 142.79 C 122.28 139.43 120.67 136.11 119.35 132.67 C 120.42 131.81 121.56 130.94 122.96 130.75 C 130.98 128.84 139.26 129.89 147.40 129.43 C 157.99 131.80 168.47 135.08 177.82 140.69 C 177.49 139.48 177.16 138.27 176.84 137.07 C 175.95 128.54 173.61 120.05 169.43 112.56 C 166.79 108.05 160.70 106.74 156.39 109.62 C 155.56 109.40 153.89 108.95 153.06 108.72 Z" />
<path fill="#efefef" opacity="1.00" d=" M 241.97 159.93 C 243.51 158.13 245.66 160.14 245.76 161.88 C 245.04 163.08 243.95 163.99 243.00 164.99 C 242.72 164.47 242.17 163.44 241.89 162.92 C 241.40 161.93 241.34 160.88 241.97 159.93 Z" />
<path fill="#efefef" opacity="1.00" d=" M 228.15 172.83 C 229.95 171.54 230.08 168.92 231.87 167.68 C 231.42 171.34 234.69 173.22 237.32 174.87 C 234.01 175.70 231.91 178.59 231.53 181.89 C 231.15 181.98 230.39 182.14 230.01 182.22 C 229.82 180.30 230.24 177.87 228.25 176.74 C 226.66 176.02 225.05 175.33 223.73 174.16 C 225.22 173.85 226.99 174.01 228.15 172.83 Z" />
<path fill="#efefef" opacity="1.00" d=" M 37.61 236.89 C 49.91 237.75 62.31 236.59 74.63 237.44 C 75.08 240.01 75.46 242.60 75.51 245.22 C 74.85 250.46 75.17 255.73 75.12 260.99 C 75.24 269.22 74.93 277.45 75.20 285.68 C 75.24 289.03 75.22 292.39 74.78 295.73 C 63.17 296.74 51.47 295.82 39.82 296.20 C 39.62 276.93 39.73 257.65 39.76 238.38 C 39.15 238.30 37.94 238.13 37.33 238.05 L 37.61 236.89 M 51.32 283.42 C 48.53 285.64 48.68 290.28 52.00 291.90 C 55.68 295.03 61.64 289.16 58.61 285.46 C 57.36 282.65 53.86 282.33 51.32 283.42 Z" />
<path fill="#efefef" opacity="1.00" d=" M 251.93 270.15 C 254.14 267.06 257.56 265.03 261.07 263.74 C 262.45 264.26 263.44 265.43 264.60 266.31 C 261.41 270.47 256.56 272.65 251.98 274.89 C 251.81 273.30 251.79 271.72 251.93 270.15 Z" />
</g>
<g id="#cececeff">
<path fill="#cecece" opacity="1.00" d=" M 191.58 100.76 C 197.60 98.83 203.91 101.43 208.98 104.64 L 207.50 104.86 C 208.22 106.03 208.96 107.20 209.79 108.30 C 205.09 107.55 200.13 109.41 197.63 113.57 C 193.46 120.75 193.05 129.37 189.13 136.67 C 189.59 136.67 190.50 136.68 190.95 136.68 C 188.86 138.14 187.00 139.90 185.28 141.78 C 184.66 137.27 183.35 132.84 183.40 128.27 C 185.24 123.75 184.14 118.75 185.01 114.05 C 185.79 109.17 186.44 103.05 191.58 100.76 Z" />
<path fill="#cecece" opacity="1.00" d=" M 143.72 123.03 C 143.91 116.92 148.62 112.33 153.06 108.72 C 153.89 108.95 155.56 109.40 156.39 109.62 C 154.17 114.38 155.34 120.30 158.99 124.02 C 164.15 129.36 170.70 133.02 176.84 137.07 C 177.16 138.27 177.49 139.48 177.82 140.69 C 168.47 135.08 157.99 131.80 147.40 129.43 C 145.79 127.59 143.55 125.74 143.72 123.03 Z" />
<path fill="#cecece" opacity="1.00" d=" M 37.33 238.05 C 37.94 238.13 39.15 238.30 39.76 238.38 C 39.73 257.65 39.62 276.93 39.82 296.20 C 39.23 296.28 38.04 296.44 37.44 296.52 C 36.65 288.70 37.26 280.82 37.05 272.98 C 37.24 261.34 36.67 249.67 37.33 238.05 Z" />
<path fill="#cecece" opacity="1.00" d=" M 51.32 283.42 C 53.86 282.33 57.36 282.65 58.61 285.46 C 61.64 289.16 55.68 295.03 52.00 291.90 C 48.68 290.28 48.53 285.64 51.32 283.42 Z" />
</g>
<g id="#fd6754ff">
<path fill="#fd6754" opacity="1.00" d=" M 174.63 143.04 C 175.70 143.48 176.76 143.94 177.83 144.39 C 178.11 161.21 177.49 178.03 177.83 194.84 C 161.07 194.95 144.32 194.91 127.57 194.85 C 127.54 178.12 127.35 161.38 127.56 144.65 C 143.30 144.42 159.04 144.79 174.77 144.51 L 174.63 143.04 Z" />
<path fill="#fd6754" opacity="1.00" d=" M 192.04 144.31 C 196.80 144.34 201.56 144.39 206.32 144.12 C 218.18 145.08 230.09 144.24 241.97 144.62 C 242.21 149.68 242.85 154.96 241.97 159.93 C 241.34 160.88 241.40 161.93 241.89 162.92 C 243.06 168.71 241.92 174.80 242.32 180.72 C 241.77 185.42 242.01 190.16 241.94 194.88 C 225.31 194.92 208.68 194.88 192.05 194.90 C 191.91 182.92 192.46 170.94 191.83 158.98 C 191.94 154.09 191.59 149.19 192.04 144.31 M 228.15 172.83 C 226.99 174.01 225.22 173.85 223.73 174.16 C 225.05 175.33 226.66 176.02 228.25 176.74 C 230.24 177.87 229.82 180.30 230.01 182.22 C 230.39 182.14 231.15 181.98 231.53 181.89 C 231.91 178.59 234.01 175.70 237.32 174.87 C 234.69 173.22 231.42 171.34 231.87 167.68 C 230.08 168.92 229.95 171.54 228.15 172.83 Z" />
<path fill="#fd6754" opacity="1.00" d=" M 127.50 209.18 C 144.27 209.10 161.05 209.10 177.82 209.16 C 177.67 225.79 178.04 242.42 177.81 259.05 C 165.33 258.94 152.80 258.46 140.37 259.73 C 139.48 259.29 138.60 258.84 137.74 258.37 L 137.53 258.24 C 147.60 252.79 159.27 251.74 169.88 247.72 C 173.69 246.24 176.01 242.02 175.60 238.01 C 175.32 232.26 170.41 225.66 163.99 227.35 C 157.95 228.92 151.75 229.82 145.78 231.69 C 139.86 233.37 133.68 233.21 127.61 233.67 C 127.49 225.51 127.57 217.34 127.50 209.18 Z" />
<path fill="#fd6754" opacity="1.00" d=" M 192.07 209.12 C 208.83 209.17 225.59 209.04 242.35 209.20 C 242.30 216.10 242.39 223.01 242.34 229.91 C 241.04 238.73 243.07 247.52 242.69 256.36 C 236.75 258.80 230.41 260.63 223.93 260.36 C 217.15 260.12 210.33 260.92 203.59 260.10 C 199.77 259.05 195.80 259.35 191.89 259.28 C 191.58 242.56 192.27 225.84 192.07 209.12 Z" />
</g>
<g id="#f8d8b2ff">
<path fill="#f8d8b2" opacity="1.00" d=" M 145.78 231.69 C 151.75 229.82 157.95 228.92 163.99 227.35 C 170.41 225.66 175.32 232.26 175.60 238.01 C 176.01 242.02 173.69 246.24 169.88 247.72 C 159.27 251.74 147.60 252.79 137.53 258.24 L 137.74 258.37 C 137.53 258.53 137.12 258.85 136.91 259.01 C 139.26 259.81 141.52 260.85 143.93 261.44 C 155.55 264.10 167.14 266.97 178.96 268.62 C 181.16 268.83 183.49 269.18 185.62 268.36 C 191.58 265.57 197.42 262.41 203.59 260.10 C 210.33 260.92 217.15 260.12 223.93 260.36 C 230.41 260.63 236.75 258.80 242.69 256.36 C 243.07 247.52 241.04 238.73 242.34 229.91 C 242.40 235.05 242.21 240.20 242.57 245.34 C 247.70 244.87 250.13 249.75 252.13 253.57 C 255.88 253.16 260.06 253.61 262.83 256.44 C 265.79 258.74 266.86 263.17 264.60 266.31 C 263.44 265.43 262.45 264.26 261.07 263.74 C 257.56 265.03 254.14 267.06 251.93 270.15 C 251.79 271.72 251.81 273.30 251.98 274.89 C 233.24 284.11 213.30 290.57 194.19 298.96 C 189.45 301.18 184.14 302.16 178.95 301.24 C 144.30 296.54 109.76 291.03 75.20 285.68 C 74.93 277.45 75.24 269.22 75.12 260.99 C 75.17 255.73 74.85 250.46 75.51 245.22 C 80.79 245.15 86.70 246.73 91.45 243.74 C 98.72 239.83 106.27 235.93 114.57 234.87 C 118.89 234.17 123.32 234.59 127.61 233.67 C 133.68 233.21 139.86 233.37 145.78 231.69 Z" />
</g>
<g id="#3dbea6ff">
<path fill="#3dbea6" opacity="1.00" d=" M 0.00 235.19 C 11.35 235.24 22.71 235.09 34.06 235.21 C 35.57 234.93 36.60 235.95 37.61 236.89 L 37.33 238.05 C 36.67 249.67 37.24 261.34 37.05 272.98 C 37.26 280.82 36.65 288.70 37.44 296.52 C 37.15 297.98 36.65 299.39 36.19 300.81 C 24.12 300.94 12.06 300.81 0.00 300.87 L 0.00 235.19 Z" />
</g>
</svg>
