<?xml version="1.0" encoding="UTF-8" ?>
<!DOCTYPE svg PUBLIC "-//W3C//DTD SVG 1.1//EN" "http://www.w3.org/Graphics/SVG/1.1/DTD/svg11.dtd">
<svg width="110pt" height="53pt" viewBox="0 0 110 53" version="1.1" xmlns="http://www.w3.org/2000/svg">
<g id="#ff6a56ff">
<path fill="#ff6a56" opacity="1.00" d=" M 0.00 26.25 C 0.76 13.96 11.51 3.22 23.92 3.04 C 44.30 2.96 64.69 2.99 85.07 3.03 C 98.12 3.11 109.48 14.99 109.15 28.00 C 109.49 40.85 98.46 52.45 85.67 53.00 L 23.30 53.00 C 11.15 52.27 0.61 41.86 0.00 29.65 L 0.00 26.25 M 51.25 15.77 C 51.25 18.84 51.25 21.92 51.24 24.99 C 48.41 24.99 45.59 25.01 42.76 25.01 C 42.75 26.96 42.76 28.92 42.78 30.87 C 45.60 30.86 48.42 30.88 51.23 30.89 C 51.25 34.13 51.25 37.37 51.27 40.61 C 53.38 40.63 55.50 40.63 57.61 40.61 C 57.62 37.37 57.62 34.13 57.64 30.89 C 60.47 30.88 63.30 30.87 66.13 30.87 C 66.13 28.92 66.13 26.96 66.12 25.01 C 63.29 25.00 60.46 24.99 57.63 25.00 C 57.63 21.91 57.63 18.82 57.59 15.73 C 55.48 15.74 53.36 15.75 51.25 15.77 Z" />
</g>
<g id="#ffffffff">
<path fill="#ffffff" opacity="1.00" d=" M 51.25 15.77 C 53.36 15.75 55.48 15.74 57.59 15.73 C 57.63 18.82 57.63 21.91 57.63 25.00 C 60.46 24.99 63.29 25.00 66.12 25.01 C 66.13 26.96 66.13 28.92 66.13 30.87 C 63.30 30.87 60.47 30.88 57.64 30.89 C 57.62 34.13 57.62 37.37 57.61 40.61 C 55.50 40.63 53.38 40.63 51.27 40.61 C 51.25 37.37 51.25 34.13 51.23 30.89 C 48.42 30.88 45.60 30.86 42.78 30.87 C 42.76 28.92 42.75 26.96 42.76 25.01 C 45.59 25.01 48.41 24.99 51.24 24.99 C 51.25 21.92 51.25 18.84 51.25 15.77 Z" />
</g>
</svg>
