<?xml version="1.0" encoding="UTF-8" ?>
<!DOCTYPE svg PUBLIC "-//W3C//DTD SVG 1.1//EN" "http://www.w3.org/Graphics/SVG/1.1/DTD/svg11.dtd">
<svg width="41pt" height="41pt" viewBox="0 0 41 41" version="1.1" xmlns="http://www.w3.org/2000/svg">
<g id="#d94531d9">
<path fill="#d94531" opacity="0.85" d=" M 29.50 9.40 C 31.02 8.62 32.87 8.55 34.15 9.87 C 32.91 13.75 30.19 16.89 28.76 20.65 C 30.24 23.94 32.58 26.79 33.83 30.19 C 34.01 32.66 31.00 32.56 29.50 31.59 C 22.32 28.26 14.81 25.58 7.86 21.81 C 6.11 20.32 8.00 18.67 9.50 18.17 C 16.14 15.20 22.84 12.34 29.50 9.40 M 9.65 20.51 C 16.83 23.88 24.28 26.68 31.36 30.25 C 31.38 30.02 31.41 29.55 31.43 29.31 C 29.56 26.61 27.73 23.85 26.43 20.82 C 27.37 17.26 29.87 14.24 31.60 10.99 C 24.19 13.93 16.94 17.27 9.65 20.51 Z" />
</g>
</svg>
