<?xml version="1.0" encoding="UTF-8" ?>
<!DOCTYPE svg PUBLIC "-//W3C//DTD SVG 1.1//EN" "http://www.w3.org/Graphics/SVG/1.1/DTD/svg11.dtd">
<svg width="179pt" height="88pt" viewBox="0 0 179 88" version="1.1" xmlns="http://www.w3.org/2000/svg">
<g id="#ff6d59ff">
<path fill="#ff6d59" opacity="1.00" d=" M 53.33 26.41 C 82.24 26.31 111.16 26.41 140.08 26.37 C 146.31 26.23 152.62 28.45 157.01 32.95 C 164.36 39.70 166.13 51.57 161.30 60.25 C 157.50 67.68 149.31 72.52 140.99 72.42 C 112.00 72.40 83.01 72.41 54.02 72.41 C 46.69 72.48 39.40 68.79 35.23 62.74 C 30.11 55.73 29.59 45.74 33.92 38.21 C 37.75 31.25 45.37 26.58 53.33 26.41 M 49.15 44.78 C 51.65 44.36 54.38 43.59 56.37 45.73 C 55.75 46.26 54.52 47.32 53.90 47.85 C 53.14 47.86 51.63 47.87 50.87 47.88 L 50.84 48.76 C 52.56 49.17 54.33 49.47 55.93 50.26 C 56.63 54.32 50.98 52.76 48.58 53.24 C 51.11 54.79 54.90 55.61 57.06 53.03 C 58.43 51.44 56.98 49.74 56.16 48.31 C 56.74 47.03 57.72 45.67 57.02 44.21 C 55.05 41.86 50.96 42.48 49.15 44.78 M 86.98 53.98 C 88.90 55.46 91.19 54.33 93.11 53.53 C 90.58 53.18 87.63 53.32 86.29 50.66 C 88.58 50.52 90.87 50.43 93.17 50.35 C 92.36 48.54 92.19 45.65 89.62 45.65 C 85.09 44.79 83.42 51.83 86.98 53.98 M 94.77 45.74 C 94.68 50.04 94.41 54.38 95.01 58.67 C 96.93 58.09 95.98 55.82 96.31 54.37 C 98.01 54.31 100.29 55.20 101.48 53.48 C 102.84 51.51 102.88 48.52 101.42 46.59 C 99.53 45.17 96.95 45.95 94.77 45.74 M 60.15 55.50 C 61.30 52.81 61.22 49.86 61.24 47.00 C 62.49 47.01 63.75 47.01 65.00 47.02 L 65.01 45.87 C 63.23 45.84 61.46 45.83 59.69 45.82 C 59.66 49.05 59.62 52.30 60.15 55.50 M 68.47 54.36 C 70.35 55.27 72.23 54.23 73.87 53.33 C 71.95 53.12 70.02 52.98 68.10 52.86 C 68.00 52.24 67.81 50.99 67.71 50.36 C 69.78 50.41 71.85 50.43 73.91 50.43 C 73.19 48.43 72.73 45.40 69.92 45.59 C 65.28 45.35 64.36 52.97 68.47 54.36 M 76.62 55.40 C 76.91 53.86 77.08 52.31 77.13 50.75 C 78.45 50.78 79.76 50.81 81.08 50.85 C 81.57 52.41 82.06 53.97 82.63 55.51 C 83.17 52.03 83.16 48.48 82.77 44.98 C 82.16 46.36 81.59 47.75 81.01 49.15 C 79.72 49.18 78.43 49.21 77.14 49.25 C 77.03 48.19 76.82 46.08 76.72 45.03 C 74.56 47.97 74.71 52.35 76.62 55.40 M 103.10 45.15 C 103.99 48.45 105.54 51.53 106.28 54.87 C 105.48 56.51 103.71 57.35 102.43 58.56 C 103.83 58.00 106.06 58.47 106.91 56.94 C 108.93 53.23 110.24 49.15 111.24 45.05 C 108.87 46.84 108.15 49.78 107.32 52.47 C 106.32 49.83 105.61 46.82 103.10 45.15 M 112.54 45.68 C 112.53 48.63 112.52 51.57 112.52 54.52 C 115.35 54.58 118.48 54.75 120.50 52.35 C 120.15 51.77 119.44 50.61 119.09 50.03 C 119.39 48.73 119.35 47.46 118.98 46.24 C 116.86 45.84 114.69 45.82 112.54 45.68 M 121.33 46.54 C 123.43 47.02 125.54 47.44 127.64 47.91 C 125.37 48.94 122.77 49.44 120.90 51.18 C 120.82 53.00 122.15 54.11 123.55 54.96 C 125.10 54.60 126.67 54.30 128.24 54.05 C 128.12 51.44 128.44 48.74 127.64 46.21 C 125.61 45.21 123.37 46.06 121.33 46.54 M 129.68 45.74 L 129.70 47.00 C 130.35 47.00 131.64 47.01 132.29 47.02 C 132.39 49.84 132.35 52.68 132.90 55.46 C 134.35 52.93 134.01 49.98 134.06 47.19 C 134.99 47.03 136.85 46.70 137.78 46.53 C 135.14 45.82 132.39 45.77 129.68 45.74 M 138.16 45.93 C 138.18 49.11 138.23 52.29 138.63 55.45 C 141.07 53.28 142.97 50.61 144.55 47.76 C 144.63 50.29 144.06 53.10 145.79 55.24 C 146.11 51.89 146.08 48.52 145.91 45.16 C 143.18 46.78 141.60 49.57 139.98 52.20 C 139.96 50.10 139.94 48.00 139.92 45.90 C 139.48 45.91 138.60 45.92 138.16 45.93 Z" />
<path fill="#ff6d59" opacity="1.00" d=" M 68.23 47.52 C 69.16 46.54 71.41 46.67 71.77 48.15 C 71.58 50.14 67.18 49.59 68.23 47.52 Z" />
<path fill="#ff6d59" opacity="1.00" d=" M 88.13 47.19 C 89.09 46.68 91.46 47.39 90.55 48.76 C 89.41 50.28 85.59 48.42 88.13 47.19 Z" />
<path fill="#ff6d59" opacity="1.00" d=" M 96.80 46.47 C 98.51 47.10 101.31 47.49 100.89 50.00 C 101.38 52.67 98.62 53.26 96.62 53.50 C 96.52 51.15 96.57 48.80 96.80 46.47 Z" />
<path fill="#ff6d59" opacity="1.00" d=" M 114.04 46.75 C 115.72 47.01 117.51 47.22 118.68 48.63 C 117.14 48.98 115.57 49.21 114.00 49.32 C 114.01 48.68 114.03 47.39 114.04 46.75 Z" />
<path fill="#ff6d59" opacity="1.00" d=" M 122.43 53.47 C 122.60 50.80 125.10 50.41 127.16 49.86 C 126.70 52.36 124.93 53.52 122.43 53.47 Z" />
<path fill="#ff6d59" opacity="1.00" d=" M 114.07 50.25 C 115.83 50.68 117.88 50.90 118.64 52.84 C 117.09 52.94 115.54 53.03 114.00 53.12 C 114.02 52.40 114.05 50.97 114.07 50.25 Z" />
</g>
<g id="#ffe1ddff">
<path fill="#ffe1dd" opacity="1.00" d=" M 49.15 44.78 C 50.96 42.48 55.05 41.86 57.02 44.21 C 57.72 45.67 56.74 47.03 56.16 48.31 C 56.98 49.74 58.43 51.44 57.06 53.03 C 54.90 55.61 51.11 54.79 48.58 53.24 C 50.98 52.76 56.63 54.32 55.93 50.26 C 54.33 49.47 52.56 49.17 50.84 48.76 L 50.87 47.88 C 51.63 47.87 53.14 47.86 53.90 47.85 C 54.52 47.32 55.75 46.26 56.37 45.73 C 54.38 43.59 51.65 44.36 49.15 44.78 Z" />
<path fill="#ffe1dd" opacity="1.00" d=" M 86.98 53.98 C 83.42 51.83 85.09 44.79 89.62 45.65 C 92.19 45.65 92.36 48.54 93.17 50.35 C 90.87 50.43 88.58 50.52 86.29 50.66 C 87.63 53.32 90.58 53.18 93.11 53.53 C 91.19 54.33 88.90 55.46 86.98 53.98 M 88.13 47.19 C 85.59 48.42 89.41 50.28 90.55 48.76 C 91.46 47.39 89.09 46.68 88.13 47.19 Z" />
<path fill="#ffe1dd" opacity="1.00" d=" M 94.77 45.74 C 96.95 45.95 99.53 45.17 101.42 46.59 C 102.88 48.52 102.84 51.51 101.48 53.48 C 100.29 55.20 98.01 54.31 96.31 54.37 C 95.98 55.82 96.93 58.09 95.01 58.67 C 94.41 54.38 94.68 50.04 94.77 45.74 M 96.80 46.47 C 96.57 48.80 96.52 51.15 96.62 53.50 C 98.62 53.26 101.38 52.67 100.89 50.00 C 101.31 47.49 98.51 47.10 96.80 46.47 Z" />
<path fill="#ffe1dd" opacity="1.00" d=" M 60.15 55.50 C 59.62 52.30 59.66 49.05 59.69 45.82 C 61.46 45.83 63.23 45.84 65.01 45.87 L 65.00 47.02 C 63.75 47.01 62.49 47.01 61.24 47.00 C 61.22 49.86 61.30 52.81 60.15 55.50 Z" />
<path fill="#ffe1dd" opacity="1.00" d=" M 68.47 54.36 C 64.36 52.97 65.28 45.35 69.92 45.59 C 72.73 45.40 73.19 48.43 73.91 50.43 C 71.85 50.43 69.78 50.41 67.71 50.36 C 67.81 50.99 68.00 52.24 68.10 52.86 C 70.02 52.98 71.95 53.12 73.87 53.33 C 72.23 54.23 70.35 55.27 68.47 54.36 M 68.23 47.52 C 67.18 49.59 71.58 50.14 71.77 48.15 C 71.41 46.67 69.16 46.54 68.23 47.52 Z" />
<path fill="#ffe1dd" opacity="1.00" d=" M 76.62 55.40 C 74.71 52.35 74.56 47.97 76.72 45.03 C 76.82 46.08 77.03 48.19 77.14 49.25 C 78.43 49.21 79.72 49.18 81.01 49.15 C 81.59 47.75 82.16 46.36 82.77 44.98 C 83.16 48.48 83.17 52.03 82.63 55.51 C 82.06 53.97 81.57 52.41 81.08 50.85 C 79.76 50.81 78.45 50.78 77.13 50.75 C 77.08 52.31 76.91 53.86 76.62 55.40 Z" />
<path fill="#ffe1dd" opacity="1.00" d=" M 103.10 45.15 C 105.61 46.82 106.32 49.83 107.32 52.47 C 108.15 49.78 108.87 46.84 111.24 45.05 C 110.24 49.15 108.93 53.23 106.91 56.94 C 106.06 58.47 103.83 58.00 102.43 58.56 C 103.71 57.35 105.48 56.51 106.28 54.87 C 105.54 51.53 103.99 48.45 103.10 45.15 Z" />
<path fill="#ffe1dd" opacity="1.00" d=" M 112.54 45.68 C 114.69 45.82 116.86 45.84 118.98 46.24 C 119.35 47.46 119.39 48.73 119.09 50.03 C 119.44 50.61 120.15 51.77 120.50 52.35 C 118.48 54.75 115.35 54.58 112.52 54.52 C 112.52 51.57 112.53 48.63 112.54 45.68 M 114.04 46.75 C 114.03 47.39 114.01 48.68 114.00 49.32 C 115.57 49.21 117.14 48.98 118.68 48.63 C 117.51 47.22 115.72 47.01 114.04 46.75 M 114.07 50.25 C 114.05 50.97 114.02 52.40 114.00 53.12 C 115.54 53.03 117.09 52.94 118.64 52.84 C 117.88 50.90 115.83 50.68 114.07 50.25 Z" />
<path fill="#ffe1dd" opacity="1.00" d=" M 121.33 46.54 C 123.37 46.06 125.61 45.21 127.64 46.21 C 128.44 48.74 128.12 51.44 128.24 54.05 C 126.67 54.30 125.10 54.60 123.55 54.96 C 122.15 54.11 120.82 53.00 120.90 51.18 C 122.77 49.44 125.37 48.94 127.64 47.91 C 125.54 47.44 123.43 47.02 121.33 46.54 M 122.43 53.47 C 124.93 53.52 126.70 52.36 127.16 49.86 C 125.10 50.41 122.60 50.80 122.43 53.47 Z" />
<path fill="#ffe1dd" opacity="1.00" d=" M 129.68 45.74 C 132.39 45.77 135.14 45.82 137.78 46.53 C 136.85 46.70 134.99 47.03 134.06 47.19 C 134.01 49.98 134.35 52.93 132.90 55.46 C 132.35 52.68 132.39 49.84 132.29 47.02 C 131.64 47.01 130.35 47.00 129.70 47.00 L 129.68 45.74 Z" />
<path fill="#ffe1dd" opacity="1.00" d=" M 138.16 45.93 C 138.60 45.92 139.48 45.91 139.92 45.90 C 139.94 48.00 139.96 50.10 139.98 52.20 C 141.60 49.57 143.18 46.78 145.91 45.16 C 146.08 48.52 146.11 51.89 145.79 55.24 C 144.06 53.10 144.63 50.29 144.55 47.76 C 142.97 50.61 141.07 53.28 138.63 55.45 C 138.23 52.29 138.18 49.11 138.16 45.93 Z" />
</g>
</svg>
