<?xml version="1.0" encoding="UTF-8" ?>
<!DOCTYPE svg PUBLIC "-//W3C//DTD SVG 1.1//EN" "http://www.w3.org/Graphics/SVG/1.1/DTD/svg11.dtd">
<svg width="176pt" height="68pt" viewBox="0 0 176 68" version="1.1" xmlns="http://www.w3.org/2000/svg">
<g id="#52ff78ff">
<path fill="#52ff78" opacity="1.00" d=" M 16.89 0.00 L 157.47 0.00 C 166.77 0.47 174.97 8.60 175.18 17.97 C 175.33 28.30 175.26 38.65 175.22 48.99 C 175.20 59.05 166.02 67.81 155.99 67.49 C 110.31 67.50 64.64 67.53 18.97 67.47 C 9.39 67.63 0.82 59.71 0.00 50.21 L 0.00 17.68 C 0.56 8.70 7.99 1.02 16.89 0.00 M 110.17 5.41 C 111.59 9.65 117.95 9.91 119.09 5.34 C 117.41 5.35 116.01 5.96 114.88 7.15 C 113.49 6.12 112.02 5.13 110.17 5.41 M 55.76 5.87 C 55.75 11.58 55.75 17.29 55.76 23.00 C 56.54 23.00 58.10 23.00 58.88 23.00 C 58.88 17.29 58.88 11.58 58.87 5.87 C 58.10 5.87 56.54 5.87 55.76 5.87 M 69.97 10.29 C 69.95 12.02 69.85 13.75 69.84 15.48 C 68.33 15.50 66.82 15.52 65.31 15.54 C 65.27 13.82 65.24 12.10 65.21 10.39 C 64.43 10.38 62.89 10.37 62.12 10.37 C 62.12 14.58 62.12 18.79 62.12 23.00 C 62.90 23.00 64.47 23.00 65.25 23.00 C 65.25 21.34 65.25 19.67 65.25 18.01 C 66.79 18.01 68.33 18.00 69.87 18.00 C 69.87 19.67 69.88 21.33 69.88 23.00 C 70.66 23.00 72.22 23.00 73.00 23.00 C 73.01 18.80 73.01 14.59 72.98 10.38 C 72.23 10.36 70.73 10.32 69.97 10.29 M 75.96 10.30 C 75.84 14.53 75.85 18.77 75.88 23.00 C 81.46 23.00 87.05 23.01 92.63 22.99 C 92.63 18.78 92.63 14.57 92.61 10.37 C 91.61 10.38 90.61 10.39 89.62 10.39 C 89.63 13.76 89.63 17.14 89.62 20.51 C 88.33 20.50 87.04 20.49 85.75 20.48 C 85.75 17.11 85.76 13.74 85.73 10.37 C 84.73 10.38 83.73 10.39 82.73 10.39 C 82.75 13.76 82.75 17.12 82.76 20.49 C 81.47 20.49 80.17 20.49 78.88 20.50 C 78.88 17.12 78.88 13.75 78.87 10.37 C 78.14 10.36 76.69 10.32 75.96 10.30 M 95.62 10.38 C 95.63 14.60 95.63 18.82 95.63 23.04 C 96.42 23.01 97.99 22.95 98.78 22.92 C 100.21 20.21 101.71 17.55 103.27 14.91 C 103.26 17.61 103.25 20.30 103.25 23.00 C 104.03 23.00 105.59 23.00 106.37 23.00 C 106.37 18.81 106.37 14.61 106.39 10.42 C 105.35 10.38 104.32 10.35 103.29 10.31 C 101.80 13.00 100.31 15.69 98.81 18.38 C 98.76 15.71 98.74 13.04 98.72 10.37 C 97.68 10.38 96.65 10.39 95.62 10.38 M 109.25 10.33 C 109.25 14.54 109.25 18.76 109.25 22.97 C 110.00 22.99 111.50 23.05 112.26 23.07 C 113.88 20.33 115.41 17.53 116.89 14.71 C 116.95 17.47 117.00 20.24 117.03 23.00 C 117.80 23.00 119.35 23.00 120.12 23.00 C 120.13 18.80 120.13 14.60 120.09 10.40 C 119.35 10.37 117.85 10.33 117.10 10.30 C 115.47 12.96 113.94 15.68 112.43 18.41 C 112.39 15.74 112.38 13.07 112.37 10.40 C 111.33 10.38 110.29 10.36 109.25 10.33 M 87.30 34.18 C 86.17 35.60 88.59 37.42 89.61 35.87 C 90.74 34.44 88.31 32.62 87.30 34.18 M 46.89 38.35 C 46.87 42.57 46.87 46.79 46.88 51.01 C 50.22 50.85 53.88 51.62 56.96 50.01 C 58.86 48.24 57.83 45.68 55.89 44.48 C 57.45 42.91 58.04 40.37 55.84 39.01 C 52.98 37.99 49.86 38.47 46.89 38.35 M 59.57 41.93 C 60.31 41.92 61.77 41.91 62.50 41.91 C 64.21 39.83 67.16 39.95 67.66 42.97 C 64.88 43.42 59.98 43.15 59.72 47.01 C 59.46 50.95 64.01 52.00 66.93 50.53 C 68.17 50.74 69.41 50.95 70.66 51.16 C 70.25 47.53 70.71 43.82 69.92 40.24 C 67.29 36.58 61.05 37.75 59.57 41.93 M 73.15 38.22 C 73.11 44.10 73.12 49.98 73.13 55.86 C 73.93 55.87 75.52 55.88 76.31 55.89 C 76.25 54.02 76.19 52.15 76.09 50.29 C 77.86 50.85 79.89 51.86 81.64 50.69 C 84.96 48.59 84.95 43.67 83.51 40.43 C 82.27 37.76 78.99 37.90 76.62 38.68 C 75.46 38.53 74.30 38.37 73.15 38.22 M 86.73 38.41 C 86.75 42.60 86.75 46.80 86.76 51.00 C 87.54 51.00 89.09 51.00 89.87 51.00 C 89.88 46.77 89.88 42.55 89.86 38.33 C 88.82 38.36 87.77 38.38 86.73 38.41 M 92.19 42.17 C 94.29 42.08 96.14 41.18 98.02 40.38 C 99.54 40.24 99.65 42.03 100.30 42.98 C 98.24 43.32 96.03 43.19 94.12 44.15 C 91.97 45.37 91.68 48.79 93.74 50.26 C 95.40 51.88 97.68 50.95 99.61 50.49 C 100.79 50.73 101.98 50.96 103.17 51.19 C 102.74 47.43 103.72 43.33 102.16 39.80 C 99.30 36.63 93.41 37.99 92.19 42.17 M 105.73 38.42 C 105.76 42.61 105.76 46.81 105.76 51.00 C 106.54 51.00 108.09 51.00 108.87 51.00 C 108.87 49.33 108.88 47.66 108.88 46.00 C 110.42 46.00 111.96 46.01 113.51 46.02 C 113.50 47.68 113.51 49.34 113.51 51.01 C 114.29 51.00 115.85 50.99 116.63 50.99 C 116.63 46.78 116.63 42.58 116.61 38.38 C 115.58 38.38 114.54 38.38 113.51 38.37 C 113.50 40.08 113.49 41.79 113.49 43.50 C 111.96 43.50 110.42 43.50 108.89 43.50 C 108.88 41.77 108.87 40.05 108.85 38.32 C 107.81 38.36 106.77 38.39 105.73 38.42 M 118.41 38.38 C 118.38 38.97 118.34 40.15 118.31 40.74 C 119.70 40.74 121.08 40.74 122.47 40.75 C 122.50 44.17 122.50 47.58 122.51 51.00 C 123.25 51.00 124.75 51.00 125.49 51.00 C 125.50 47.59 125.50 44.18 125.51 40.77 C 126.88 40.75 128.25 40.73 129.62 40.71 C 129.62 40.13 129.63 38.97 129.63 38.39 C 125.89 38.37 122.15 38.37 118.41 38.38 Z" />
<path fill="#52ff78" opacity="1.00" d=" M 50.02 40.53 C 51.48 40.90 55.11 40.51 54.15 43.06 C 52.78 43.32 51.41 43.54 50.02 43.71 C 50.02 42.91 50.02 41.33 50.02 40.53 Z" />
<path fill="#52ff78" opacity="1.00" d=" M 76.30 41.01 C 77.51 40.80 78.72 40.70 79.94 40.71 C 81.73 42.84 81.66 46.04 80.28 48.36 C 78.95 49.12 77.52 48.39 76.17 48.11 C 76.24 45.74 76.28 43.38 76.30 41.01 Z" />
<path fill="#52ff78" opacity="1.00" d=" M 62.79 47.14 C 62.82 44.90 65.76 45.40 67.20 44.84 C 67.21 45.69 67.22 47.39 67.22 48.24 C 65.64 48.42 62.85 49.77 62.79 47.14 Z" />
<path fill="#52ff78" opacity="1.00" d=" M 95.29 46.95 C 96.02 45.02 98.18 45.27 99.83 44.89 C 99.84 45.72 99.87 47.36 99.89 48.19 C 98.12 48.56 95.55 49.72 95.29 46.95 Z" />
<path fill="#52ff78" opacity="1.00" d=" M 49.99 45.46 C 51.78 45.98 55.72 44.92 54.85 47.96 C 53.35 48.68 51.65 48.62 50.05 48.82 C 50.03 47.98 50.00 46.30 49.99 45.46 Z" />
</g>
<g id="#feffffff">
<path fill="#feffff" opacity="1.00" d=" M 110.17 5.41 C 112.02 5.13 113.49 6.12 114.88 7.15 C 116.01 5.96 117.41 5.35 119.09 5.34 C 117.95 9.91 111.59 9.65 110.17 5.41 Z" />
<path fill="#feffff" opacity="1.00" d=" M 55.76 5.87 C 56.54 5.87 58.10 5.87 58.87 5.87 C 58.88 11.58 58.88 17.29 58.88 23.00 C 58.10 23.00 56.54 23.00 55.76 23.00 C 55.75 17.29 55.75 11.58 55.76 5.87 Z" />
<path fill="#feffff" opacity="1.00" d=" M 69.97 10.29 C 70.73 10.32 72.23 10.36 72.98 10.38 C 73.01 14.59 73.01 18.80 73.00 23.00 C 72.22 23.00 70.66 23.00 69.88 23.00 C 69.88 21.33 69.87 19.67 69.87 18.00 C 68.33 18.00 66.79 18.01 65.25 18.01 C 65.25 19.67 65.25 21.34 65.25 23.00 C 64.47 23.00 62.90 23.00 62.12 23.00 C 62.12 18.79 62.12 14.58 62.12 10.37 C 62.89 10.37 64.43 10.38 65.21 10.39 C 65.24 12.10 65.27 13.82 65.31 15.54 C 66.82 15.52 68.33 15.50 69.84 15.48 C 69.85 13.75 69.95 12.02 69.97 10.29 Z" />
<path fill="#feffff" opacity="1.00" d=" M 75.96 10.30 C 76.69 10.32 78.14 10.36 78.87 10.37 C 78.88 13.75 78.88 17.12 78.88 20.50 C 80.17 20.49 81.47 20.49 82.76 20.49 C 82.75 17.12 82.75 13.76 82.73 10.39 C 83.73 10.39 84.73 10.38 85.73 10.37 C 85.76 13.74 85.75 17.11 85.75 20.48 C 87.04 20.49 88.33 20.50 89.62 20.51 C 89.63 17.14 89.63 13.76 89.62 10.39 C 90.61 10.39 91.61 10.38 92.61 10.37 C 92.63 14.57 92.63 18.78 92.63 22.99 C 87.05 23.01 81.46 23.00 75.88 23.00 C 75.85 18.77 75.84 14.53 75.96 10.30 Z" />
<path fill="#feffff" opacity="1.00" d=" M 95.62 10.38 C 96.65 10.39 97.68 10.38 98.72 10.37 C 98.74 13.04 98.76 15.71 98.81 18.38 C 100.31 15.69 101.80 13.00 103.29 10.31 C 104.32 10.35 105.35 10.38 106.39 10.42 C 106.37 14.61 106.37 18.81 106.37 23.00 C 105.59 23.00 104.03 23.00 103.25 23.00 C 103.25 20.30 103.26 17.61 103.27 14.91 C 101.71 17.55 100.21 20.21 98.78 22.92 C 97.99 22.95 96.42 23.01 95.63 23.04 C 95.63 18.82 95.63 14.60 95.62 10.38 Z" />
<path fill="#feffff" opacity="1.00" d=" M 109.25 10.33 C 110.29 10.36 111.33 10.38 112.37 10.40 C 112.38 13.07 112.39 15.74 112.43 18.41 C 113.94 15.68 115.47 12.96 117.10 10.30 C 117.85 10.33 119.35 10.37 120.09 10.40 C 120.13 14.60 120.13 18.80 120.12 23.00 C 119.35 23.00 117.80 23.00 117.03 23.00 C 117.00 20.24 116.95 17.47 116.89 14.71 C 115.41 17.53 113.88 20.33 112.26 23.07 C 111.50 23.05 110.00 22.99 109.25 22.97 C 109.25 18.76 109.25 14.54 109.25 10.33 Z" />
<path fill="#feffff" opacity="1.00" d=" M 87.30 34.18 C 88.31 32.62 90.74 34.44 89.61 35.87 C 88.59 37.42 86.17 35.60 87.30 34.18 Z" />
<path fill="#feffff" opacity="1.00" d=" M 46.89 38.35 C 49.86 38.47 52.98 37.99 55.84 39.01 C 58.04 40.37 57.45 42.91 55.89 44.48 C 57.83 45.68 58.86 48.24 56.96 50.01 C 53.88 51.62 50.22 50.85 46.88 51.01 C 46.87 46.79 46.87 42.57 46.89 38.35 M 50.02 40.53 C 50.02 41.33 50.02 42.91 50.02 43.71 C 51.41 43.54 52.78 43.32 54.15 43.06 C 55.11 40.51 51.48 40.90 50.02 40.53 M 49.99 45.46 C 50.00 46.30 50.03 47.98 50.05 48.82 C 51.65 48.62 53.35 48.68 54.85 47.96 C 55.72 44.92 51.78 45.98 49.99 45.46 Z" />
<path fill="#feffff" opacity="1.00" d=" M 59.57 41.93 C 61.05 37.75 67.29 36.58 69.92 40.24 C 70.71 43.82 70.25 47.53 70.66 51.16 C 69.41 50.95 68.17 50.74 66.93 50.53 C 64.01 52.00 59.46 50.95 59.72 47.01 C 59.98 43.15 64.88 43.42 67.66 42.97 C 67.16 39.95 64.21 39.83 62.50 41.91 C 61.77 41.91 60.31 41.92 59.57 41.93 M 62.79 47.14 C 62.85 49.77 65.64 48.42 67.22 48.24 C 67.22 47.39 67.21 45.69 67.20 44.84 C 65.76 45.40 62.82 44.90 62.79 47.14 Z" />
<path fill="#feffff" opacity="1.00" d=" M 73.15 38.22 C 74.30 38.37 75.46 38.53 76.62 38.68 C 78.99 37.90 82.27 37.76 83.51 40.43 C 84.95 43.67 84.96 48.59 81.64 50.69 C 79.89 51.86 77.86 50.85 76.09 50.29 C 76.19 52.15 76.25 54.02 76.31 55.89 C 75.52 55.88 73.93 55.87 73.13 55.86 C 73.12 49.98 73.11 44.10 73.15 38.22 M 76.30 41.01 C 76.28 43.38 76.24 45.74 76.17 48.11 C 77.52 48.39 78.95 49.12 80.28 48.36 C 81.66 46.04 81.73 42.84 79.94 40.71 C 78.72 40.70 77.51 40.80 76.30 41.01 Z" />
<path fill="#feffff" opacity="1.00" d=" M 86.73 38.41 C 87.77 38.38 88.82 38.36 89.86 38.33 C 89.88 42.55 89.88 46.77 89.87 51.00 C 89.09 51.00 87.54 51.00 86.76 51.00 C 86.75 46.80 86.75 42.60 86.73 38.41 Z" />
<path fill="#feffff" opacity="1.00" d=" M 92.19 42.17 C 93.41 37.99 99.30 36.63 102.16 39.80 C 103.72 43.33 102.74 47.43 103.17 51.19 C 101.98 50.96 100.79 50.73 99.61 50.49 C 97.68 50.95 95.40 51.88 93.74 50.26 C 91.68 48.79 91.97 45.37 94.12 44.15 C 96.03 43.19 98.24 43.32 100.30 42.98 C 99.65 42.03 99.54 40.24 98.02 40.38 C 96.14 41.18 94.29 42.08 92.19 42.17 M 95.29 46.95 C 95.55 49.72 98.12 48.56 99.89 48.19 C 99.87 47.36 99.84 45.72 99.83 44.89 C 98.18 45.27 96.02 45.02 95.29 46.95 Z" />
<path fill="#feffff" opacity="1.00" d=" M 105.73 38.42 C 106.77 38.39 107.81 38.36 108.85 38.32 C 108.87 40.05 108.88 41.77 108.89 43.50 C 110.42 43.50 111.96 43.50 113.49 43.50 C 113.49 41.79 113.50 40.08 113.51 38.37 C 114.54 38.38 115.58 38.38 116.61 38.38 C 116.63 42.58 116.63 46.78 116.63 50.99 C 115.85 50.99 114.29 51.00 113.51 51.01 C 113.51 49.34 113.50 47.68 113.51 46.02 C 111.96 46.01 110.42 46.00 108.88 46.00 C 108.88 47.66 108.87 49.33 108.87 51.00 C 108.09 51.00 106.54 51.00 105.76 51.00 C 105.76 46.81 105.76 42.61 105.73 38.42 Z" />
<path fill="#feffff" opacity="1.00" d=" M 118.41 38.38 C 122.15 38.37 125.89 38.37 129.63 38.39 C 129.63 38.97 129.62 40.13 129.62 40.71 C 128.25 40.73 126.88 40.75 125.51 40.77 C 125.50 44.18 125.50 47.59 125.49 51.00 C 124.75 51.00 123.25 51.00 122.51 51.00 C 122.50 47.58 122.50 44.17 122.47 40.75 C 121.08 40.74 119.70 40.74 118.31 40.74 C 118.34 40.15 118.38 38.97 118.41 38.38 Z" />
</g>
</svg>
