<?xml version="1.0" encoding="UTF-8" ?>
<!DOCTYPE svg PUBLIC "-//W3C//DTD SVG 1.1//EN" "http://www.w3.org/Graphics/SVG/1.1/DTD/svg11.dtd">
<svg width="139pt" height="45pt" viewBox="0 0 139 45" version="1.1" xmlns="http://www.w3.org/2000/svg">
<g id="blue">
<path fill="#c75243" opacity="0.78" d=" M 17.39 0.00 L 120.44 0.00 C 126.91 0.41 132.94 4.29 136.00 9.99 C 139.00 15.48 138.33 22.01 138.10 28.03 C 137.40 36.85 129.72 44.13 121.01 45.00 L 17.97 45.00 C 9.42 44.38 1.81 37.53 0.69 28.98 C 0.14 23.48 -0.12 17.71 1.60 12.38 C 3.94 5.63 10.40 0.92 17.39 0.00 M 96.25 14.53 C 96.72 14.88 97.67 15.57 98.15 15.92 C 100.52 15.10 100.22 12.65 97.96 11.91 C 97.25 12.69 96.66 13.56 96.25 14.53 M 25.85 12.88 C 26.01 15.70 25.42 18.74 26.64 21.39 C 28.77 24.36 32.84 23.70 36.00 23.52 C 35.99 25.68 36.00 27.84 36.00 30.00 C 36.81 30.00 38.44 30.00 39.25 30.00 C 39.25 24.30 39.25 18.60 39.25 12.89 C 38.44 12.89 36.81 12.87 36.00 12.87 C 35.99 15.59 36.00 18.30 35.98 21.02 C 33.90 20.88 31.34 21.87 29.62 20.31 C 28.73 17.94 29.24 15.34 29.09 12.88 C 28.28 12.88 26.66 12.88 25.85 12.88 M 45.39 17.44 C 40.12 19.45 40.47 28.73 46.06 30.09 C 49.93 31.26 53.86 27.90 53.63 23.94 C 54.25 19.55 49.58 15.65 45.39 17.44 M 57.20 17.35 C 57.06 20.36 57.01 23.38 56.50 26.35 C 55.31 27.38 54.48 28.67 54.34 30.28 C 56.00 29.92 58.16 29.78 59.00 28.01 C 60.16 25.45 59.88 22.52 60.19 19.78 C 60.99 19.77 62.58 19.74 63.38 19.72 C 63.38 23.15 63.37 26.58 63.38 30.00 C 64.42 30.00 65.46 29.99 66.50 30.00 C 66.51 25.79 66.50 21.59 66.50 17.38 C 63.40 17.36 60.30 17.39 57.20 17.35 M 73.21 17.24 C 67.66 18.57 67.22 27.46 72.21 29.79 C 75.75 31.46 80.60 28.95 80.62 24.86 C 81.63 20.57 77.76 15.82 73.21 17.24 M 83.12 17.35 C 83.12 21.57 83.12 25.79 83.12 30.00 C 86.38 29.77 90.04 30.72 93.00 29.06 C 95.20 27.53 94.23 24.61 92.19 23.48 C 93.49 22.17 94.42 19.82 92.61 18.50 C 89.83 16.66 86.26 17.58 83.12 17.35 M 96.74 17.39 C 96.75 21.59 96.75 25.80 96.75 30.00 C 97.53 30.00 99.09 30.00 99.87 30.00 C 99.88 25.78 99.88 21.56 99.87 17.35 C 98.82 17.37 97.78 17.38 96.74 17.39 M 103.01 17.37 C 102.99 21.58 103.00 25.79 103.00 30.00 C 103.77 30.00 105.31 30.00 106.08 30.00 C 106.11 28.17 106.19 26.34 106.34 24.52 C 108.22 25.97 109.48 27.99 110.63 30.03 C 111.67 30.02 113.74 30.00 114.78 29.99 C 113.16 27.79 111.58 25.56 110.01 23.33 C 111.38 21.31 112.95 19.42 114.25 17.34 C 112.95 17.39 111.65 17.42 110.35 17.42 C 109.24 19.39 108.06 21.38 106.26 22.80 C 106.17 21.00 106.13 19.19 106.08 17.38 C 105.31 17.38 103.77 17.37 103.01 17.37 Z" />
<path fill="#c75243" opacity="0.78" d=" M 46.12 19.87 C 49.81 17.99 51.50 23.22 50.19 25.92 C 49.71 28.36 45.67 28.48 45.21 26.01 C 44.45 24.02 44.55 21.46 46.12 19.87 Z" />
<path fill="#c75243" opacity="0.78" d=" M 73.12 19.81 C 77.87 17.74 79.29 25.93 75.66 27.71 C 71.30 28.60 70.96 22.22 73.12 19.81 Z" />
<path fill="#c75243" opacity="0.78" d=" M 86.76 20.48 C 87.69 19.58 91.01 20.03 89.89 21.76 C 88.95 22.68 85.66 22.19 86.76 20.48 Z" />
<path fill="#c75243" opacity="0.78" d=" M 86.24 24.49 C 88.23 24.84 91.81 23.88 91.13 27.12 C 89.54 27.51 87.91 27.64 86.28 27.76 C 86.28 26.67 86.26 25.58 86.24 24.49 Z" />
</g>
<g id="#fffefeff">
<path fill="#fffefe" opacity="1.00" d=" M 96.25 14.53 C 96.66 13.56 97.25 12.69 97.96 11.91 C 100.22 12.65 100.52 15.10 98.15 15.92 C 97.67 15.57 96.72 14.88 96.25 14.53 Z" />
<path fill="#fffefe" opacity="1.00" d=" M 25.85 12.88 C 26.66 12.88 28.28 12.88 29.09 12.88 C 29.24 15.34 28.73 17.94 29.62 20.31 C 31.34 21.87 33.90 20.88 35.98 21.02 C 36.00 18.30 35.99 15.59 36.00 12.87 C 36.81 12.87 38.44 12.89 39.25 12.89 C 39.25 18.60 39.25 24.30 39.25 30.00 C 38.44 30.00 36.81 30.00 36.00 30.00 C 36.00 27.84 35.99 25.68 36.00 23.52 C 32.84 23.70 28.77 24.36 26.64 21.39 C 25.42 18.74 26.01 15.70 25.85 12.88 Z" />
<path fill="#fffefe" opacity="1.00" d=" M 45.39 17.44 C 49.58 15.65 54.25 19.55 53.63 23.94 C 53.86 27.90 49.93 31.26 46.06 30.09 C 40.47 28.73 40.12 19.45 45.39 17.44 M 46.12 19.87 C 44.55 21.46 44.45 24.02 45.21 26.01 C 45.67 28.48 49.71 28.36 50.19 25.92 C 51.50 23.22 49.81 17.99 46.12 19.87 Z" />
<path fill="#fffefe" opacity="1.00" d=" M 57.20 17.35 C 60.30 17.39 63.40 17.36 66.50 17.38 C 66.50 21.59 66.51 25.79 66.50 30.00 C 65.46 29.99 64.42 30.00 63.38 30.00 C 63.37 26.58 63.38 23.15 63.38 19.72 C 62.58 19.74 60.99 19.77 60.19 19.78 C 59.88 22.52 60.16 25.45 59.00 28.01 C 58.16 29.78 56.00 29.92 54.34 30.28 C 54.48 28.67 55.31 27.38 56.50 26.35 C 57.01 23.38 57.06 20.36 57.20 17.35 Z" />
<path fill="#fffefe" opacity="1.00" d=" M 73.21 17.24 C 77.76 15.82 81.63 20.57 80.62 24.86 C 80.60 28.95 75.75 31.46 72.21 29.79 C 67.22 27.46 67.66 18.57 73.21 17.24 M 73.12 19.81 C 70.96 22.22 71.30 28.60 75.66 27.71 C 79.29 25.93 77.87 17.74 73.12 19.81 Z" />
<path fill="#fffefe" opacity="1.00" d=" M 83.12 17.35 C 86.26 17.58 89.83 16.66 92.61 18.50 C 94.42 19.82 93.49 22.17 92.19 23.48 C 94.23 24.61 95.20 27.53 93.00 29.06 C 90.04 30.72 86.38 29.77 83.12 30.00 C 83.12 25.79 83.12 21.57 83.12 17.35 M 86.76 20.48 C 85.66 22.19 88.95 22.68 89.89 21.76 C 91.01 20.03 87.69 19.58 86.76 20.48 M 86.24 24.49 C 86.26 25.58 86.28 26.67 86.28 27.76 C 87.91 27.64 89.54 27.51 91.13 27.12 C 91.81 23.88 88.23 24.84 86.24 24.49 Z" />
<path fill="#fffefe" opacity="1.00" d=" M 96.74 17.39 C 97.78 17.38 98.82 17.37 99.87 17.35 C 99.88 21.56 99.88 25.78 99.87 30.00 C 99.09 30.00 97.53 30.00 96.75 30.00 C 96.75 25.80 96.75 21.59 96.74 17.39 Z" />
<path fill="#fffefe" opacity="1.00" d=" M 103.01 17.37 C 103.77 17.37 105.31 17.38 106.08 17.38 C 106.13 19.19 106.17 21.00 106.26 22.80 C 108.06 21.38 109.24 19.39 110.35 17.42 C 111.65 17.42 112.95 17.39 114.25 17.34 C 112.95 19.42 111.38 21.31 110.01 23.33 C 111.58 25.56 113.16 27.79 114.78 29.99 C 113.74 30.00 111.67 30.02 110.63 30.03 C 109.48 27.99 108.22 25.97 106.34 24.52 C 106.19 26.34 106.11 28.17 106.08 30.00 C 105.31 30.00 103.77 30.00 103.00 30.00 C 103.00 25.79 102.99 21.58 103.01 17.37 Z" />
</g>
</svg>
