<?xml version="1.0" encoding="UTF-8" ?>
<!DOCTYPE svg PUBLIC "-//W3C//DTD SVG 1.1//EN" "http://www.w3.org/Graphics/SVG/1.1/DTD/svg11.dtd">
<svg width="49pt" height="49pt" viewBox="0 0 49 49" version="1.1" xmlns="http://www.w3.org/2000/svg">
<g id="#f64f38f7">
<path fill="#f64f38" opacity="0.97" d=" M 11.26 10.12 C 12.17 7.51 15.15 9.42 16.84 10.05 C 23.82 13.47 31.42 15.70 37.96 19.92 C 37.81 20.38 37.51 21.30 37.36 21.76 C 33.49 23.94 29.28 25.43 25.25 27.27 C 20.75 29.11 16.48 31.63 11.65 32.50 C 10.63 27.88 14.96 24.41 16.43 20.34 C 14.70 16.97 11.94 13.90 11.26 10.12 M 13.46 10.90 C 14.89 14.34 17.72 17.24 18.50 20.88 C 16.94 24.08 15.04 27.09 13.28 30.18 C 20.77 27.04 28.26 23.88 35.57 20.35 C 28.11 17.42 20.91 13.86 13.46 10.90 Z" />
</g>
</svg>
