<?xml version="1.0" encoding="UTF-8" ?>
<!DOCTYPE svg PUBLIC "-//W3C//DTD SVG 1.1//EN" "http://www.w3.org/Graphics/SVG/1.1/DTD/svg11.dtd">
<svg width="41pt" height="41pt" viewBox="0 0 41 41" version="1.1" xmlns="http://www.w3.org/2000/svg">
<g id="#908f8fd9">
<path fill="#908f8f" opacity="0.85" d=" M 7.47 9.48 C 7.84 9.29 8.59 8.90 8.96 8.70 C 12.33 9.33 15.28 11.26 18.48 12.45 C 23.32 14.77 28.49 16.45 33.13 19.17 C 34.77 20.45 33.22 22.23 31.79 22.69 C 25.06 25.72 18.26 28.60 11.51 31.59 C 10.15 32.18 7.69 32.93 7.09 30.92 C 7.93 27.19 10.66 24.35 12.07 20.88 C 11.75 16.85 6.72 13.71 7.47 9.48 M 9.43 11.12 C 11.23 14.07 13.11 17.00 14.57 20.14 C 13.62 23.73 11.13 26.81 9.36 30.07 C 16.72 27.11 23.90 23.73 31.20 20.63 C 24.12 17.12 16.82 13.89 9.43 11.12 Z" />
</g>
</svg>
