<?xml version="1.0" encoding="UTF-8" ?>
<!DOCTYPE svg PUBLIC "-//W3C//DTD SVG 1.1//EN" "http://www.w3.org/Graphics/SVG/1.1/DTD/svg11.dtd">
<svg width="25pt" height="25pt" viewBox="0 0 25 25" version="1.1" xmlns="http://www.w3.org/2000/svg">
<g id="#ff523aff">
<path fill="#ff523a" opacity="1.00" d=" M 19.39 0.00 L 20.62 0.00 C 21.42 1.75 23.00 2.91 24.48 4.05 L 25.00 4.14 L 25.00 5.62 C 23.13 7.36 21.37 9.21 19.63 11.09 C 17.45 9.49 15.53 7.59 13.94 5.41 C 15.78 3.63 17.63 1.86 19.39 0.00 Z" />
<path fill="#ff523a" opacity="1.00" d=" M 12.49 6.84 C 14.09 9.02 16.04 10.89 18.21 12.49 C 14.84 15.69 11.62 19.04 8.33 22.31 C 6.29 24.69 2.77 24.21 0.01 24.99 C 0.78 22.24 0.31 18.76 2.67 16.71 C 5.92 13.40 9.27 10.19 12.49 6.84 Z" />
</g>
</svg>
