<?xml version="1.0" encoding="UTF-8" ?>
<!DOCTYPE svg PUBLIC "-//W3C//DTD SVG 1.1//EN" "http://www.w3.org/Graphics/SVG/1.1/DTD/svg11.dtd">
<svg width="360pt" height="431pt" viewBox="0 0 360 431" version="1.1" xmlns="http://www.w3.org/2000/svg">
<g id="#ff6a56ff">
<path fill="#ff6a56" opacity="1.00" d=" M 124.22 72.18 C 130.43 66.76 137.83 62.32 145.96 60.62 C 153.88 59.84 162.30 59.89 169.59 63.51 C 184.16 70.65 194.16 85.51 196.82 101.35 C 199.88 118.67 196.01 136.34 189.73 152.51 C 186.79 160.79 183.50 168.96 179.47 176.79 C 173.47 174.44 168.12 170.80 162.77 167.29 C 148.69 157.69 135.12 146.91 124.76 133.25 C 118.20 124.74 112.98 114.81 111.68 104.02 C 110.29 92.17 115.29 80.00 124.22 72.18 M 141.07 95.11 C 137.05 98.79 138.29 104.78 138.82 109.57 C 142.42 122.74 150.02 134.33 157.48 145.61 C 162.74 153.90 168.98 161.51 174.31 169.75 C 175.33 171.44 176.77 172.83 178.67 173.46 C 178.55 159.00 180.20 144.51 178.75 130.06 C 178.06 119.54 176.60 108.43 170.31 99.63 C 166.78 94.72 162.21 89.84 155.99 88.70 C 150.32 88.05 145.01 91.34 141.07 95.11 Z" />
<path fill="#ff6a56" opacity="1.00" d=" M 232.87 109.92 C 247.75 100.65 269.53 104.83 279.32 119.57 C 283.12 125.83 284.66 133.72 281.94 140.69 C 278.11 153.67 268.09 164.24 256.00 170.00 C 239.04 178.41 219.60 179.33 201.01 178.75 C 196.69 178.56 192.35 178.37 188.08 177.58 C 192.23 164.59 197.52 151.96 203.95 139.94 C 210.90 127.74 220.95 117.33 232.87 109.92 M 244.43 127.66 C 232.12 132.54 221.63 141.09 212.60 150.63 C 206.72 157.10 201.20 163.90 195.25 170.32 C 193.98 171.68 192.92 173.23 192.01 174.86 C 199.42 173.37 206.41 170.41 213.68 168.39 C 224.80 164.68 235.95 160.48 245.60 153.68 C 251.38 149.53 256.85 144.26 259.21 137.38 C 259.73 135.15 260.66 132.10 258.58 130.39 C 254.76 126.96 249.23 126.77 244.43 127.66 Z" />
<path fill="#ff6a56" opacity="1.00" d=" M 50.95 111.01 C 59.63 107.85 69.30 108.14 77.96 111.21 C 87.32 115.14 94.13 122.85 101.25 129.77 C 111.12 138.54 120.07 148.26 129.63 157.36 C 134.94 162.15 140.44 166.94 147.10 169.75 C 154.18 173.31 161.97 174.93 169.64 176.63 C 169.62 177.09 169.58 178.00 169.57 178.46 C 163.14 181.40 155.95 180.89 149.09 180.52 C 136.39 179.01 125.01 172.42 114.81 165.07 C 106.52 158.73 98.07 152.62 89.86 146.18 C 81.85 140.37 74.40 133.08 64.51 130.61 C 54.52 127.22 43.75 128.66 33.82 131.49 C 36.00 122.63 42.10 114.10 50.95 111.01 Z" />
<path fill="#ff6a56" opacity="1.00" d=" M 73.67 198.95 C 73.44 193.38 78.18 187.94 83.93 188.45 C 112.74 188.51 141.56 188.23 170.36 188.65 C 170.90 193.75 170.55 198.89 170.66 204.00 C 170.37 258.83 170.77 313.67 170.40 368.50 C 144.59 368.27 118.77 368.59 92.95 368.31 C 87.72 368.52 82.65 364.52 82.71 359.06 C 82.60 325.85 82.73 292.63 82.61 259.42 C 78.26 258.10 73.75 255.13 73.71 250.06 C 73.47 233.03 73.48 215.99 73.67 198.95 Z" />
<path fill="#ff6a56" opacity="1.00" d=" M 188.42 188.45 C 217.59 188.49 246.77 188.37 275.94 188.52 C 280.88 188.59 285.40 192.89 285.28 197.95 C 285.51 214.64 285.37 231.33 285.39 248.02 C 285.44 250.59 284.95 253.31 283.34 255.38 C 281.37 257.35 278.67 258.28 276.48 259.94 C 276.14 293.75 276.48 327.59 276.32 361.40 C 274.30 364.80 271.34 368.28 267.04 368.33 C 240.88 368.64 214.72 368.43 188.56 368.50 C 188.18 326.00 188.57 283.50 188.41 241.00 C 188.37 223.48 188.19 205.97 188.42 188.45 Z" />
</g>
</svg>
