<?xml version="1.0" encoding="UTF-8" ?>
<!DOCTYPE svg PUBLIC "-//W3C//DTD SVG 1.1//EN" "http://www.w3.org/Graphics/SVG/1.1/DTD/svg11.dtd">
<svg width="100pt" height="100pt" viewBox="0 0 100 100" version="1.1" xmlns="http://www.w3.org/2000/svg">
<g id="#07e9d7ff">
<path fill="#07e9d7" opacity="1.00" d=" M 15.40 44.83 C 17.51 28.26 33.14 14.51 49.93 15.11 C 59.65 14.76 69.30 19.05 75.76 26.28 C 87.34 38.22 87.85 58.69 77.50 71.55 C 74.10 76.01 69.49 79.36 64.55 81.93 C 64.48 78.94 64.40 75.94 64.29 72.95 C 60.03 77.05 54.54 79.58 48.64 80.07 C 48.78 80.89 48.91 81.71 49.04 82.53 C 48.84 81.90 48.44 80.63 48.24 80.00 C 44.11 79.22 39.99 77.91 36.80 75.06 C 41.31 77.84 46.58 80.49 52.03 79.19 C 56.49 78.20 61.38 76.13 63.78 72.07 C 62.48 65.88 56.33 61.20 50.04 61.28 C 43.55 60.95 37.20 65.65 35.66 71.97 C 34.95 75.14 35.31 78.42 35.37 81.63 L 34.66 81.32 C 34.01 81.02 32.72 80.42 32.08 80.12 C 33.23 76.88 35.05 73.54 34.35 70.00 C 33.71 68.68 31.88 69.39 30.97 70.00 C 28.81 71.31 27.36 73.43 25.98 75.48 C 17.78 67.75 13.59 55.99 15.40 44.83 M 46.86 32.60 C 46.53 33.04 45.88 33.91 45.56 34.35 C 40.81 35.09 35.46 37.44 34.95 42.87 C 31.86 43.48 32.36 46.70 32.50 49.09 C 33.32 49.66 34.14 50.24 34.96 50.81 C 35.25 53.42 36.29 56.17 38.96 57.15 C 45.59 60.19 53.78 60.55 60.46 57.49 C 63.22 56.42 64.01 53.48 64.69 50.90 C 68.45 49.52 68.20 43.86 64.48 42.58 C 63.73 40.72 63.46 38.47 61.78 37.16 C 59.57 35.30 56.69 34.66 53.91 34.17 C 52.04 32.15 49.39 31.99 46.86 32.60 M 69.66 53.64 C 66.21 57.49 61.69 61.83 62.41 67.47 C 66.33 67.43 69.61 65.10 72.50 62.70 C 77.13 58.89 81.26 53.80 82.05 47.68 C 77.23 47.09 73.11 50.72 69.66 53.64 Z" />
<path fill="#07e9d7" opacity="1.00" d=" M 43.41 42.39 C 44.00 42.33 45.18 42.21 45.77 42.15 C 45.75 42.80 45.72 44.10 45.70 44.76 C 45.17 44.71 44.09 44.62 43.56 44.58 C 43.52 44.03 43.45 42.94 43.41 42.39 Z" />
<path fill="#07e9d7" opacity="1.00" d=" M 53.46 42.35 C 54.03 42.31 55.17 42.21 55.74 42.17 C 55.73 42.82 55.72 44.11 55.71 44.76 C 55.16 44.71 54.05 44.60 53.49 44.55 C 53.48 44.00 53.47 42.90 53.46 42.35 Z" />
</g>
<g id="#eaeef4ff">
<path fill="#eaeef4" opacity="1.00" d=" M 46.86 32.60 C 49.39 31.99 52.04 32.15 53.91 34.17 C 56.69 34.66 59.57 35.30 61.78 37.16 C 63.46 38.47 63.73 40.72 64.48 42.58 C 68.20 43.86 68.45 49.52 64.69 50.90 C 64.01 53.48 63.22 56.42 60.46 57.49 C 53.78 60.55 45.59 60.19 38.96 57.15 C 36.29 56.17 35.25 53.42 34.96 50.81 C 34.14 50.24 33.32 49.66 32.50 49.09 C 32.36 46.70 31.86 43.48 34.95 42.87 C 35.46 37.44 40.81 35.09 45.56 34.35 C 45.88 33.91 46.53 33.04 46.86 32.60 M 44.16 38.24 C 41.88 38.86 39.16 39.74 38.30 42.20 C 37.24 45.45 37.10 49.24 38.72 52.33 C 42.81 55.88 48.78 55.70 53.87 55.40 C 57.03 55.02 61.23 53.77 61.59 50.01 C 61.92 46.72 62.23 42.75 59.90 40.08 C 55.39 36.91 49.33 37.09 44.16 38.24 Z" />
<path fill="#eaeef4" opacity="1.00" d=" M 69.66 53.64 C 73.11 50.72 77.23 47.09 82.05 47.68 C 81.26 53.80 77.13 58.89 72.50 62.70 C 69.61 65.10 66.33 67.43 62.41 67.47 C 61.69 61.83 66.21 57.49 69.66 53.64 Z" />
<path fill="#eaeef4" opacity="1.00" d=" M 35.66 71.97 C 37.20 65.65 43.55 60.95 50.04 61.28 C 56.33 61.20 62.48 65.88 63.78 72.07 C 61.38 76.13 56.49 78.20 52.03 79.19 C 46.58 80.49 41.31 77.84 36.80 75.06 C 39.99 77.91 44.11 79.22 48.24 80.00 C 48.44 80.63 48.84 81.90 49.04 82.53 C 48.91 81.71 48.78 80.89 48.64 80.07 C 54.54 79.58 60.03 77.05 64.29 72.95 C 64.40 75.94 64.48 78.94 64.55 81.93 C 55.00 85.88 43.56 86.07 34.33 81.18 L 34.66 81.32 L 35.37 81.63 C 35.31 78.42 34.95 75.14 35.66 71.97 M 44.00 68.97 C 42.13 70.05 42.86 72.45 42.76 74.20 C 46.29 75.95 50.41 76.00 54.22 75.28 C 57.63 74.74 57.39 68.84 54.03 68.40 C 50.75 67.62 47.14 67.65 44.00 68.97 M 51.20 81.25 C 51.80 81.81 51.80 81.81 51.20 81.25 Z" />
<path fill="#eaeef4" opacity="1.00" d=" M 30.97 70.00 C 31.88 69.39 33.71 68.68 34.35 70.00 C 35.05 73.54 33.23 76.88 32.08 80.12 C 29.99 78.65 27.95 77.11 25.98 75.48 C 27.36 73.43 28.81 71.31 30.97 70.00 Z" />
</g>
<g id="#323446ff">
<path fill="#323446" opacity="1.00" d=" M 44.16 38.24 C 49.33 37.09 55.39 36.91 59.90 40.08 C 62.23 42.75 61.92 46.72 61.59 50.01 C 61.23 53.77 57.03 55.02 53.87 55.40 C 48.78 55.70 42.81 55.88 38.72 52.33 C 37.10 49.24 37.24 45.45 38.30 42.20 C 39.16 39.74 41.88 38.86 44.16 38.24 M 43.41 42.39 C 43.45 42.94 43.52 44.03 43.56 44.58 C 44.09 44.62 45.17 44.71 45.70 44.76 C 45.72 44.10 45.75 42.80 45.77 42.15 C 45.18 42.21 44.00 42.33 43.41 42.39 M 53.46 42.35 C 53.47 42.90 53.48 44.00 53.49 44.55 C 54.05 44.60 55.16 44.71 55.71 44.76 C 55.72 44.11 55.73 42.82 55.74 42.17 C 55.17 42.21 54.03 42.31 53.46 42.35 Z" />
<path fill="#323446" opacity="1.00" d=" M 44.00 68.97 C 47.14 67.65 50.75 67.62 54.03 68.40 C 57.39 68.84 57.63 74.74 54.22 75.28 C 50.41 76.00 46.29 75.95 42.76 74.20 C 42.86 72.45 42.13 70.05 44.00 68.97 Z" />
<path fill="#323446" opacity="1.00" d=" M 51.20 81.25 C 51.80 81.81 51.80 81.81 51.20 81.25 Z" />
</g>
</svg>
