<?xml version="1.0" encoding="UTF-8" ?>
<!DOCTYPE svg PUBLIC "-//W3C//DTD SVG 1.1//EN" "http://www.w3.org/Graphics/SVG/1.1/DTD/svg11.dtd">
<svg width="331pt" height="317pt" viewBox="0 0 331 317" version="1.1" xmlns="http://www.w3.org/2000/svg">
<g id="#fe523afe">
<path fill="#fe523a" opacity="1.00" d=" M 54.48 16.46 C 52.79 15.52 55.12 15.11 55.61 14.52 C 56.15 14.95 57.23 15.82 57.77 16.25 C 59.43 15.70 61.04 14.26 62.85 15.32 C 61.31 18.43 56.62 19.42 54.48 16.46 Z" />
<path fill="#fe523a" opacity="1.00" d=" M 18.18 15.94 C 20.93 15.86 23.69 15.86 26.44 15.92 C 22.37 19.69 24.51 25.52 24.03 30.37 C 26.35 30.37 28.66 30.37 30.97 30.37 C 30.97 26.53 31.00 22.69 30.95 18.86 C 29.94 18.05 29.12 17.07 28.49 15.94 C 31.05 16.37 34.96 14.64 36.59 17.02 C 36.04 17.50 34.95 18.45 34.40 18.92 C 34.38 22.73 34.40 26.55 34.39 30.36 C 34.99 30.37 36.19 30.39 36.78 30.40 C 36.76 32.65 36.72 34.90 36.65 37.14 C 35.55 37.14 34.45 37.14 33.36 37.14 C 33.36 35.77 33.37 34.40 33.37 33.03 C 28.89 32.98 24.40 33.12 19.92 32.97 C 17.10 33.22 19.52 30.57 20.58 30.03 C 20.62 26.34 20.65 22.65 20.57 18.95 C 19.69 18.01 18.90 17.01 18.18 15.94 Z" />
<path fill="#fe523a" opacity="1.00" d=" M 41.44 20.49 C 43.84 19.57 47.24 20.13 48.39 22.70 C 48.92 24.28 48.89 25.96 49.07 27.59 C 46.36 27.62 43.65 27.64 40.94 27.77 C 42.09 30.93 45.20 30.94 47.91 29.93 C 48.12 30.50 48.54 31.63 48.75 32.20 C 46.12 33.06 43.10 33.99 40.55 32.38 C 36.62 29.69 37.00 22.49 41.44 20.49 M 40.98 25.28 C 42.75 25.33 44.52 25.33 46.29 25.31 C 45.62 24.30 45.08 23.16 44.10 22.43 C 42.50 22.58 41.89 24.21 40.98 25.28 Z" />
<path fill="#fe523a" opacity="1.00" d=" M 60.25 20.30 C 62.21 20.36 64.16 20.43 66.11 20.56 C 65.33 21.52 64.52 22.45 63.69 23.36 C 63.64 25.59 63.63 27.82 63.64 30.04 C 64.20 30.51 65.33 31.45 65.89 31.91 C 64.17 34.22 60.23 32.77 57.72 32.36 C 58.35 31.81 59.63 30.72 60.26 30.18 C 60.25 28.46 60.23 26.74 60.21 25.01 C 58.86 27.70 57.45 30.37 56.11 33.06 C 54.13 33.03 52.16 32.98 50.19 32.88 C 50.95 31.89 51.74 30.92 52.56 29.97 C 52.60 27.77 52.61 25.56 52.57 23.36 C 51.72 22.44 50.90 21.50 50.11 20.54 C 52.72 20.35 55.34 20.35 57.96 20.43 C 56.05 22.61 55.82 25.39 55.98 28.15 C 57.38 25.52 58.83 22.91 60.25 20.30 Z" />
<path fill="#fe523a" opacity="1.00" d=" M 73.73 20.47 C 78.22 20.31 82.72 20.38 87.21 20.37 C 87.24 20.88 87.29 21.88 87.32 22.39 C 86.84 22.49 85.87 22.70 85.39 22.80 C 85.39 25.32 85.39 27.84 85.39 30.35 C 85.86 30.37 86.81 30.39 87.28 30.40 C 87.20 32.52 87.12 34.63 87.04 36.75 C 86.23 36.75 84.62 36.76 83.81 36.76 C 83.83 35.83 83.87 33.96 83.89 33.03 C 81.34 33.03 78.80 33.03 76.25 33.02 C 76.26 34.26 76.27 35.50 76.28 36.74 C 75.22 36.75 74.16 36.76 73.11 36.77 C 73.03 34.88 72.94 32.99 72.87 31.10 C 74.32 29.78 75.92 28.33 75.86 26.19 C 76.77 23.87 74.84 22.23 73.73 20.47 M 79.55 23.00 C 79.37 25.52 78.93 28.02 78.23 30.45 C 79.47 30.41 80.72 30.37 81.97 30.34 C 81.97 27.90 81.98 25.45 81.98 23.00 C 81.37 23.00 80.16 23.00 79.55 23.00 Z" />
<path fill="#fe523a" opacity="1.00" d=" M 92.43 20.50 C 94.91 19.56 98.19 20.09 99.72 22.42 C 101.06 24.37 100.89 26.87 100.52 29.10 C 101.15 29.61 101.79 30.12 102.44 30.62 C 103.84 28.48 104.47 26.02 104.42 23.47 C 103.59 22.51 102.79 21.53 102.02 20.53 C 106.55 20.25 111.09 20.40 115.63 20.38 C 115.62 20.76 115.59 21.54 115.58 21.93 C 112.58 23.35 113.91 27.19 113.92 29.81 C 114.35 30.10 115.22 30.66 115.65 30.95 C 115.58 32.88 115.51 34.80 115.45 36.73 C 114.38 36.75 113.31 36.76 112.24 36.78 C 112.24 35.53 112.24 34.28 112.25 33.03 C 109.75 33.03 107.25 33.03 104.75 33.03 C 104.75 34.28 104.76 35.52 104.76 36.76 C 103.65 36.75 102.54 36.75 101.43 36.74 C 101.40 34.59 101.38 32.44 101.42 30.30 C 100.94 30.53 99.97 30.99 99.49 31.22 C 97.45 33.38 94.04 34.01 91.48 32.41 C 87.57 29.68 87.86 22.41 92.43 20.50 M 93.19 23.17 C 92.05 25.30 91.50 28.84 93.79 30.36 C 99.14 32.41 98.47 20.06 93.19 23.17 M 108.00 23.02 C 107.81 25.55 107.33 28.05 106.53 30.46 C 107.81 30.40 109.08 30.35 110.36 30.31 C 110.36 27.88 110.36 25.46 110.38 23.03 C 109.78 23.03 108.60 23.03 108.00 23.02 Z" />
<path fill="#fe523a" opacity="1.00" d=" M 117.97 21.09 C 121.10 20.08 125.48 19.11 127.68 22.29 C 128.68 25.75 127.30 29.74 129.80 32.77 C 127.99 33.16 126.14 33.00 124.38 32.50 C 122.94 32.76 121.48 33.61 120.01 33.11 C 117.46 32.63 116.42 29.04 118.13 27.18 C 119.87 25.09 122.89 25.68 125.28 25.21 C 124.45 24.11 124.00 21.72 122.16 22.62 C 120.82 23.35 119.65 24.35 118.38 25.19 C 118.28 24.16 118.07 22.12 117.97 21.09 M 120.08 28.85 C 121.04 30.91 122.94 30.69 124.76 30.22 C 124.71 29.44 124.61 27.89 124.55 27.11 C 123.03 27.62 121.54 28.19 120.08 28.85 Z" />
<path fill="#fe523a" opacity="1.00" d=" M 130.50 20.37 C 134.91 20.37 139.32 20.36 143.73 20.38 C 143.74 21.80 143.76 23.23 143.78 24.66 C 143.27 24.65 142.23 24.63 141.71 24.63 C 140.88 23.70 139.92 22.92 138.84 22.29 C 138.74 24.85 138.75 27.41 138.78 29.97 C 139.67 30.86 140.55 31.77 141.39 32.70 C 138.77 32.56 134.86 34.24 133.11 31.92 C 133.67 31.45 134.79 30.52 135.35 30.06 C 135.38 27.47 135.38 24.87 135.24 22.29 C 134.18 23.01 133.17 23.80 132.20 24.66 C 131.77 24.64 130.90 24.60 130.47 24.59 C 130.48 23.18 130.49 21.77 130.50 20.37 Z" />
<path fill="#fe523a" opacity="1.00" d=" M 148.42 20.50 C 152.19 18.78 157.00 21.70 156.75 25.94 C 157.59 29.91 154.07 34.06 149.93 33.27 C 143.77 32.69 142.93 22.69 148.42 20.50 M 149.17 23.19 C 148.13 24.90 148.09 27.00 148.51 28.91 C 148.92 31.07 152.82 31.20 153.08 28.89 C 154.17 26.25 152.88 21.01 149.17 23.19 Z" />
<path fill="#fe523a" opacity="1.00" d=" M 158.22 20.42 C 160.72 20.37 163.22 20.37 165.73 20.43 C 164.84 22.13 163.72 23.80 163.69 25.81 C 166.41 23.75 168.21 18.35 172.47 20.69 C 171.75 23.12 169.16 24.20 167.74 26.18 C 169.34 28.58 171.34 30.66 173.39 32.67 C 171.58 32.87 169.77 33.00 167.96 33.11 C 166.86 31.13 165.69 29.15 163.95 27.66 C 163.89 28.28 163.79 29.51 163.73 30.12 C 164.36 30.69 165.63 31.82 166.26 32.39 C 163.61 33.17 160.83 33.06 158.10 33.03 C 158.80 31.96 159.54 30.92 160.31 29.89 C 160.65 26.52 160.54 23.10 158.22 20.42 Z" />
<path fill="#fe523a" opacity="1.00" d=" M 23.62 46.77 C 24.53 46.75 25.44 46.74 26.34 46.73 C 26.07 48.75 25.75 50.76 25.37 52.77 C 24.94 52.81 24.07 52.89 23.63 52.92 C 23.62 50.87 23.62 48.82 23.62 46.77 Z" />
<path fill="#fe523a" opacity="1.00" d=" M 203.71 46.74 C 204.61 46.75 205.51 46.76 206.42 46.77 C 206.22 49.23 206.22 52.09 203.92 53.62 C 203.77 51.33 203.73 49.04 203.71 46.74 Z" />
<path fill="#fe523a" opacity="1.00" d=" M 19.58 46.78 C 20.27 46.77 21.65 46.74 22.35 46.73 C 22.04 49.20 22.11 52.08 19.84 53.69 C 19.65 51.39 19.61 49.08 19.58 46.78 Z" />
<path fill="#fe523a" opacity="1.00" d=" M 199.71 46.75 C 200.43 46.75 201.88 46.76 202.60 46.76 C 202.29 49.23 202.27 52.12 199.91 53.62 C 199.77 51.34 199.73 49.04 199.71 46.75 Z" />
<path fill="#fe523a" opacity="1.00" d=" M 27.41 47.94 C 33.57 47.81 39.73 47.83 45.89 47.93 C 45.19 49.00 44.47 50.04 43.71 51.07 C 43.60 54.68 43.60 58.29 43.71 61.89 C 44.47 62.92 45.20 63.97 45.89 65.04 C 43.05 65.07 40.18 65.13 37.41 64.41 C 38.30 63.65 39.20 62.89 40.11 62.14 C 40.13 58.31 40.12 54.47 40.12 50.64 C 37.84 50.63 35.55 50.63 33.26 50.61 C 33.28 54.41 33.23 58.21 33.33 62.01 C 34.16 62.91 34.90 63.87 35.57 64.90 C 32.85 65.05 30.13 65.05 27.41 64.87 C 28.12 63.88 28.87 62.93 29.68 62.03 C 29.77 58.32 29.76 54.60 29.69 50.89 C 28.80 50.01 28.04 49.02 27.41 47.94 Z" />
<path fill="#fe523a" opacity="1.00" d=" M 179.23 47.83 C 180.39 47.86 181.55 47.89 182.72 47.92 C 185.06 53.30 185.93 59.45 189.58 64.16 C 190.25 63.68 191.59 62.72 192.26 62.23 C 192.23 58.41 192.24 54.58 192.26 50.75 C 191.60 50.26 190.28 49.28 189.62 48.78 C 192.37 47.44 195.64 47.54 198.42 48.76 C 197.75 49.24 196.41 50.21 195.74 50.69 C 195.76 54.51 195.75 58.33 195.76 62.15 C 196.43 62.71 197.76 63.82 198.43 64.37 C 193.44 65.60 188.25 64.44 183.17 64.94 C 183.67 63.49 184.71 62.05 184.01 60.47 C 181.82 60.31 179.61 60.38 177.41 60.44 C 177.70 61.93 178.11 63.40 178.65 64.83 C 176.39 65.02 174.13 65.01 171.89 64.69 C 175.90 59.89 176.77 53.43 179.23 47.83 M 180.91 51.68 C 180.19 53.74 179.50 55.81 178.80 57.87 C 180.24 57.86 181.67 57.85 183.12 57.84 C 182.37 55.79 181.66 53.73 180.91 51.68 Z" />
<path fill="#fe523a" opacity="1.00" d=" M 50.41 52.50 C 54.25 50.71 58.90 53.83 58.73 58.04 C 59.44 61.94 56.09 66.05 51.97 65.27 C 45.78 64.73 44.78 54.67 50.41 52.50 M 51.21 55.30 C 49.71 56.86 50.08 59.59 50.74 61.48 C 51.89 63.87 55.33 62.36 55.23 59.97 C 56.09 57.55 54.12 53.06 51.21 55.30 Z" />
<path fill="#fe523a" opacity="1.00" d=" M 59.88 52.55 C 64.63 52.27 69.39 52.25 74.14 52.58 C 73.55 53.27 72.38 54.65 71.79 55.34 C 72.13 57.90 70.52 61.65 73.53 62.99 C 73.49 64.91 73.42 66.82 73.36 68.74 C 72.28 68.75 71.19 68.77 70.11 68.79 C 70.12 67.54 70.12 66.29 70.12 65.04 C 67.62 65.03 65.13 65.03 62.63 65.03 C 62.63 66.26 62.63 67.49 62.64 68.71 C 61.55 68.74 60.46 68.77 59.38 68.80 C 59.33 66.81 59.27 64.82 59.22 62.83 C 62.00 61.36 62.39 58.24 62.34 55.40 C 61.50 54.46 60.68 53.52 59.88 52.55 M 65.93 55.04 C 65.73 57.55 65.23 60.02 64.45 62.42 C 65.75 62.38 67.05 62.36 68.36 62.33 C 68.36 59.89 68.36 57.46 68.37 55.02 C 67.56 55.02 66.74 55.03 65.93 55.04 Z" />
<path fill="#fe523a" opacity="1.00" d=" M 76.01 52.92 C 79.12 52.13 83.57 51.07 85.59 54.36 C 86.37 56.89 85.93 59.61 86.03 62.23 C 86.57 62.78 87.65 63.89 88.19 64.45 C 86.26 65.03 84.24 65.17 82.33 64.46 C 80.63 64.86 78.78 65.84 77.13 64.75 C 74.74 63.75 74.61 60.08 76.62 58.61 C 78.49 57.28 80.95 57.59 83.11 57.20 C 82.33 56.06 81.99 53.83 80.12 54.56 C 78.72 55.31 77.49 56.33 76.13 57.16 C 76.10 56.10 76.04 53.98 76.01 52.92 M 79.20 62.68 C 81.63 63.39 82.73 61.41 82.95 59.33 C 81.11 59.22 77.13 60.25 79.20 62.68 Z" />
<path fill="#fe523a" opacity="1.00" d=" M 102.40 52.36 C 104.85 52.36 107.31 52.38 109.76 52.56 C 109.32 53.24 108.43 54.61 107.99 55.30 C 108.67 57.19 109.36 59.09 110.05 60.99 C 110.71 59.19 111.38 57.39 112.06 55.60 C 111.68 54.80 110.92 53.20 110.54 52.40 C 112.86 52.36 115.18 52.37 117.50 52.43 C 114.06 57.20 112.88 63.08 110.19 68.23 C 109.15 70.28 106.64 69.96 104.73 70.27 C 104.80 69.64 104.93 68.38 105.00 67.75 C 106.11 67.19 108.90 67.02 108.14 65.12 C 106.76 61.19 105.71 56.87 102.84 53.72 C 102.73 53.38 102.51 52.70 102.40 52.36 Z" />
<path fill="#fe523a" opacity="1.00" d=" M 118.39 52.36 C 120.67 52.36 122.95 52.32 125.23 52.45 C 124.69 54.16 123.96 55.79 123.32 57.46 C 124.55 57.44 127.02 57.40 128.25 57.38 C 127.82 56.51 126.98 54.77 126.55 53.90 C 126.48 53.52 126.35 52.76 126.28 52.37 C 128.66 52.37 131.04 52.37 133.42 52.42 C 131.00 55.11 131.02 58.60 131.32 62.01 C 132.21 62.91 132.96 63.92 133.57 65.04 C 131.01 65.06 128.44 64.99 125.89 64.72 C 126.68 63.27 127.50 61.83 128.26 60.35 C 126.70 60.25 125.15 60.16 123.59 60.09 C 123.63 60.56 123.72 61.49 123.76 61.96 C 124.40 62.97 125.02 64.01 125.60 65.06 C 122.91 65.05 120.22 65.00 117.54 64.67 C 118.41 63.76 119.31 62.88 120.23 62.02 C 119.80 59.34 121.60 55.29 118.39 53.93 C 118.39 53.54 118.39 52.75 118.39 52.36 Z" />
<path fill="#fe523a" opacity="1.00" d=" M 134.41 52.50 C 137.03 52.34 139.66 52.35 142.29 52.42 C 141.39 54.07 140.37 55.67 139.78 57.47 C 143.27 56.34 144.09 50.99 148.49 52.11 C 148.52 52.63 148.57 53.67 148.60 54.19 C 146.95 55.27 145.51 56.62 144.24 58.11 C 145.86 60.54 147.85 62.68 149.72 64.91 C 147.94 64.97 146.17 64.99 144.39 64.99 C 143.27 63.10 142.08 61.25 140.74 59.51 C 140.62 60.12 140.38 61.34 140.25 61.95 C 141.04 62.90 141.79 63.87 142.51 64.86 C 139.81 65.04 137.11 65.08 134.42 64.91 C 135.08 63.84 135.88 62.88 136.81 62.03 C 136.86 59.78 136.86 57.53 136.80 55.29 C 135.96 54.40 135.16 53.46 134.41 52.50 Z" />
<path fill="#fe523a" opacity="1.00" d=" M 150.03 52.51 C 152.64 52.36 155.25 52.36 157.86 52.42 C 156.17 54.62 155.58 57.25 155.75 59.99 C 157.27 57.49 158.68 54.93 160.05 52.34 C 161.78 52.36 163.51 52.37 165.24 52.39 C 165.23 52.77 165.21 53.52 165.19 53.90 C 162.31 55.61 163.88 59.36 163.52 62.08 C 164.63 62.67 166.82 65.22 164.04 65.01 C 162.00 65.12 159.93 65.05 157.91 64.70 C 158.39 63.67 159.21 62.87 159.94 62.02 C 159.95 60.47 159.95 58.92 159.95 57.38 C 158.51 59.90 157.13 62.46 155.84 65.06 C 153.92 65.02 152.01 64.96 150.10 64.87 C 150.81 63.86 151.55 62.88 152.32 61.91 C 152.35 59.74 152.35 57.56 152.31 55.39 C 151.53 54.45 150.77 53.49 150.03 52.51 Z" />
<path fill="#fe523a" opacity="1.00" d=" M 88.47 52.19 C 90.26 52.36 92.07 52.51 93.85 52.77 C 95.96 52.16 98.83 51.46 100.25 53.72 C 102.24 56.70 102.26 61.10 100.09 64.00 C 98.20 66.05 95.31 64.91 93.02 64.46 C 93.85 66.27 94.75 68.04 95.65 69.81 C 93.09 69.90 90.52 69.90 87.97 69.60 C 88.69 68.65 89.44 67.72 90.20 66.81 C 90.17 62.93 90.48 59.02 90.06 55.16 C 89.66 54.84 88.84 54.21 88.43 53.89 L 88.47 52.19 M 93.71 62.51 C 95.24 62.34 97.54 63.09 97.93 60.94 C 98.72 58.62 98.40 54.08 94.90 54.76 C 92.44 56.44 94.10 60.01 93.71 62.51 Z" />
<path fill="#fe523a" opacity="1.00" d=" M 18.51 84.53 C 22.07 84.45 25.74 83.94 29.25 84.76 C 31.42 85.21 31.43 87.54 31.62 89.29 C 31.20 89.49 30.37 89.89 29.95 90.09 C 31.86 91.39 33.50 94.60 30.86 96.06 C 27.04 97.86 22.53 96.83 18.44 96.78 C 19.20 95.83 20.00 94.92 20.82 94.03 C 20.86 91.78 20.86 89.53 20.83 87.27 C 20.03 86.38 19.26 85.46 18.51 84.53 M 24.22 86.74 C 24.26 87.50 24.33 89.01 24.37 89.76 C 26.13 89.58 28.00 89.36 28.60 87.38 C 27.14 87.15 25.68 86.93 24.22 86.74 M 24.28 91.59 C 24.29 92.56 24.29 93.54 24.31 94.51 C 25.81 94.37 27.38 94.43 28.81 93.85 C 29.49 91.04 25.95 92.03 24.28 91.59 Z" />
<path fill="#fe523a" opacity="1.00" d=" M 43.20 84.37 C 45.00 84.37 46.80 84.37 48.60 84.38 C 48.54 84.72 48.42 85.40 48.36 85.74 C 45.69 87.71 47.07 91.34 46.75 94.13 C 47.42 94.70 48.77 95.82 49.45 96.39 C 46.72 97.17 43.87 97.07 41.07 97.02 C 41.78 95.98 42.51 94.97 43.27 93.97 C 43.34 92.31 43.38 90.66 43.43 89.00 C 42.00 91.70 40.55 94.38 39.10 97.07 C 37.16 97.04 35.23 96.99 33.30 96.88 C 34.04 95.89 34.84 94.95 35.68 94.05 C 35.84 90.65 36.29 86.96 33.47 84.43 C 36.02 84.36 38.57 84.37 41.11 84.46 C 39.19 86.65 38.90 89.40 39.19 92.19 C 40.56 89.60 41.87 86.98 43.20 84.37 Z" />
<path fill="#fe523a" opacity="1.00" d=" M 55.64 89.79 C 58.45 87.78 60.16 82.37 64.49 84.65 C 63.75 87.13 61.08 88.20 59.76 90.34 C 61.42 92.65 63.40 94.67 65.43 96.64 C 63.62 96.86 61.79 97.01 59.97 97.13 C 58.87 95.14 57.66 93.18 55.94 91.67 C 55.89 92.28 55.79 93.51 55.74 94.13 C 56.37 94.69 57.63 95.82 58.27 96.39 C 55.61 97.18 52.82 97.06 50.09 97.04 C 50.79 95.97 51.53 94.92 52.30 93.90 C 52.56 90.56 52.67 87.08 50.26 84.43 C 52.71 84.37 55.16 84.37 57.62 84.37 C 56.80 86.12 55.88 87.85 55.64 89.79 Z" />
<path fill="#fe523a" opacity="1.00" d=" M 68.44 84.61 C 72.73 82.40 77.94 86.30 77.18 91.02 C 77.56 95.22 72.96 98.56 69.09 96.93 C 63.98 95.26 63.82 86.95 68.44 84.61 M 69.42 87.51 C 67.84 89.79 68.24 95.42 72.02 94.62 C 75.47 92.78 73.68 84.17 69.42 87.51 Z" />
<path fill="#fe523a" opacity="1.00" d=" M 92.44 84.53 C 95.14 84.34 97.84 84.33 100.54 84.46 C 99.88 85.48 99.18 86.49 98.44 87.46 C 98.42 89.03 98.42 90.60 98.42 92.18 C 99.84 89.58 101.15 86.94 102.51 84.32 C 104.52 84.36 106.54 84.41 108.55 84.55 C 107.76 85.48 106.92 86.38 106.07 87.26 C 106.02 89.53 106.02 91.80 106.07 94.08 C 106.96 94.92 107.80 95.83 108.57 96.79 C 105.86 97.04 103.14 97.05 100.42 97.02 C 101.07 95.97 101.77 94.95 102.52 93.96 C 102.58 92.31 102.63 90.66 102.68 89.01 C 101.24 91.72 100.01 94.58 98.12 97.01 C 96.19 97.13 94.27 96.93 92.35 96.74 C 93.18 95.82 94.04 94.94 94.93 94.09 C 94.97 91.84 94.97 89.59 94.94 87.35 C 94.07 86.43 93.24 85.50 92.44 84.53 Z" />
<path fill="#fe523a" opacity="1.00" d=" M 113.33 84.45 C 115.70 83.52 118.21 84.51 120.41 85.46 C 120.40 86.47 120.38 88.50 120.36 89.51 C 119.51 89.51 118.66 89.51 117.81 89.52 C 117.64 88.75 117.30 87.22 117.13 86.45 C 112.64 86.01 111.96 91.42 114.02 94.31 C 116.51 94.97 118.61 92.46 121.13 92.44 C 120.27 95.15 118.15 97.95 114.93 97.27 C 108.49 97.02 107.47 86.37 113.33 84.45 Z" />
<path fill="#fe523a" opacity="1.00" d=" M 122.12 84.36 C 126.41 84.38 130.71 84.36 135.00 84.38 C 135.42 85.94 135.99 87.47 136.72 88.92 C 137.12 83.31 145.71 82.34 147.72 87.26 C 150.25 91.80 146.64 98.81 140.96 97.11 C 136.62 96.51 136.93 91.52 135.40 88.47 C 133.51 88.66 132.06 87.25 130.43 86.56 C 130.38 89.06 130.38 91.55 130.43 94.04 C 131.25 94.97 132.05 95.91 132.82 96.89 C 130.02 97.06 127.22 97.06 124.44 96.80 C 125.21 95.83 126.04 94.92 126.94 94.08 C 127.00 91.49 127.00 88.90 126.84 86.32 C 125.91 87.05 125.00 87.80 124.12 88.59 C 123.62 88.61 122.61 88.64 122.11 88.66 C 122.12 87.23 122.12 85.79 122.12 84.36 M 143.90 94.27 C 145.78 91.85 145.14 88.43 143.23 86.24 C 138.36 86.54 138.74 96.30 143.90 94.27 Z" />
<path fill="#fe523a" opacity="1.00" d=" M 149.58 84.53 C 153.52 84.63 157.94 83.43 161.55 85.44 C 163.69 86.73 162.25 89.34 161.13 90.80 C 161.91 91.18 162.69 91.57 163.46 91.96 C 163.35 93.79 163.06 96.15 160.92 96.65 C 157.17 97.39 153.28 97.03 149.50 96.73 C 150.28 95.81 151.11 94.93 151.96 94.07 C 151.96 91.82 151.96 89.57 151.95 87.32 C 151.14 86.41 150.35 85.48 149.58 84.53 M 155.35 86.84 C 155.38 87.55 155.44 88.96 155.47 89.67 C 156.78 89.48 158.10 89.28 159.41 89.07 C 159.29 88.59 159.05 87.63 158.93 87.15 C 157.73 87.04 156.54 86.94 155.35 86.84 M 155.43 91.62 C 155.41 92.59 155.41 93.57 155.40 94.55 C 156.89 94.39 158.39 94.31 159.85 93.97 C 160.59 91.03 157.19 91.98 155.43 91.62 Z" />
<path fill="#fe523a" opacity="1.00" d=" M 164.11 84.37 C 166.53 84.36 168.96 84.37 171.39 84.42 C 170.86 85.52 170.32 86.60 169.76 87.69 C 170.44 89.42 171.11 91.16 171.76 92.90 C 172.46 90.96 173.18 89.03 173.88 87.09 C 173.27 86.24 172.66 85.39 172.06 84.53 C 174.36 84.39 176.67 84.36 178.98 84.34 C 178.91 84.73 178.78 85.51 178.72 85.89 C 174.84 89.93 174.71 96.09 171.58 100.61 C 170.39 102.27 168.13 101.94 166.36 102.27 C 166.43 101.66 166.57 100.45 166.64 99.85 C 167.72 99.09 170.60 98.90 169.78 96.99 C 168.43 93.13 167.47 88.76 164.41 85.85 C 164.34 85.48 164.18 84.74 164.11 84.37 Z" />
<path fill="#fe523a" opacity="1.00" d=" M 183.34 84.55 C 185.86 83.51 188.59 84.35 190.86 85.59 C 190.78 86.63 190.61 88.73 190.53 89.78 C 188.25 89.00 186.97 86.24 184.28 86.75 C 183.92 87.75 183.55 88.74 183.19 89.74 C 184.42 89.73 185.65 89.72 186.89 89.72 C 186.89 90.24 186.89 91.30 186.89 91.82 C 185.91 91.86 183.97 91.94 183.00 91.98 C 183.49 92.68 184.49 94.09 184.98 94.79 C 187.11 94.02 189.02 92.70 191.30 92.31 C 190.97 95.86 187.43 98.06 184.07 97.12 C 178.65 95.64 178.28 86.72 183.34 84.55 Z" />
<path fill="#fe523a" opacity="1.00" d=" M 78.04 84.32 C 79.98 84.37 81.93 84.46 83.85 84.75 C 85.95 84.18 88.80 83.45 90.23 85.69 C 92.16 88.71 92.26 93.17 89.97 96.04 C 88.14 98.05 85.30 96.91 83.06 96.56 C 83.87 98.33 84.76 100.07 85.65 101.80 C 83.05 101.90 80.44 101.88 77.85 101.66 C 78.57 100.72 79.32 99.79 80.08 98.87 C 79.75 93.99 81.46 88.45 78.04 84.32 M 83.70 94.48 C 85.20 94.29 87.52 95.18 87.83 93.01 C 88.50 90.99 88.26 88.66 86.97 86.94 C 82.25 85.50 83.84 91.80 83.70 94.48 Z" />
<path fill="#fe523a" opacity="1.00" d=" M 123.56 110.80 C 124.16 110.79 125.37 110.78 125.97 110.78 C 126.44 111.25 127.39 112.18 127.87 112.65 C 128.94 111.89 130.01 111.12 131.08 110.35 C 131.43 110.75 132.13 111.53 132.48 111.93 C 130.15 115.27 124.78 114.86 123.56 110.80 Z" />
<path fill="#fe523a" opacity="1.00" d=" M 144.38 110.78 C 145.54 110.75 146.71 110.73 147.87 110.70 C 147.87 111.68 147.88 112.66 147.88 113.65 C 146.71 113.63 145.54 113.62 144.37 113.61 C 144.37 112.67 144.37 111.72 144.38 110.78 Z" />
<path fill="#fe523a" opacity="1.00" d=" M 18.52 116.45 C 21.15 116.36 23.79 116.36 26.42 116.42 C 23.88 119.18 24.11 122.82 24.25 126.32 C 25.12 126.34 26.86 126.39 27.73 126.41 C 27.73 123.07 27.74 119.72 27.72 116.38 C 28.52 116.37 30.11 116.34 30.91 116.32 L 31.00 117.73 C 31.48 117.23 31.96 116.74 32.44 116.25 C 34.87 116.37 37.31 116.38 39.74 116.40 C 39.73 116.78 39.72 117.54 39.71 117.92 C 36.73 119.49 38.43 123.38 38.07 126.07 C 38.89 126.94 39.70 127.83 40.47 128.75 C 33.14 129.24 25.76 129.07 18.42 128.86 C 19.11 127.83 19.91 126.88 20.82 126.04 C 21.04 122.61 21.38 118.94 18.52 116.45 M 31.15 119.04 C 31.15 121.48 31.15 123.91 31.14 126.35 C 32.30 126.36 33.46 126.37 34.62 126.39 C 34.51 123.30 35.29 119.88 33.05 117.33 C 32.42 117.90 31.79 118.47 31.15 119.04 Z" />
<path fill="#fe523a" opacity="1.00" d=" M 41.24 116.35 C 48.41 116.47 55.59 116.12 62.76 116.55 C 62.31 117.24 61.42 118.62 60.98 119.31 C 61.65 121.16 62.34 123.00 63.05 124.83 C 63.73 123.06 64.40 121.30 65.06 119.54 C 64.67 118.76 63.90 117.20 63.51 116.42 C 65.83 116.37 68.15 116.37 70.47 116.41 C 67.03 121.19 65.90 127.08 63.18 132.22 C 62.16 134.29 59.64 133.96 57.73 134.26 C 57.79 133.63 57.91 132.38 57.97 131.75 C 59.12 131.20 61.94 131.01 61.13 129.06 C 59.85 125.21 58.60 121.21 56.24 117.86 C 55.98 117.95 55.45 118.12 55.19 118.20 C 54.93 118.80 54.40 119.99 54.14 120.59 C 53.80 120.61 53.12 120.63 52.78 120.65 C 51.77 119.81 50.73 119.02 49.66 118.28 C 49.49 120.81 49.49 123.36 49.57 125.90 C 50.39 126.91 51.18 127.95 51.93 129.01 C 49.10 129.05 46.26 129.03 43.45 128.70 C 44.29 127.76 45.19 126.87 46.09 125.99 C 46.13 123.43 46.13 120.86 46.04 118.30 C 45.02 119.02 44.06 119.80 43.15 120.64 C 42.68 120.62 41.72 120.59 41.24 120.58 C 41.24 119.17 41.24 117.76 41.24 116.35 Z" />
<path fill="#fe523a" opacity="1.00" d=" M 70.51 117.47 C 72.27 115.43 75.33 116.69 77.68 116.36 C 77.64 116.73 77.54 117.48 77.49 117.85 C 76.46 119.12 76.05 120.59 76.26 122.27 C 77.37 122.31 79.59 122.39 80.70 122.42 C 80.17 120.40 79.42 118.45 78.88 116.44 C 81.13 116.31 83.40 116.36 85.66 116.36 C 85.63 116.74 85.58 117.50 85.55 117.87 C 82.49 119.38 84.16 123.29 83.78 125.98 C 84.67 126.87 85.56 127.76 86.42 128.69 C 83.83 128.99 81.23 129.04 78.63 129.09 C 78.55 128.67 78.39 127.82 78.32 127.40 C 79.30 126.84 80.27 126.28 81.25 125.72 C 78.91 125.08 76.19 125.33 74.17 123.86 C 72.56 121.92 73.05 118.78 70.51 117.47 Z" />
<path fill="#fe523a" opacity="1.00" d=" M 87.48 116.32 C 89.93 116.35 92.37 116.38 94.81 116.59 C 94.11 117.62 93.41 118.65 92.69 119.67 C 92.72 120.13 92.77 121.05 92.80 121.51 C 94.29 121.48 95.77 121.45 97.26 121.41 C 96.70 119.70 96.01 118.03 95.28 116.39 C 97.69 116.36 100.09 116.37 102.50 116.43 C 100.04 119.11 100.19 122.65 100.44 126.03 C 101.26 126.98 102.01 127.98 102.69 129.04 C 100.14 129.06 97.58 129.00 95.03 128.73 C 95.85 127.28 96.66 125.82 97.39 124.32 C 95.82 124.23 94.25 124.16 92.69 124.10 C 92.71 124.60 92.77 125.59 92.80 126.09 C 93.35 126.67 94.46 127.84 95.02 128.42 C 92.52 128.84 88.92 130.10 87.04 127.97 C 87.62 127.49 88.78 126.53 89.36 126.04 C 88.93 123.35 90.69 119.35 87.54 117.93 C 87.52 117.53 87.50 116.73 87.48 116.32 Z" />
<path fill="#fe523a" opacity="1.00" d=" M 103.50 116.50 C 106.12 116.36 108.75 116.35 111.38 116.40 C 109.75 118.64 109.02 121.21 109.33 123.99 C 110.83 121.52 112.16 118.95 113.46 116.37 C 115.21 116.37 116.97 116.37 118.73 116.37 C 118.73 116.76 118.72 117.54 118.71 117.93 C 115.79 119.48 117.24 123.40 117.15 126.07 C 117.74 126.72 118.93 128.00 119.52 128.64 C 116.81 129.02 114.07 129.08 111.34 129.05 C 111.99 127.99 112.67 126.96 113.39 125.96 C 113.46 124.43 113.51 122.90 113.56 121.37 C 112.12 123.86 110.69 126.35 109.44 128.94 C 107.45 128.99 105.47 129.01 103.48 129.00 C 104.15 127.94 104.93 126.97 105.81 126.08 C 105.85 123.81 105.85 121.54 105.81 119.27 C 105.01 118.37 104.24 117.45 103.50 116.50 Z" />
<path fill="#fe523a" opacity="1.00" d=" M 130.14 116.33 C 132.02 116.36 133.90 116.39 135.78 116.45 C 133.41 119.13 133.38 122.59 133.66 125.99 C 134.79 126.60 136.97 129.35 134.08 129.02 C 131.89 129.19 129.69 128.95 127.56 128.41 C 128.20 127.86 129.47 126.76 130.11 126.21 C 130.11 124.48 130.12 122.75 130.13 121.03 C 128.80 123.75 127.41 126.43 125.96 129.09 C 124.25 128.62 121.21 129.99 120.49 127.96 C 120.98 127.47 121.97 126.49 122.46 126.00 C 122.67 122.61 122.77 119.11 120.37 116.41 C 122.90 116.36 125.43 116.37 127.97 116.44 C 126.05 118.64 125.81 121.44 125.94 124.22 C 127.32 121.58 128.71 118.94 130.14 116.33 Z" />
<path fill="#fe523a" opacity="1.00" d=" M 142.03 116.54 C 143.97 116.42 145.92 116.36 147.88 116.32 C 147.88 119.55 147.86 122.78 147.94 126.02 C 148.72 126.85 149.55 127.66 150.18 128.63 C 147.60 129.16 144.96 129.03 142.36 128.96 C 143.01 127.93 143.71 126.92 144.44 125.94 C 144.48 123.77 144.48 121.60 144.44 119.44 C 143.60 118.49 142.80 117.53 142.03 116.54 Z" />
<path fill="#fe523a" opacity="1.00" d=" M 150.58 116.43 C 152.94 116.37 155.30 116.36 157.67 116.36 C 157.62 116.72 157.54 117.45 157.49 117.81 C 156.75 118.95 156.13 120.15 155.62 121.41 C 157.32 121.45 159.03 121.45 160.73 121.43 C 160.05 119.74 159.31 118.08 158.62 116.40 C 160.95 116.37 163.28 116.37 165.61 116.37 C 165.61 116.76 165.61 117.54 165.61 117.93 C 162.41 119.27 164.18 123.31 163.79 125.99 C 164.60 126.83 165.83 127.47 165.97 128.76 C 163.47 129.11 160.94 129.03 158.42 129.04 C 159.00 127.99 159.60 126.96 160.24 125.95 C 160.28 125.49 160.37 124.57 160.41 124.11 C 158.80 124.16 157.19 124.23 155.59 124.32 C 156.33 125.85 157.23 127.28 158.17 128.71 C 155.59 128.99 153.00 129.06 150.41 129.03 C 151.07 127.95 151.83 126.95 152.68 126.01 C 152.99 122.60 152.97 119.13 150.58 116.43 Z" />
<path fill="#fe523a" opacity="1.00" d=" M 167.23 116.35 C 171.46 116.38 175.69 116.34 179.93 116.39 C 180.24 117.01 180.87 118.24 181.18 118.86 C 183.26 118.30 184.46 115.49 187.02 116.09 C 191.17 115.73 192.55 120.27 192.31 123.60 C 189.58 123.62 186.85 123.62 184.12 123.76 C 185.31 126.84 188.37 126.92 191.08 126.06 C 191.30 126.58 191.73 127.64 191.95 128.17 C 189.30 128.97 186.17 130.13 183.69 128.22 C 181.15 126.72 181.26 123.48 180.75 120.96 C 180.25 120.83 179.24 120.58 178.74 120.45 C 177.71 119.75 176.65 119.09 175.58 118.46 C 175.50 120.98 175.50 123.51 175.54 126.04 C 176.80 126.59 179.04 129.26 176.09 129.00 C 173.90 129.12 171.71 128.97 169.53 128.76 C 170.32 127.79 171.17 126.88 172.06 126.00 C 172.13 123.44 172.14 120.88 172.04 118.32 C 170.99 119.00 170.03 119.77 169.15 120.65 C 168.68 120.63 167.72 120.59 167.24 120.57 C 167.24 119.16 167.23 117.76 167.23 116.35 M 184.41 121.31 C 186.11 121.34 187.81 121.33 189.52 121.29 C 188.78 120.20 188.11 119.00 186.98 118.28 C 185.72 118.88 185.13 120.20 184.41 121.31 Z" />
<path fill="#fe523a" opacity="1.00" d=" M 193.54 116.55 C 198.54 116.27 203.55 116.27 208.55 116.54 C 207.76 117.48 206.92 118.38 206.07 119.27 C 206.02 121.54 206.02 123.81 206.07 126.08 C 206.95 126.93 207.80 127.83 208.60 128.77 C 206.38 128.98 204.15 129.13 201.93 129.00 C 199.11 129.16 201.40 126.60 202.58 126.06 C 202.60 123.71 202.61 121.37 202.62 119.03 C 201.60 119.02 200.58 119.01 199.56 119.01 C 199.39 121.79 199.96 124.94 198.24 127.36 C 197.28 129.02 195.10 128.80 193.53 129.34 C 193.71 127.62 194.31 126.06 195.86 125.13 C 196.01 123.21 196.09 121.28 196.13 119.36 C 195.24 118.44 194.38 117.51 193.54 116.55 Z" />
<path fill="#fe523a" opacity="1.00" d=" M 210.21 119.02 C 211.78 115.68 216.84 115.09 219.29 117.74 C 220.53 119.42 220.31 121.64 220.57 123.61 C 217.87 123.63 215.18 123.63 212.48 123.73 C 213.48 127.14 216.98 126.89 219.70 125.88 C 221.07 129.33 216.14 129.55 213.98 129.13 C 209.47 128.40 208.34 122.55 210.21 119.02 M 212.54 121.32 C 214.29 121.34 216.04 121.33 217.79 121.28 C 217.38 120.63 216.55 119.32 216.13 118.67 C 214.21 118.13 213.37 119.99 212.54 121.32 Z" />
<path fill="#fe523a" opacity="1.00" d=" M 222.37 116.34 C 224.71 116.36 227.06 116.39 229.40 116.45 C 228.66 118.19 227.75 119.89 227.52 121.80 C 229.43 120.00 231.00 117.90 232.84 116.03 C 233.58 116.10 235.08 116.23 235.82 116.30 C 235.85 116.86 235.91 118.00 235.94 118.57 C 235.36 118.78 234.20 119.20 233.63 119.41 C 232.97 120.41 232.32 121.42 231.66 122.42 C 233.08 124.52 234.79 126.40 236.68 128.09 C 235.74 129.71 233.35 128.72 231.81 129.16 C 230.73 127.39 229.67 125.60 228.43 123.92 C 228.07 124.53 227.74 125.15 227.42 125.78 C 228.22 126.83 228.97 127.91 229.68 129.03 C 227.06 129.04 224.42 129.12 221.83 128.67 C 222.44 127.66 223.27 126.80 224.07 125.93 C 223.78 123.27 225.27 119.56 222.43 117.90 C 222.42 117.51 222.39 116.73 222.37 116.34 Z" />
<path fill="#fe523a" opacity="1.00" d=" M 237.46 116.37 C 241.90 116.37 246.34 116.36 250.78 116.39 C 250.74 117.98 250.68 119.56 250.61 121.15 C 248.98 120.29 247.41 119.31 245.79 118.43 C 245.75 121.01 245.75 123.59 245.76 126.17 C 246.72 126.89 247.67 127.62 248.61 128.36 C 245.72 129.27 242.65 129.12 239.70 128.64 C 240.55 127.74 241.44 126.87 242.35 126.01 C 242.36 123.50 242.37 120.99 242.33 118.49 C 240.74 119.35 239.21 120.29 237.61 121.12 C 237.54 119.53 237.49 117.95 237.46 116.37 Z" />
<path fill="#fe523a" opacity="1.00" d=" M 258.73 116.47 C 263.21 116.30 267.71 116.38 272.20 116.37 C 272.23 116.88 272.30 117.89 272.33 118.40 C 271.87 118.49 270.96 118.66 270.50 118.75 C 270.51 121.26 270.51 123.77 270.51 126.29 C 270.96 126.33 271.85 126.41 272.30 126.45 C 272.23 128.55 272.15 130.66 272.09 132.76 C 271.00 132.76 269.90 132.75 268.81 132.75 C 268.83 131.51 268.85 130.27 268.88 129.03 C 266.38 129.03 263.88 129.03 261.39 129.02 C 261.38 130.25 261.38 131.48 261.38 132.71 C 260.30 132.75 259.23 132.78 258.16 132.81 C 258.07 130.89 257.99 128.96 257.93 127.04 C 261.70 124.70 261.93 119.37 258.73 116.47 M 264.72 119.41 C 264.23 121.75 263.86 124.13 263.23 126.45 C 264.47 126.41 265.72 126.37 266.98 126.35 C 266.97 123.78 266.98 121.21 266.93 118.64 C 266.37 118.84 265.27 119.22 264.72 119.41 Z" />
<path fill="#fe523a" opacity="1.00" d=" M 274.40 116.37 C 279.10 116.40 283.80 116.25 288.50 116.51 C 287.75 117.46 286.98 118.38 286.19 119.28 C 286.15 121.55 286.14 123.82 286.18 126.08 C 287.02 126.95 287.81 127.85 288.56 128.79 C 285.81 129.04 283.05 129.07 280.30 128.96 C 281.02 127.93 281.81 126.96 282.67 126.04 C 282.73 123.70 282.74 121.36 282.75 119.02 C 281.99 119.02 280.46 119.01 279.70 119.00 C 279.54 121.60 279.91 124.38 278.78 126.80 C 278.02 128.77 275.63 128.77 273.95 129.34 C 273.97 128.70 274.00 127.43 274.02 126.80 C 277.02 125.47 276.28 121.76 276.10 119.14 C 275.67 118.84 274.81 118.24 274.39 117.94 C 274.39 117.55 274.39 116.76 274.40 116.37 Z" />
<path fill="#fe523a" opacity="1.00" d=" M 292.31 117.21 C 295.96 115.62 300.14 116.53 304.00 116.56 C 303.21 117.49 302.41 118.41 301.58 119.31 C 301.50 121.55 301.50 123.80 301.52 126.04 C 302.08 126.51 303.18 127.45 303.74 127.93 C 302.20 130.20 298.52 128.60 296.11 128.69 C 297.31 127.19 298.40 125.58 297.52 123.61 C 295.98 125.27 294.85 127.23 293.73 129.18 C 292.18 129.00 290.63 128.81 289.09 128.54 C 290.22 127.22 291.39 125.94 292.53 124.62 C 290.64 122.56 289.33 118.99 292.31 117.21 M 293.65 121.02 C 294.76 122.37 296.55 122.22 298.11 122.43 C 298.11 121.47 298.10 119.56 298.10 118.60 C 296.44 119.07 293.97 118.76 293.65 121.02 Z" />
<path fill="#fe523a" opacity="1.00" d=" M 118.50 142.74 C 119.68 142.74 120.86 142.74 122.04 142.75 C 122.02 143.47 121.98 144.93 121.96 145.66 C 120.80 145.64 119.64 145.63 118.48 145.61 C 118.48 144.65 118.49 143.69 118.50 142.74 Z" />
<path fill="#fe523a" opacity="1.00" d=" M 123.73 142.74 C 124.82 142.74 125.92 142.74 127.02 142.75 C 127.01 143.47 126.99 144.92 126.98 145.64 C 125.91 145.63 124.84 145.63 123.76 145.62 C 123.75 144.66 123.74 143.70 123.73 142.74 Z" />
<path fill="#fe523a" opacity="1.00" d=" M 128.95 142.76 C 130.05 142.75 131.14 142.74 132.24 142.73 C 132.26 143.69 132.27 144.66 132.30 145.63 C 131.21 145.63 130.12 145.63 129.03 145.64 C 129.01 144.92 128.97 143.48 128.95 142.76 Z" />
<path fill="#fe523a" opacity="1.00" d=" M 291.09 142.80 C 292.27 142.76 293.45 142.72 294.64 142.69 C 294.63 143.66 294.62 144.63 294.62 145.61 C 293.46 145.62 292.30 145.64 291.14 145.65 C 291.13 144.94 291.10 143.52 291.09 142.80 Z" />
<path fill="#fe523a" opacity="1.00" d=" M 300.61 142.74 C 301.20 142.75 302.38 142.79 302.97 142.81 C 303.40 143.22 304.26 144.05 304.68 144.46 C 306.26 143.64 307.87 142.83 309.62 142.43 C 308.83 147.20 301.59 147.51 300.61 142.74 Z" />
<path fill="#fe523a" opacity="1.00" d=" M 18.35 148.43 C 22.15 148.34 25.94 148.36 29.73 148.38 C 29.74 149.83 29.76 151.27 29.77 152.73 C 29.24 152.74 28.18 152.78 27.64 152.80 C 27.61 152.35 27.54 151.45 27.50 151.00 C 26.62 151.00 24.87 151.01 23.99 151.02 C 24.33 154.23 22.69 158.58 26.44 160.32 C 24.38 161.10 22.16 161.17 19.98 161.00 C 17.18 161.17 19.37 158.67 20.48 158.02 C 20.76 154.61 20.70 151.15 18.35 148.43 Z" />
<path fill="#fe523a" opacity="1.00" d=" M 35.06 161.01 C 29.38 159.50 29.57 149.89 35.07 148.27 C 37.31 147.75 40.14 148.27 41.27 150.48 C 41.91 152.11 41.96 153.89 42.22 155.60 C 39.46 155.62 36.70 155.63 33.93 155.77 C 35.09 158.93 38.19 158.93 40.91 157.93 C 41.11 158.50 41.53 159.63 41.74 160.20 C 39.58 160.79 37.31 161.77 35.06 161.01 M 34.08 153.32 C 35.80 153.34 37.53 153.33 39.25 153.30 C 38.56 152.41 38.32 150.88 37.06 150.60 C 35.39 150.29 34.97 152.32 34.08 153.32 Z" />
<path fill="#fe523a" opacity="1.00" d=" M 43.57 148.40 C 48.75 148.30 53.94 148.26 59.12 148.55 C 58.33 149.51 57.52 150.44 56.69 151.37 C 56.64 153.59 56.63 155.82 56.64 158.04 C 57.20 158.51 58.32 159.44 58.88 159.91 C 57.90 162.01 54.86 160.72 52.99 161.02 C 50.33 161.41 52.26 158.74 53.17 158.00 C 53.19 157.37 53.21 156.74 53.23 156.11 C 51.67 156.14 50.12 156.19 48.57 156.25 C 49.18 157.85 50.05 159.31 51.04 160.71 C 49.01 160.93 46.98 161.12 44.94 161.03 C 42.09 161.29 44.46 158.55 45.58 158.03 C 45.24 155.31 46.82 151.54 43.91 149.85 C 43.82 149.49 43.65 148.76 43.57 148.40 M 49.09 150.95 C 49.07 151.59 49.03 152.88 49.01 153.53 C 50.52 153.49 52.02 153.46 53.53 153.42 C 53.12 152.18 52.69 150.94 52.27 149.71 C 51.23 150.17 50.17 150.60 49.09 150.95 Z" />
<path fill="#fe523a" opacity="1.00" d=" M 62.81 148.87 C 65.24 147.43 68.89 147.86 70.47 150.38 C 71.19 152.02 71.07 153.87 71.32 155.61 C 68.61 155.63 65.90 155.63 63.20 155.75 C 64.27 158.90 67.42 158.87 70.10 158.11 C 70.32 158.62 70.74 159.65 70.96 160.16 C 68.50 160.83 65.71 162.07 63.30 160.58 C 59.00 158.43 59.19 151.58 62.81 148.87 M 63.19 153.21 C 64.95 153.31 66.71 153.35 68.47 153.36 C 67.81 152.50 67.60 151.13 66.53 150.69 C 64.87 150.02 64.24 152.42 63.19 153.21 Z" />
<path fill="#fe523a" opacity="1.00" d=" M 72.50 148.28 C 74.41 148.36 76.33 148.47 78.23 148.64 C 80.28 148.12 82.95 147.63 84.30 149.74 C 86.33 152.67 86.49 157.28 84.07 160.03 C 82.25 162.06 79.45 160.90 77.22 160.48 C 77.99 162.28 78.85 164.04 79.72 165.81 C 77.20 165.88 74.69 165.88 72.18 165.75 C 75.63 161.69 74.23 156.07 74.18 151.18 C 73.77 150.87 72.95 150.24 72.54 149.93 C 72.53 149.52 72.51 148.69 72.50 148.28 M 77.82 150.83 C 77.75 153.39 77.76 155.94 77.82 158.50 C 79.31 158.32 81.76 159.11 82.07 156.95 C 83.22 153.84 81.73 149.79 77.82 150.83 Z" />
<path fill="#fe523a" opacity="1.00" d=" M 88.09 149.00 C 91.02 148.20 94.84 147.20 97.24 149.69 C 99.87 152.46 96.26 157.87 99.99 159.65 C 100.62 159.37 101.89 158.82 102.53 158.55 C 102.49 156.18 102.48 153.80 102.42 151.43 C 101.59 150.48 100.79 149.50 100.01 148.51 C 105.36 148.42 110.72 148.31 116.07 148.57 C 115.45 149.24 114.22 150.57 113.60 151.23 C 113.51 153.60 113.50 155.96 113.50 158.33 C 113.98 158.35 114.96 158.38 115.44 158.40 C 115.37 160.52 115.30 162.64 115.24 164.76 C 114.42 164.76 112.78 164.75 111.96 164.75 C 111.97 163.82 111.98 161.95 111.99 161.02 C 106.15 160.98 100.26 161.11 94.46 160.49 C 91.81 161.79 87.79 161.50 87.34 157.91 C 87.09 153.63 92.18 153.37 95.27 153.21 C 94.48 152.17 94.05 149.82 92.29 150.61 C 90.89 151.32 89.67 152.36 88.33 153.18 C 88.27 152.14 88.15 150.05 88.09 149.00 M 105.90 150.44 C 105.88 153.08 105.88 155.72 105.88 158.36 C 107.29 158.36 108.70 158.36 110.12 158.36 C 110.12 155.74 110.12 153.11 110.13 150.49 C 108.72 150.42 107.31 150.40 105.90 150.44 M 90.67 157.17 C 91.07 159.44 93.26 158.35 94.79 158.22 C 94.74 157.45 94.62 155.92 94.57 155.16 C 93.21 155.65 91.31 155.59 90.67 157.17 Z" />
<path fill="#fe523a" opacity="1.00" d=" M 123.88 148.55 C 125.83 148.42 127.78 148.36 129.73 148.33 C 129.76 151.60 129.75 154.86 129.76 158.12 C 130.38 158.68 131.62 159.80 132.24 160.36 C 129.70 161.26 126.99 161.12 124.39 160.67 C 121.74 161.02 119.07 161.06 116.41 161.04 C 117.07 159.98 117.78 158.94 118.54 157.95 C 118.78 154.57 119.07 150.95 116.30 148.45 C 118.21 148.39 120.12 148.36 122.03 148.34 C 122.68 152.17 120.20 157.54 124.18 160.04 C 124.73 159.59 125.84 158.67 126.39 158.22 C 126.37 155.93 126.35 153.65 126.30 151.36 C 125.47 150.44 124.67 149.51 123.88 148.55 Z" />
<path fill="#fe523a" opacity="1.00" d=" M 137.56 148.45 C 139.61 148.39 141.66 148.40 143.70 148.61 C 145.87 148.17 148.63 147.64 150.11 149.78 C 152.08 152.89 152.20 157.67 149.42 160.35 C 147.52 162.03 144.91 160.72 142.78 160.48 C 143.62 162.30 144.58 164.07 145.48 165.87 C 142.95 165.89 140.43 165.87 137.90 165.76 C 141.43 161.76 139.57 156.15 139.93 151.33 C 139.12 150.39 138.32 149.43 137.56 148.45 M 143.41 158.13 C 144.10 158.25 145.47 158.49 146.16 158.61 C 149.23 156.97 148.16 152.41 146.21 150.21 C 142.26 151.05 143.55 155.20 143.41 158.13 Z" />
<path fill="#fe523a" opacity="1.00" d=" M 154.06 151.01 C 155.50 147.81 160.06 147.20 162.67 149.28 C 164.33 150.93 164.11 153.47 164.51 155.60 C 161.78 155.63 159.04 155.62 156.32 155.72 C 157.13 156.72 157.62 158.11 158.90 158.61 C 160.38 158.50 161.85 158.31 163.32 158.03 C 163.46 158.56 163.75 159.62 163.89 160.15 C 161.48 160.85 158.74 162.05 156.36 160.61 C 152.91 158.93 152.43 154.11 154.06 151.01 M 156.46 153.28 C 157.96 153.33 159.47 153.37 160.98 153.40 C 160.91 152.74 160.77 151.42 160.70 150.76 C 158.64 150.35 157.17 151.34 156.46 153.28 Z" />
<path fill="#fe523a" opacity="1.00" d=" M 165.45 148.52 C 168.06 148.36 170.67 148.35 173.28 148.41 C 172.46 150.05 171.57 151.66 170.92 153.38 C 174.33 152.19 175.24 147.17 179.56 148.02 C 179.59 148.57 179.65 149.66 179.68 150.21 C 177.96 151.23 176.51 152.59 175.24 154.13 C 176.87 156.54 178.86 158.68 180.72 160.91 C 178.96 160.96 177.21 160.99 175.46 160.98 C 174.35 159.11 173.20 157.26 171.87 155.54 C 171.74 156.13 171.49 157.33 171.36 157.93 C 172.10 158.89 172.81 159.88 173.49 160.89 C 170.85 161.04 168.20 161.04 165.57 160.92 C 168.48 158.47 168.15 154.77 167.94 151.34 C 167.08 150.43 166.25 149.49 165.45 148.52 Z" />
<path fill="#fe523a" opacity="1.00" d=" M 184.39 148.51 C 188.14 146.77 192.78 149.73 192.71 153.87 C 193.49 157.80 190.16 162.07 185.97 161.27 C 179.76 160.75 178.79 150.69 184.39 148.51 M 185.19 151.32 C 183.73 152.88 183.96 155.61 184.75 157.46 C 185.74 159.96 189.37 158.33 189.23 155.97 C 190.11 153.53 188.08 149.03 185.19 151.32 Z" />
<path fill="#fe523a" opacity="1.00" d=" M 194.47 148.36 C 196.50 148.36 198.53 148.37 200.56 148.39 C 201.69 151.30 202.79 154.22 203.83 157.17 C 204.87 154.21 205.99 151.29 207.08 148.36 C 209.11 148.36 211.15 148.37 213.20 148.38 C 213.23 148.88 213.30 149.89 213.33 150.39 C 212.84 150.49 211.87 150.70 211.38 150.80 C 211.38 153.21 211.39 155.62 211.45 158.04 C 212.30 158.98 213.09 159.98 213.82 161.02 C 211.21 161.08 208.58 161.10 206.03 160.51 C 206.52 159.93 207.49 158.78 207.98 158.20 C 207.96 156.55 207.95 154.89 207.93 153.24 C 206.94 155.99 205.94 158.73 204.79 161.40 C 201.09 160.78 201.25 156.22 199.73 153.51 C 199.76 154.97 199.79 156.44 199.85 157.90 C 200.42 158.93 200.95 159.98 201.46 161.04 C 199.12 160.57 195.63 162.10 194.08 159.93 C 194.65 159.46 195.79 158.52 196.35 158.05 C 195.93 155.35 197.69 151.36 194.54 149.93 C 194.52 149.54 194.49 148.75 194.47 148.36 Z" />
<path fill="#fe523a" opacity="1.00" d=" M 217.51 160.41 C 213.29 157.56 214.00 149.53 219.22 148.19 C 221.45 147.80 224.33 148.42 225.31 150.71 C 225.85 152.28 225.88 153.96 226.10 155.59 C 223.36 155.62 220.63 155.64 217.89 155.74 C 218.44 156.43 219.53 157.82 220.08 158.51 C 221.68 158.70 223.28 158.28 224.86 158.06 C 225.09 158.59 225.56 159.64 225.79 160.17 C 223.13 161.03 220.12 161.97 217.51 160.41 M 218.02 153.26 C 219.73 153.32 221.44 153.34 223.16 153.34 C 222.49 152.43 222.37 150.78 221.03 150.62 C 219.39 150.32 218.92 152.31 218.02 153.26 Z" />
<path fill="#fe523a" opacity="1.00" d=" M 227.15 148.48 C 229.70 148.36 232.26 148.36 234.81 148.43 C 233.96 150.06 233.17 151.72 232.53 153.44 C 234.20 153.47 235.87 153.46 237.55 153.42 C 236.89 151.71 236.13 150.04 235.38 148.37 C 237.93 148.35 240.48 148.36 243.02 148.58 C 242.41 149.27 241.18 150.64 240.57 151.33 C 240.29 154.73 240.15 158.34 242.79 160.92 C 240.76 160.27 236.64 162.65 235.89 160.01 C 236.29 158.69 236.89 157.44 237.40 156.17 C 235.83 156.16 234.28 156.16 232.72 156.17 C 233.16 157.45 233.71 158.70 234.12 160.00 C 233.88 162.50 230.50 160.57 228.90 160.98 C 226.16 161.09 228.43 158.65 229.47 158.02 C 229.48 155.83 229.48 153.64 229.43 151.46 C 228.63 150.49 227.89 149.50 227.15 148.48 Z" />
<path fill="#fe523a" opacity="1.00" d=" M 244.56 148.54 C 249.20 148.33 253.88 148.17 258.51 148.55 C 258.03 149.22 257.06 150.56 256.58 151.23 C 256.50 153.58 256.51 155.94 256.50 158.29 C 256.95 158.33 257.86 158.41 258.31 158.45 C 258.24 160.55 258.17 162.65 258.10 164.76 C 257.00 164.75 255.90 164.75 254.80 164.76 C 254.83 163.51 254.85 162.27 254.87 161.03 C 252.38 161.03 249.88 161.03 247.39 161.03 C 247.39 162.26 247.39 163.48 247.39 164.71 C 246.31 164.75 245.23 164.78 244.16 164.82 C 244.07 162.88 243.99 160.95 243.92 159.03 C 246.73 157.44 247.07 154.25 247.05 151.33 C 246.20 150.41 245.37 149.49 244.56 148.54 M 250.69 151.00 C 250.43 153.52 249.95 156.02 249.21 158.45 C 250.46 158.41 251.71 158.37 252.97 158.34 C 252.97 155.89 252.97 153.45 252.98 151.00 C 252.41 151.00 251.26 151.00 250.69 151.00 Z" />
<path fill="#fe523a" opacity="1.00" d=" M 260.69 149.02 C 263.84 148.14 268.28 147.06 270.37 150.40 C 271.03 152.83 270.67 155.41 270.86 157.90 C 271.44 158.99 271.99 160.09 272.51 161.22 C 270.70 161.03 268.90 160.85 267.13 160.48 C 264.47 161.66 260.47 161.60 259.94 158.02 C 259.53 153.85 264.39 153.24 267.48 153.33 C 267.34 152.43 267.21 151.52 267.08 150.63 C 265.32 150.55 263.31 150.40 262.63 152.53 C 262.17 152.57 261.25 152.65 260.79 152.68 C 260.76 151.77 260.71 149.93 260.69 149.02 M 263.29 157.04 C 263.88 160.44 268.35 158.07 267.65 155.30 C 266.17 155.75 263.89 155.21 263.29 157.04 Z" />
<path fill="#fe523a" opacity="1.00" d=" M 272.57 148.52 C 275.15 148.37 277.74 148.35 280.32 148.38 C 278.27 151.35 278.36 154.90 278.49 158.36 C 279.52 158.36 281.59 158.37 282.63 158.37 C 282.73 154.92 282.95 151.33 280.78 148.41 C 283.35 148.35 285.92 148.36 288.50 148.50 C 287.75 149.44 286.99 150.37 286.20 151.28 C 286.15 153.63 286.14 155.98 286.14 158.34 C 286.62 158.35 287.58 158.37 288.06 158.38 C 287.95 160.50 287.85 162.62 287.76 164.74 C 286.69 164.75 285.63 164.76 284.57 164.77 C 284.59 163.52 284.61 162.27 284.63 161.02 C 280.51 160.83 276.22 161.66 272.25 160.22 C 272.93 159.74 274.30 158.78 274.98 158.30 C 274.97 155.97 274.96 153.65 274.94 151.32 C 274.12 150.40 273.33 149.48 272.57 148.52 Z" />
<path fill="#fe523a" opacity="1.00" d=" M 289.39 148.36 C 291.14 148.36 292.88 148.37 294.63 148.37 C 294.62 151.55 294.61 154.72 294.72 157.89 C 295.42 158.92 296.09 159.98 296.73 161.05 C 293.99 161.04 291.18 161.24 288.56 160.31 C 289.23 159.78 290.58 158.73 291.26 158.20 C 290.77 155.47 292.62 151.33 289.39 149.94 C 289.39 149.54 289.39 148.76 289.39 148.36 Z" />
<path fill="#fe523a" opacity="1.00" d=" M 296.99 148.54 C 299.52 148.36 302.07 148.35 304.62 148.36 C 304.54 148.70 304.40 149.38 304.32 149.72 C 302.45 151.40 302.91 153.94 302.84 156.17 C 304.33 153.61 305.66 150.95 307.02 148.31 C 309.02 148.36 311.02 148.42 313.01 148.57 C 312.22 149.49 311.41 150.40 310.58 151.29 C 310.51 153.52 310.50 155.76 310.53 158.00 C 311.65 158.53 314.08 161.36 311.13 161.02 C 308.92 161.18 306.70 160.94 304.56 160.43 C 305.19 159.87 306.46 158.76 307.10 158.20 C 307.11 156.93 307.13 154.39 307.14 153.11 C 305.73 155.82 304.25 158.48 302.78 161.15 C 300.73 161.05 298.66 160.94 296.70 160.31 C 297.40 159.79 298.80 158.73 299.50 158.21 C 299.49 155.95 299.47 153.69 299.42 151.44 C 298.57 150.49 297.77 149.53 296.99 148.54 Z" />
<path fill="#fe523a" opacity="1.00" d=" M 140.38 174.78 C 141.54 174.75 142.71 174.72 143.87 174.70 C 143.88 175.68 143.88 176.66 143.89 177.65 C 142.71 177.63 141.54 177.62 140.37 177.61 C 140.37 176.67 140.37 175.72 140.38 174.78 Z" />
<path fill="#fe523a" opacity="1.00" d=" M 276.38 174.78 C 277.54 174.75 278.70 174.72 279.87 174.70 C 279.87 175.68 279.88 176.66 279.88 177.65 C 278.71 177.63 277.54 177.62 276.37 177.61 C 276.37 176.66 276.37 175.72 276.38 174.78 Z" />
<path fill="#fe523a" opacity="1.00" d=" M 18.43 180.51 C 23.49 180.24 28.56 180.41 33.63 180.37 C 33.61 180.75 33.58 181.50 33.57 181.87 C 30.73 183.62 32.24 187.36 31.89 190.08 C 32.77 190.92 33.64 191.76 34.47 192.65 C 31.83 193.00 29.16 193.05 26.50 193.06 C 27.08 191.97 27.72 190.92 28.40 189.91 C 28.48 187.61 28.50 185.31 28.51 183.02 C 27.09 183.01 25.66 183.01 24.24 183.02 C 24.26 185.36 24.27 187.71 24.31 190.06 C 25.01 190.95 25.69 191.86 26.34 192.79 C 23.73 193.01 21.11 193.03 18.50 192.95 C 21.28 190.40 21.09 186.74 20.82 183.28 C 19.92 182.44 19.14 181.50 18.43 180.51 Z" />
<path fill="#fe523a" opacity="1.00" d=" M 38.50 180.75 C 40.72 179.62 43.63 179.90 45.55 181.52 C 48.21 184.52 48.20 190.12 44.64 192.45 C 41.78 194.12 37.20 193.32 35.98 189.94 C 34.74 186.83 35.24 182.43 38.50 180.75 M 42.15 190.69 C 45.06 188.75 44.07 184.58 42.22 182.24 C 37.75 182.66 37.41 190.84 42.15 190.69 Z" />
<path fill="#fe523a" opacity="1.00" d=" M 48.44 180.54 C 53.13 180.24 57.83 180.36 62.52 180.43 C 59.92 183.18 60.27 186.87 60.38 190.36 C 60.83 190.37 61.74 190.38 62.19 190.38 C 62.14 192.50 62.07 194.63 62.01 196.76 C 61.18 196.76 59.54 196.75 58.72 196.75 C 58.72 195.82 58.74 193.96 58.75 193.03 C 56.25 193.03 53.75 193.03 51.25 193.03 C 51.26 193.96 51.28 195.82 51.28 196.75 C 50.46 196.75 48.81 196.75 47.98 196.76 C 47.94 194.87 47.88 192.98 47.86 191.10 C 50.46 189.34 51.04 186.34 51.00 183.40 C 50.12 182.47 49.26 181.53 48.44 180.54 M 54.56 183.00 C 54.32 185.51 53.88 188.00 53.18 190.43 C 54.44 190.39 55.71 190.37 56.97 190.35 C 56.97 187.90 56.97 185.45 56.98 183.00 C 56.37 183.00 55.17 183.00 54.56 183.00 Z" />
<path fill="#fe523a" opacity="1.00" d=" M 64.59 181.01 C 67.61 180.18 71.71 179.12 73.98 181.99 C 75.22 184.39 74.57 187.29 74.90 189.89 C 75.62 190.85 76.07 191.91 76.25 193.07 C 74.49 193.08 72.74 192.88 71.01 192.55 C 68.38 193.66 64.30 193.57 63.85 189.99 C 63.48 185.66 68.59 185.34 71.70 185.25 C 70.95 184.18 70.68 182.22 69.01 182.45 C 67.49 183.20 66.19 184.33 64.75 185.20 C 64.71 184.16 64.63 182.06 64.59 181.01 M 67.13 189.64 C 68.08 191.20 69.83 190.36 71.26 190.27 C 71.24 189.26 71.22 188.25 71.20 187.24 C 69.61 187.63 67.34 187.51 67.13 189.64 Z" />
<path fill="#fe523a" opacity="1.00" d=" M 76.44 180.38 C 78.50 180.35 80.57 180.41 82.61 180.73 C 84.92 179.80 88.05 179.85 89.32 182.37 C 90.74 185.56 91.06 190.50 87.74 192.65 C 85.87 193.97 83.67 192.79 81.72 192.33 C 82.34 194.26 83.34 196.01 84.30 197.79 C 81.95 197.86 79.60 197.88 77.24 197.90 L 77.40 196.28 L 78.63 195.07 C 79.15 191.17 78.77 187.19 78.79 183.26 C 77.85 182.44 77.07 181.46 76.44 180.38 M 84.29 182.67 C 83.79 182.88 82.79 183.28 82.29 183.48 C 82.27 185.76 82.28 188.03 82.32 190.31 C 83.03 190.36 84.44 190.47 85.15 190.53 C 87.91 189.18 86.70 185.55 86.13 183.22 C 85.67 183.08 84.75 182.81 84.29 182.67 Z" />
<path fill="#fe523a" opacity="1.00" d=" M 91.11 180.37 C 93.54 180.36 95.96 180.37 98.39 180.42 C 97.86 181.51 97.32 182.59 96.76 183.67 C 97.41 185.44 98.04 187.22 98.68 189.00 C 99.41 187.02 100.14 185.04 100.87 183.07 C 100.22 182.23 99.57 181.39 98.94 180.54 C 101.26 180.39 103.58 180.35 105.91 180.33 C 105.87 180.69 105.80 181.42 105.76 181.78 C 101.82 185.80 101.64 191.96 98.56 196.53 C 97.44 198.31 95.10 197.94 93.31 198.26 C 93.39 197.64 93.54 196.40 93.62 195.78 C 94.76 195.12 97.50 194.99 96.77 193.04 C 95.42 189.14 94.33 184.86 91.41 181.80 C 91.33 181.44 91.19 180.73 91.11 180.37 Z" />
<path fill="#fe523a" opacity="1.00" d=" M 106.43 180.48 C 108.99 180.34 111.55 180.36 114.10 180.46 C 113.33 182.11 112.48 183.72 111.76 185.39 C 113.00 185.41 115.48 185.43 116.72 185.44 C 116.07 183.75 115.37 182.08 114.71 180.40 C 117.02 180.37 119.32 180.36 121.63 180.36 C 121.62 180.74 121.58 181.50 121.57 181.87 C 118.75 183.61 120.21 187.32 119.92 190.03 C 120.67 190.87 121.83 191.52 121.97 192.76 C 119.50 193.11 117.01 193.03 114.53 193.05 C 115.06 191.99 115.63 190.96 116.23 189.94 C 116.28 189.49 116.38 188.60 116.43 188.16 C 115.00 188.15 113.57 188.15 112.15 188.15 C 112.21 188.63 112.33 189.60 112.39 190.09 C 113.05 190.98 113.69 191.89 114.30 192.81 C 111.68 193.02 109.05 193.05 106.43 193.01 C 107.05 191.88 107.84 190.89 108.81 190.03 C 108.86 187.78 108.86 185.53 108.80 183.28 C 107.89 182.46 107.11 181.50 106.43 180.48 Z" />
<path fill="#fe523a" opacity="1.00" d=" M 128.70 185.82 C 131.01 183.92 132.46 181.08 135.25 179.75 C 137.89 181.35 140.98 180.15 143.86 180.28 C 143.89 183.58 143.88 186.88 143.89 190.18 C 144.51 190.74 145.74 191.85 146.36 192.41 C 143.77 193.13 141.07 193.06 138.41 193.05 C 139.03 191.98 139.71 190.93 140.42 189.92 C 140.33 187.30 141.15 184.33 139.40 182.06 L 139.45 181.40 C 137.99 181.99 136.60 182.71 135.18 183.39 C 134.44 184.34 133.71 185.30 132.97 186.27 C 134.52 188.64 136.49 190.66 138.44 192.69 C 136.67 192.88 134.91 193.01 133.14 193.11 C 131.93 191.16 130.75 189.18 129.27 187.43 C 128.53 189.57 129.73 191.18 131.16 192.63 C 128.76 192.56 124.91 194.26 123.46 191.97 C 123.96 191.48 124.97 190.50 125.47 190.01 C 125.66 186.63 125.79 183.11 123.37 180.42 C 125.84 180.37 128.30 180.36 130.77 180.40 C 129.87 182.12 128.95 183.86 128.70 185.82 Z" />
<path fill="#fe523a" opacity="1.00" d=" M 146.41 180.51 C 150.23 180.54 154.30 179.69 157.95 181.08 C 160.26 182.15 159.53 184.86 158.24 186.44 C 160.23 187.80 161.16 191.07 158.53 192.28 C 154.72 193.67 150.50 192.86 146.52 192.91 C 149.29 190.37 149.06 186.70 148.81 183.27 C 147.92 182.43 147.12 181.50 146.41 180.51 M 152.29 182.60 C 152.30 183.38 152.31 184.95 152.32 185.73 C 153.65 185.32 155.68 185.87 156.23 184.21 C 155.74 182.58 153.55 183.16 152.29 182.60 M 152.28 187.59 C 152.28 188.56 152.29 189.53 152.31 190.50 C 153.99 190.23 156.29 190.87 157.11 188.89 C 155.88 187.48 153.94 187.80 152.28 187.59 Z" />
<path fill="#fe523a" opacity="1.00" d=" M 175.16 180.54 C 177.81 180.34 180.46 180.34 183.11 180.52 C 182.33 181.49 181.52 182.44 180.69 183.38 C 180.64 185.59 180.64 187.80 180.65 190.02 C 181.56 190.87 182.45 191.74 183.30 192.65 C 181.19 192.93 179.05 193.12 176.91 193.02 C 174.29 193.42 176.40 190.66 177.19 189.92 C 177.18 189.30 177.19 188.68 177.19 188.06 C 175.66 188.14 174.13 188.23 172.60 188.34 C 173.34 189.83 174.15 191.28 174.98 192.73 C 172.43 192.99 169.87 193.05 167.32 193.03 C 168.01 191.97 168.76 190.94 169.55 189.95 C 169.80 186.60 169.98 183.08 167.53 180.42 C 169.93 180.37 172.33 180.36 174.73 180.40 C 174.01 182.04 173.30 183.70 172.72 185.41 C 174.22 185.45 175.72 185.48 177.22 185.51 C 177.24 185.05 177.28 184.12 177.30 183.66 C 176.58 182.62 175.86 181.58 175.16 180.54 Z" />
<path fill="#fe523a" opacity="1.00" d=" M 185.04 181.02 C 188.16 180.07 192.46 179.16 194.68 182.27 C 195.68 185.74 194.28 189.72 196.79 192.75 C 194.99 193.18 193.14 193.03 191.40 192.46 C 189.71 192.86 187.87 193.84 186.21 192.79 C 183.86 191.81 183.66 188.09 185.66 186.66 C 187.47 185.18 190.02 185.64 192.19 185.24 C 191.51 184.03 191.04 181.93 189.19 182.52 C 187.77 183.30 186.51 184.32 185.13 185.16 C 185.11 184.12 185.06 182.05 185.04 181.02 M 188.58 190.75 C 190.92 191.11 191.88 189.40 192.08 187.34 C 190.12 187.33 185.72 188.25 188.58 190.75 Z" />
<path fill="#fe523a" opacity="1.00" d=" M 207.35 180.46 C 211.14 178.80 215.70 181.89 215.63 186.00 C 216.18 189.86 213.06 194.03 208.89 193.26 C 202.57 192.84 201.66 182.50 207.35 180.46 M 208.17 183.15 C 206.74 184.90 206.78 187.49 207.62 189.50 C 208.10 190.97 210.72 191.14 211.45 189.68 C 213.27 187.29 212.11 180.99 208.17 183.15 Z" />
<path fill="#fe523a" opacity="1.00" d=" M 220.41 180.63 C 222.99 179.36 225.85 180.43 228.21 181.67 C 228.15 182.95 228.10 184.24 228.04 185.54 C 227.48 185.53 226.35 185.52 225.79 185.52 C 225.18 184.13 224.76 182.40 222.89 182.45 C 219.53 183.92 219.75 190.11 223.53 190.88 C 224.92 189.35 226.70 188.49 228.79 188.49 C 228.07 191.62 225.27 194.09 221.92 193.20 C 216.19 192.13 215.55 183.18 220.41 180.63 Z" />
<path fill="#fe523a" opacity="1.00" d=" M 229.44 180.53 C 232.03 180.36 234.63 180.35 237.22 180.41 C 236.46 182.07 235.63 183.71 234.91 185.39 C 236.16 185.40 238.66 185.41 239.91 185.41 C 239.23 183.73 238.48 182.09 237.78 180.43 C 240.09 180.38 242.40 180.36 244.71 180.36 C 244.71 180.75 244.71 181.53 244.72 181.92 C 241.84 183.44 243.20 187.26 243.13 189.89 C 243.73 190.58 244.92 191.95 245.52 192.63 C 242.99 193.00 240.42 193.19 237.88 192.88 C 238.39 191.28 239.15 189.78 239.82 188.24 C 238.31 188.19 236.81 188.15 235.31 188.12 C 235.36 188.61 235.45 189.59 235.49 190.08 C 236.18 190.98 236.84 191.91 237.49 192.85 C 234.81 193.03 232.12 193.05 229.45 192.83 C 230.19 191.83 231.02 190.92 231.94 190.08 C 231.98 187.83 231.97 185.58 231.94 183.34 C 231.08 182.42 230.24 181.49 229.44 180.53 Z" />
<path fill="#fe523a" opacity="1.00" d=" M 251.19 180.17 C 255.23 179.20 259.09 182.85 258.51 186.93 C 258.87 190.94 254.85 194.25 250.99 193.12 C 244.79 191.93 244.96 181.17 251.19 180.17 M 253.01 190.71 C 256.22 189.11 255.27 184.44 253.20 182.22 C 248.94 182.80 248.43 190.59 253.01 190.71 Z" />
<path fill="#fe523a" opacity="1.00" d=" M 259.55 180.55 C 263.51 180.68 268.06 179.32 271.63 181.50 C 273.80 182.80 272.24 185.37 271.08 186.80 C 271.70 187.10 272.92 187.70 273.54 187.99 C 273.43 189.83 273.05 192.07 270.98 192.63 C 267.23 193.39 263.35 193.03 259.56 192.76 C 260.33 191.78 261.18 190.86 262.07 189.98 C 262.12 187.79 262.11 185.59 262.07 183.40 C 261.20 182.46 260.37 181.52 259.55 180.55 M 265.46 182.86 C 265.49 183.56 265.55 184.95 265.58 185.65 C 266.85 185.48 268.13 185.31 269.40 185.13 C 269.29 184.63 269.07 183.64 268.96 183.15 C 267.79 183.05 266.62 182.95 265.46 182.86 M 265.52 187.61 C 265.53 188.58 265.53 189.56 265.55 190.54 C 267.00 190.40 268.46 190.30 269.89 189.98 C 270.66 187.04 267.29 187.97 265.52 187.61 Z" />
<path fill="#fe523a" opacity="1.00" d=" M 274.02 180.54 C 275.96 180.42 277.92 180.36 279.87 180.32 C 279.88 183.61 279.87 186.91 279.89 190.21 C 280.52 190.76 281.79 191.87 282.42 192.42 C 279.78 193.11 277.04 193.06 274.34 193.04 C 275.00 191.97 275.69 190.94 276.43 189.93 C 276.48 187.76 276.48 185.60 276.45 183.44 C 275.60 182.49 274.80 181.53 274.02 180.54 Z" />
<path fill="#fe523a" opacity="1.00" d=" M 18.64 212.46 C 22.38 212.56 26.35 211.70 29.93 213.06 C 32.28 214.16 31.50 216.76 30.32 218.45 C 32.12 219.76 33.30 222.85 30.79 224.10 C 26.96 225.84 22.48 224.85 18.40 224.75 C 19.18 223.82 19.99 222.92 20.83 222.05 C 20.97 218.66 21.43 214.97 18.64 212.46 M 24.27 214.65 C 24.28 215.43 24.32 216.98 24.34 217.75 C 25.54 217.54 26.75 217.39 27.92 217.05 C 29.24 214.46 25.78 215.17 24.27 214.65 M 24.28 219.60 C 24.29 220.57 24.30 221.55 24.31 222.53 C 25.81 222.38 27.34 222.33 28.81 221.94 C 29.51 219.02 26.01 220.00 24.28 219.60 Z" />
<path fill="#fe523a" opacity="1.00" d=" M 33.49 212.52 C 37.29 212.53 41.33 211.71 44.97 213.06 C 47.30 214.23 46.59 216.83 45.30 218.52 C 47.47 219.78 48.13 223.15 45.49 224.32 C 41.68 225.64 37.45 224.91 33.47 224.84 C 34.20 223.87 34.98 222.95 35.81 222.08 C 35.85 219.81 35.85 217.54 35.82 215.28 C 35.02 214.38 34.24 213.46 33.49 212.52 M 39.34 214.75 C 39.38 215.51 39.46 217.03 39.51 217.79 C 40.64 217.54 41.79 217.36 42.90 217.00 C 44.28 214.42 40.84 215.20 39.34 214.75 M 39.43 219.60 C 39.42 220.58 39.41 221.56 39.41 222.54 C 40.87 222.36 42.41 222.46 43.78 221.82 C 44.54 219.08 41.04 220.03 39.43 219.60 Z" />
<path fill="#fe523a" opacity="1.00" d=" M 50.69 213.64 C 52.66 211.43 56.37 211.68 58.52 213.52 C 59.86 215.24 59.74 217.54 60.13 219.59 C 57.37 219.62 54.60 219.64 51.84 219.76 C 53.12 223.12 56.38 222.82 59.26 221.97 C 60.38 225.17 56.04 225.41 53.89 225.23 C 48.51 224.72 47.19 217.01 50.69 213.64 M 53.91 214.74 C 53.18 215.54 52.57 216.44 51.93 217.32 C 53.69 217.33 55.46 217.31 57.22 217.26 C 56.35 216.22 55.70 213.95 53.91 214.74 Z" />
<path fill="#fe523a" opacity="1.00" d=" M 62.03 212.53 C 66.70 212.27 71.38 212.31 76.05 212.49 C 73.52 214.98 73.33 218.50 73.93 221.81 C 74.35 222.09 75.21 222.66 75.63 222.95 C 75.57 224.86 75.51 226.77 75.44 228.68 C 74.38 228.72 73.31 228.76 72.25 228.81 C 72.25 227.55 72.24 226.29 72.24 225.03 C 69.74 225.03 67.25 225.03 64.75 225.03 C 64.75 226.27 64.76 227.51 64.76 228.75 C 63.67 228.75 62.58 228.76 61.49 228.76 C 61.42 226.81 61.35 224.85 61.30 222.90 C 63.92 221.32 64.51 218.32 64.42 215.47 C 63.59 214.51 62.80 213.53 62.03 212.53 M 66.53 222.46 C 67.81 222.40 69.08 222.35 70.36 222.31 C 70.36 219.88 70.36 217.46 70.38 215.04 C 69.77 215.03 68.56 215.02 67.95 215.01 C 67.81 217.55 67.35 220.05 66.53 222.46 Z" />
<path fill="#fe523a" opacity="1.00" d=" M 78.42 214.39 C 80.14 211.66 84.29 211.38 86.71 213.30 C 88.34 214.95 88.09 217.49 88.51 219.60 C 85.81 219.63 83.12 219.63 80.42 219.70 C 81.19 220.70 81.66 222.07 82.89 222.62 C 84.36 222.51 85.82 222.32 87.28 222.04 C 87.47 222.56 87.86 223.60 88.06 224.12 C 85.58 224.83 82.77 226.08 80.33 224.59 C 76.78 222.66 76.38 217.56 78.42 214.39 M 80.48 217.29 C 82.01 217.33 83.54 217.37 85.07 217.39 C 84.98 216.74 84.78 215.42 84.68 214.76 C 82.63 214.34 81.18 215.35 80.48 217.29 Z" />
<path fill="#fe523a" opacity="1.00" d=" M 89.49 212.50 C 92.06 212.36 94.64 212.35 97.21 212.41 C 96.46 214.08 95.64 215.71 94.92 217.40 C 96.17 217.40 98.67 217.41 99.92 217.41 C 99.20 215.72 98.40 214.08 97.69 212.40 C 100.03 212.37 102.38 212.36 104.73 212.37 C 104.73 212.77 104.72 213.56 104.72 213.95 C 101.58 215.37 103.30 219.37 102.90 222.05 C 103.81 222.91 104.71 223.78 105.56 224.70 C 102.93 224.99 100.29 225.05 97.65 225.07 C 98.33 223.44 99.12 221.87 99.85 220.27 C 98.34 220.20 96.83 220.15 95.32 220.11 C 95.36 220.60 95.45 221.59 95.49 222.08 C 96.17 222.97 96.82 223.89 97.44 224.83 C 94.79 225.03 92.14 225.06 89.48 224.95 C 90.17 223.92 90.95 222.96 91.81 222.08 C 91.86 219.81 91.85 217.54 91.81 215.28 C 91.01 214.37 90.24 213.44 89.49 212.50 Z" />
<path fill="#fe523a" opacity="1.00" d=" M 116.14 212.31 C 118.08 212.36 120.02 212.42 121.96 212.54 C 121.23 213.49 120.47 214.43 119.70 215.36 C 119.63 217.56 119.63 219.76 119.70 221.96 C 120.46 222.96 121.20 223.98 121.91 225.02 C 119.12 225.07 116.29 225.16 113.57 224.40 C 114.20 223.86 115.47 222.76 116.10 222.21 C 116.12 220.48 116.13 218.76 116.14 217.03 C 114.80 219.76 113.41 222.48 111.86 225.10 C 110.17 224.63 107.21 225.96 106.47 223.95 C 106.97 223.46 107.97 222.50 108.47 222.01 C 108.67 218.63 108.78 215.11 106.37 212.41 C 108.90 212.36 111.43 212.36 113.96 212.44 C 112.05 214.64 111.81 217.41 111.98 220.18 C 113.34 217.54 114.70 214.90 116.14 212.31 Z" />
<path fill="#fe523a" opacity="1.00" d=" M 130.45 212.50 C 132.80 212.37 135.15 212.36 137.50 212.47 C 136.81 213.34 136.11 214.20 135.36 215.03 C 134.26 216.17 133.18 217.34 132.10 218.51 C 133.84 220.40 135.72 222.15 137.55 223.96 C 136.59 226.15 132.71 224.50 130.61 225.04 C 130.94 224.09 131.29 223.14 131.64 222.20 C 131.24 221.79 130.43 220.97 130.03 220.55 C 129.66 220.97 128.90 221.81 128.53 222.23 C 128.86 223.17 129.19 224.12 129.51 225.07 C 126.92 225.06 124.30 225.12 121.79 224.40 C 124.11 222.73 126.24 220.81 127.97 218.53 C 126.09 216.54 124.05 214.69 122.36 212.53 C 124.73 212.36 127.11 212.36 129.49 212.38 C 129.25 213.00 128.77 214.22 128.53 214.83 C 129.07 215.50 129.60 216.17 130.13 216.85 C 130.63 216.14 131.14 215.43 131.64 214.72 C 131.34 214.17 130.75 213.06 130.45 212.50 Z" />
<path fill="#fe523a" opacity="1.00" d=" M 18.50 244.51 C 21.09 244.36 23.68 244.35 26.28 244.41 C 25.36 246.08 24.32 247.71 23.88 249.59 C 27.15 248.14 28.17 243.15 32.48 244.09 C 32.51 244.61 32.58 245.66 32.62 246.18 C 30.95 247.25 29.52 248.61 28.24 250.12 C 29.86 252.54 31.85 254.68 33.72 256.91 C 31.94 256.96 30.17 256.99 28.40 256.99 C 27.27 255.10 26.08 253.25 24.75 251.50 C 24.62 252.12 24.36 253.35 24.24 253.96 C 25.04 254.89 25.81 255.85 26.54 256.84 C 23.83 257.04 21.11 257.04 18.40 256.78 C 19.18 255.83 19.99 254.92 20.83 254.04 C 20.86 251.78 20.86 249.53 20.83 247.28 C 20.03 246.38 19.25 245.45 18.50 244.51 Z" />
<path fill="#fe523a" opacity="1.00" d=" M 37.39 244.44 C 41.66 242.57 46.38 246.54 45.67 251.02 C 46.02 255.05 41.86 258.32 38.01 257.11 C 32.40 255.70 32.14 246.45 37.39 244.44 M 38.23 247.28 C 36.44 249.20 36.65 253.08 38.86 254.68 C 44.02 255.73 43.16 244.23 38.23 247.28 Z" />
<path fill="#fe523a" opacity="1.00" d=" M 46.35 244.39 C 48.44 244.36 50.54 244.43 52.62 244.64 C 54.57 244.19 57.11 243.56 58.52 245.47 C 60.69 248.35 60.71 252.69 58.77 255.71 C 57.13 257.92 54.16 257.27 51.97 256.40 C 52.05 257.05 52.20 258.35 52.27 259.00 C 53.01 259.89 53.73 260.78 54.42 261.71 C 51.76 261.89 49.10 261.92 46.44 261.78 C 47.10 260.79 47.80 259.84 48.54 258.91 C 48.64 255.07 48.65 251.24 48.53 247.40 C 47.76 246.43 47.04 245.42 46.35 244.39 M 52.38 247.42 C 51.97 249.72 52.18 252.07 52.20 254.39 C 53.55 254.31 55.79 255.14 56.25 253.25 C 57.67 250.67 56.01 244.63 52.38 247.42 Z" />
<path fill="#fe523a" opacity="1.00" d=" M 71.03 244.33 C 73.02 244.36 75.01 244.41 76.99 244.54 C 76.21 245.50 75.41 246.45 74.58 247.38 C 74.51 249.55 74.51 251.73 74.58 253.90 C 75.41 254.90 76.19 255.94 76.94 257.02 C 74.14 257.07 71.29 257.16 68.56 256.41 C 69.20 255.86 70.46 254.77 71.09 254.22 C 71.12 252.47 71.14 250.72 71.17 248.97 C 69.81 251.74 68.31 254.43 66.80 257.11 C 64.95 256.76 62.44 257.73 61.14 256.02 C 61.73 255.53 62.90 254.55 63.48 254.06 C 63.48 251.85 63.48 249.64 63.43 247.43 C 62.82 246.71 61.61 245.28 61.00 244.56 C 63.60 244.35 66.21 244.34 68.81 244.40 C 67.15 246.69 66.54 249.37 66.83 252.18 C 68.33 249.61 69.68 246.97 71.03 244.33 Z" />
<path fill="#fe523a" opacity="1.00" d=" M 81.45 244.55 C 83.84 243.51 86.41 244.47 88.72 245.24 C 88.81 246.65 88.88 248.06 88.95 249.47 C 88.38 249.49 87.22 249.53 86.64 249.55 C 86.21 247.81 85.18 245.82 83.08 246.87 C 80.83 248.41 80.88 252.58 82.83 254.36 C 84.39 255.30 85.62 253.59 86.74 252.81 C 87.47 252.80 88.92 252.78 89.65 252.77 C 88.59 255.47 86.21 258.06 83.01 257.22 C 77.02 256.50 76.20 246.84 81.45 244.55 Z" />
<path fill="#fe523a" opacity="1.00" d=" M 90.61 244.37 C 95.03 244.37 99.45 244.37 103.88 244.36 C 103.88 245.79 103.88 247.22 103.89 248.66 C 103.39 248.64 102.38 248.60 101.88 248.58 C 100.95 247.77 99.98 247.01 98.97 246.32 C 99.03 249.83 97.76 254.20 101.33 256.46 C 98.53 257.38 95.45 257.25 92.68 256.28 C 93.38 255.77 94.79 254.74 95.49 254.23 C 95.49 251.77 95.49 249.32 95.49 246.87 L 93.37 246.91 C 93.34 247.34 93.29 248.21 93.27 248.64 C 92.38 248.64 91.49 248.64 90.61 248.64 C 90.61 247.21 90.61 245.79 90.61 244.37 Z" />
<path fill="#fe523a" opacity="1.00" d=" M 112.64 244.47 C 115.07 244.37 117.51 244.37 119.95 244.48 C 116.23 249.15 115.28 255.20 112.47 260.33 C 111.39 262.32 108.98 262.05 107.08 262.23 C 107.14 261.64 107.25 260.47 107.31 259.89 C 108.52 259.27 109.95 258.86 110.71 257.64 C 109.34 252.95 107.48 248.30 104.42 244.45 C 106.99 244.35 109.56 244.36 112.13 244.51 C 111.68 245.16 110.76 246.47 110.31 247.12 C 110.99 249.07 111.69 251.02 112.38 252.98 C 113.09 251.02 113.82 249.07 114.52 247.10 C 113.88 246.23 113.25 245.36 112.64 244.47 Z" />
<path fill="#fe523a" opacity="1.00" d=" M 136.63 245.00 C 139.42 243.91 142.99 243.44 145.45 245.52 C 147.14 248.02 146.14 251.27 146.44 254.11 C 147.12 255.03 147.79 255.96 148.43 256.91 C 146.48 256.96 144.53 256.89 142.62 256.48 C 140.89 256.96 138.91 257.85 137.25 256.65 C 135.35 255.66 135.20 252.96 136.17 251.26 C 137.90 249.24 140.83 249.61 143.20 249.32 C 142.87 248.25 142.53 247.19 142.19 246.13 C 140.04 246.72 138.25 248.05 136.33 249.11 C 136.41 248.08 136.56 246.03 136.63 245.00 M 138.83 253.08 C 139.66 256.45 143.92 254.01 143.25 251.25 C 141.70 251.62 139.67 251.38 138.83 253.08 Z" />
<path fill="#fe523a" opacity="1.00" d=" M 148.84 244.34 C 153.93 244.55 159.03 244.30 164.12 244.52 C 163.33 245.49 162.52 246.43 161.70 247.37 C 161.64 249.60 161.63 251.83 161.64 254.06 C 162.21 254.53 163.36 255.47 163.94 255.94 C 162.01 258.21 158.20 256.60 155.53 256.65 C 156.58 255.58 157.69 254.57 158.79 253.57 C 156.36 253.02 153.47 253.33 151.57 251.44 C 150.67 249.57 150.79 247.19 149.02 245.81 C 148.98 245.44 148.88 244.71 148.84 244.34 M 156.04 244.47 C 154.82 246.16 154.02 248.05 153.99 250.16 C 155.39 250.30 156.80 250.43 158.22 250.54 C 158.24 249.55 158.26 248.57 158.29 247.59 C 157.53 246.55 156.78 245.51 156.04 244.47 Z" />
<path fill="#fe523a" opacity="1.00" d=" M 165.98 247.03 C 167.49 243.63 172.71 243.00 175.03 245.85 C 176.43 247.40 176.05 249.70 176.49 251.60 C 173.72 251.63 170.95 251.62 168.18 251.75 C 169.36 254.89 172.45 254.91 175.19 254.07 C 175.39 254.57 175.78 255.58 175.97 256.08 C 173.55 256.84 170.78 258.08 168.37 256.61 C 164.83 254.97 164.48 250.17 165.98 247.03 M 168.35 249.25 C 170.01 249.32 171.67 249.36 173.34 249.38 C 172.80 248.44 172.76 246.88 171.44 246.69 C 169.81 246.00 169.30 248.37 168.35 249.25 Z" />
<path fill="#fe523a" opacity="1.00" d=" M 177.45 244.53 C 179.69 244.39 181.93 244.36 184.17 244.35 C 185.27 247.23 186.33 250.11 187.46 252.97 C 188.56 250.10 189.66 247.23 190.70 244.33 C 192.98 244.36 195.27 244.39 197.55 244.55 C 196.75 245.49 195.91 246.38 195.05 247.26 C 194.86 250.70 194.44 254.47 197.46 256.86 C 194.96 256.99 192.45 257.03 189.95 257.05 C 191.31 254.64 191.87 251.98 191.78 249.23 C 190.63 251.77 189.62 254.37 188.59 256.97 C 188.01 256.99 186.85 257.03 186.27 257.05 C 185.31 254.55 184.39 252.03 183.36 249.56 C 183.25 252.10 183.28 254.72 185.15 256.72 C 182.59 257.02 180.00 257.08 177.43 256.84 C 178.18 255.84 179.02 254.92 179.93 254.08 C 179.97 251.83 179.97 249.58 179.94 247.34 C 179.08 246.42 178.25 245.50 177.45 244.53 Z" />
<path fill="#fe523a" opacity="1.00" d=" M 120.31 244.45 C 124.11 244.58 128.23 243.67 131.82 245.15 C 134.10 246.24 132.97 248.74 132.27 250.49 C 133.66 251.97 134.82 254.29 132.99 255.96 C 129.03 257.87 124.41 256.83 120.18 256.85 C 120.95 255.87 121.74 254.91 122.56 253.98 C 122.76 250.59 123.10 246.96 120.31 244.45 M 126.03 246.61 C 126.06 247.42 126.14 249.04 126.17 249.86 C 127.82 249.51 129.41 248.93 130.79 247.94 C 129.23 247.40 127.63 246.98 126.03 246.61 M 126.01 251.73 C 126.03 252.42 126.07 253.82 126.09 254.52 C 128.15 254.40 130.78 254.63 130.67 251.85 C 129.12 251.79 127.57 251.75 126.01 251.73 Z" />
<path fill="#fe523a" opacity="1.00" d=" M 107.65 270.69 C 110.38 271.28 113.14 271.16 115.89 270.84 C 116.01 271.51 116.24 272.86 116.36 273.53 C 115.72 273.58 114.44 273.68 113.80 273.73 C 113.18 273.26 111.95 272.32 111.33 271.85 L 111.16 273.65 C 109.96 273.63 108.77 273.62 107.58 273.62 C 107.60 272.64 107.63 271.66 107.65 270.69 Z" />
<path fill="#fe523a" opacity="1.00" d=" M 118.13 270.77 C 119.25 270.75 120.38 270.73 121.50 270.72 C 121.50 271.68 121.51 272.65 121.52 273.62 C 120.38 273.62 119.24 273.63 118.11 273.64 C 118.11 272.68 118.12 271.72 118.13 270.77 Z" />
<path fill="#fe523a" opacity="1.00" d=" M 18.50 276.50 C 21.11 276.36 23.72 276.35 26.32 276.42 C 25.47 277.92 24.32 279.30 24.03 281.06 C 26.03 281.51 26.58 278.84 27.86 277.81 C 28.78 276.05 30.80 276.20 32.50 276.11 C 32.53 276.63 32.58 277.67 32.61 278.18 C 30.95 279.26 29.52 280.61 28.24 282.12 C 29.87 284.54 31.85 286.68 33.72 288.91 C 31.95 288.96 30.18 288.99 28.41 289.00 C 27.28 287.10 26.08 285.25 24.73 283.50 C 24.61 284.12 24.37 285.35 24.24 285.97 C 25.04 286.89 25.80 287.85 26.53 288.84 C 23.84 289.04 21.14 289.04 18.45 288.81 C 19.20 287.85 20.00 286.92 20.82 286.02 C 20.86 283.77 20.86 281.53 20.83 279.29 C 20.02 278.38 19.25 277.45 18.50 276.50 Z" />
<path fill="#fe523a" opacity="1.00" d=" M 33.65 276.35 C 35.67 276.36 37.71 276.36 39.70 276.78 C 41.64 276.14 44.08 275.57 45.58 277.41 C 48.11 280.51 48.32 286.36 44.65 288.71 C 42.78 289.95 40.63 288.77 38.72 288.33 C 39.34 290.30 40.41 292.06 41.42 293.86 C 38.81 293.91 36.19 293.88 33.59 293.66 C 34.30 292.75 35.03 291.86 35.79 290.99 C 35.43 286.07 37.34 280.38 33.65 276.35 M 39.38 280.03 C 39.17 282.02 39.28 284.02 39.29 286.01 C 40.08 286.22 41.66 286.64 42.45 286.85 C 43.89 284.79 44.57 281.93 43.16 279.68 C 42.36 278.22 39.91 278.50 39.38 280.03 Z" />
<path fill="#fe523a" opacity="1.00" d=" M 58.21 276.34 C 60.17 276.36 62.12 276.42 64.08 276.53 C 63.34 277.49 62.58 278.41 61.81 279.34 C 61.76 281.61 61.75 283.87 61.74 286.14 C 62.42 286.70 63.76 287.82 64.44 288.37 C 61.72 289.18 58.87 289.06 56.07 289.02 C 56.78 287.98 57.51 286.97 58.27 285.97 C 58.34 284.31 58.38 282.65 58.43 281.00 C 57.00 283.69 55.56 286.38 54.10 289.06 C 52.20 289.03 50.31 289.00 48.41 288.95 C 51.76 285.59 51.65 279.85 48.48 276.42 C 51.03 276.35 53.57 276.37 56.12 276.46 C 54.17 278.65 53.93 281.40 54.20 284.18 C 55.57 281.58 56.88 278.95 58.21 276.34 Z" />
<path fill="#fe523a" opacity="1.00" d=" M 65.12 276.36 C 69.39 276.38 73.66 276.34 77.93 276.40 C 78.24 277.01 78.88 278.25 79.20 278.87 C 81.17 278.04 82.54 275.60 85.04 276.09 C 89.16 275.72 90.38 280.33 90.40 283.56 C 87.63 283.63 84.85 283.63 82.08 283.78 C 83.34 287.08 86.69 286.76 89.48 285.94 C 90.53 289.20 86.13 289.38 84.01 289.22 C 80.01 288.71 78.85 284.36 78.75 280.96 C 78.22 280.83 77.16 280.56 76.64 280.42 C 75.64 279.73 74.62 279.08 73.58 278.45 C 73.50 280.96 73.49 283.48 73.56 285.99 C 74.40 286.91 75.16 287.92 75.78 289.02 C 73.01 289.05 70.25 289.02 67.50 288.74 C 68.28 287.82 69.10 286.94 69.94 286.08 C 69.99 283.49 69.99 280.90 69.84 278.32 C 68.92 279.04 68.02 279.80 67.15 280.59 C 66.64 280.61 65.62 280.65 65.12 280.67 C 65.12 279.23 65.12 277.79 65.12 276.36 M 84.00 278.24 C 83.61 279.01 82.84 280.55 82.46 281.32 C 84.12 281.34 85.78 281.31 87.44 281.27 C 86.72 279.79 85.63 278.63 84.00 278.24 Z" />
<path fill="#fe523a" opacity="1.00" d=" M 105.42 276.50 C 107.36 276.39 109.30 276.36 111.24 276.33 C 111.27 279.56 111.26 282.79 111.33 286.03 C 112.07 286.94 112.78 287.88 113.46 288.85 C 110.77 289.04 108.08 289.03 105.40 288.79 C 106.14 287.85 106.90 286.95 107.70 286.07 C 107.73 283.82 107.72 281.58 107.67 279.34 C 106.88 278.42 106.13 277.47 105.42 276.50 Z" />
<path fill="#fe523a" opacity="1.00" d=" M 112.97 276.56 C 114.94 276.42 116.91 276.35 118.88 276.31 C 118.88 279.55 118.86 282.79 118.93 286.03 C 119.70 286.87 120.73 287.57 121.03 288.73 C 118.51 289.11 115.96 289.03 113.42 289.05 C 114.04 287.97 114.71 286.93 115.42 285.91 C 115.48 283.75 115.48 281.59 115.44 279.44 C 114.59 278.49 113.77 277.54 112.97 276.56 Z" />
<path fill="#fe523a" opacity="1.00" d=" M 121.53 276.45 C 125.32 276.56 129.34 275.70 132.97 277.07 C 135.28 278.22 134.44 280.79 133.35 282.51 C 135.44 283.93 136.09 287.49 133.21 288.43 C 129.43 289.56 125.37 288.89 121.48 288.92 C 124.84 285.63 124.96 279.73 121.53 276.45 M 127.28 281.73 C 128.55 281.52 129.84 281.37 131.09 281.05 C 131.82 278.55 128.86 279.11 127.36 278.59 C 127.32 279.63 127.30 280.68 127.28 281.73 M 127.28 283.60 C 127.29 284.56 127.30 285.53 127.31 286.50 C 128.74 286.27 130.38 286.63 131.65 285.80 C 132.71 282.99 128.87 284.06 127.28 283.60 Z" />
<path fill="#fe523a" opacity="1.00" d=" M 91.15 276.46 C 92.93 276.40 94.71 276.36 96.49 276.32 L 96.24 277.52 C 97.96 276.46 99.95 275.56 101.96 276.49 C 105.31 278.97 105.53 284.23 103.48 287.59 C 101.71 290.09 98.45 289.02 96.01 288.47 C 96.85 290.27 97.79 292.03 98.78 293.77 C 96.15 293.84 93.37 294.27 90.91 293.12 C 91.49 292.60 92.65 291.56 93.23 291.04 C 92.81 286.16 94.67 280.54 91.15 276.46 M 96.77 286.55 C 97.57 286.50 99.16 286.41 99.95 286.37 C 102.24 284.45 101.91 278.05 97.91 278.81 C 95.37 280.40 97.14 284.08 96.77 286.55 Z" />
<path fill="#fe523a" opacity="1.00" d=" M 137.48 286.01 C 138.61 285.99 139.74 285.99 140.88 285.99 C 140.88 286.74 140.88 288.24 140.88 288.99 C 140.04 289.00 138.35 289.02 137.51 289.03 C 137.50 288.02 137.49 287.01 137.48 286.01 Z" />
<path fill="#fe523a" opacity="1.00" d=" M 143.60 286.03 C 144.73 286.01 145.87 285.99 147.00 285.98 C 147.00 286.74 147.00 288.26 147.00 289.01 C 145.87 289.00 144.74 288.99 143.62 288.98 C 143.61 288.24 143.60 286.77 143.60 286.03 Z" />
<path fill="#fe523a" opacity="1.00" d=" M 149.75 289.00 C 149.75 288.00 149.75 287.00 149.75 286.00 C 150.59 286.00 152.27 286.00 153.12 286.00 C 153.12 287.00 153.12 288.00 153.12 289.00 C 152.28 289.00 150.59 289.00 149.75 289.00 Z" />
</g>
</svg>
