<?xml version="1.0" encoding="UTF-8" ?>
<!DOCTYPE svg PUBLIC "-//W3C//DTD SVG 1.1//EN" "http://www.w3.org/Graphics/SVG/1.1/DTD/svg11.dtd">
<svg width="132pt" height="30pt" viewBox="0 0 132 30" version="1.1" xmlns="http://www.w3.org/2000/svg">
<g id="#ff6a56ff">
<path fill="#ff6a56" opacity="1.00" d=" M 0.00 8.59 L 0.75 0.65 C 8.13 0.60 15.50 0.63 22.87 0.63 C 22.88 10.09 22.87 19.54 22.88 29.00 C 21.25 29.00 19.63 29.00 18.00 29.00 C 18.00 20.83 18.00 12.67 18.00 4.50 C 13.79 4.50 9.59 4.50 5.38 4.50 C 5.37 12.72 5.38 20.95 5.37 29.18 C 3.58 28.99 1.78 28.84 0.00 28.58 L 0.00 8.59 Z" />
<path fill="#ff6a56" opacity="1.00" d=" M 33.15 8.19 C 37.60 6.47 43.57 7.81 45.72 12.39 C 47.74 16.58 47.57 22.01 44.82 25.86 C 41.05 30.96 32.00 30.54 28.95 24.87 C 25.89 19.48 27.03 10.93 33.15 8.19 M 35.36 11.53 C 31.80 13.17 31.84 17.80 32.32 21.09 C 32.66 23.82 35.05 26.20 37.94 25.61 C 42.28 24.85 42.76 19.46 42.12 15.95 C 41.94 12.71 38.43 10.25 35.36 11.53 Z" />
<path fill="#ff6a56" opacity="1.00" d=" M 50.37 7.89 C 51.96 7.88 53.54 7.87 55.13 7.88 C 55.41 11.14 54.27 14.87 56.19 17.78 C 58.37 18.96 60.91 18.36 63.26 18.26 C 63.25 14.79 63.25 11.32 63.25 7.85 C 64.83 7.86 66.41 7.87 68.00 7.88 C 68.00 14.92 68.00 21.96 68.00 29.00 C 66.41 29.00 64.83 29.00 63.25 28.99 C 63.25 26.65 63.25 24.31 63.25 21.97 C 59.33 22.43 54.38 22.77 51.73 19.20 C 49.68 15.82 50.56 11.64 50.37 7.89 Z" />
<path fill="#ff6a56" opacity="1.00" d=" M 72.47 13.97 C 73.61 6.25 86.29 4.97 89.21 11.95 C 90.34 17.58 88.85 23.44 90.27 29.06 C 88.38 28.74 85.51 29.89 84.86 27.38 C 82.17 29.41 78.46 30.18 75.41 28.46 C 71.66 26.61 71.10 20.81 74.31 18.20 C 77.40 15.95 81.42 16.13 85.04 16.08 C 84.94 14.02 84.56 11.15 81.93 11.03 C 79.62 10.45 78.01 12.15 77.01 13.97 C 75.49 13.98 73.98 13.98 72.47 13.97 M 77.02 21.96 C 76.08 25.74 81.45 26.78 83.58 24.53 C 85.53 23.33 84.69 20.80 84.93 18.92 C 82.26 19.19 77.79 18.53 77.02 21.96 Z" />
<path fill="#ff6a56" opacity="1.00" d=" M 92.49 11.62 C 92.50 10.37 92.50 9.12 92.51 7.87 C 98.67 7.88 104.84 7.87 111.00 7.88 C 111.00 9.13 110.99 10.38 110.99 11.63 C 108.66 11.62 106.33 11.62 104.00 11.62 C 104.00 17.41 104.00 23.21 104.00 29.00 C 102.42 29.00 100.83 29.00 99.25 29.00 C 99.25 23.21 99.27 17.42 99.24 11.63 C 96.99 11.62 94.74 11.62 92.49 11.62 Z" />
<path fill="#ff6a56" opacity="1.00" d=" M 114.25 7.85 C 115.83 7.87 117.41 7.87 119.00 7.88 C 119.00 12.65 119.01 17.41 118.99 22.17 C 121.68 17.36 124.51 12.62 127.29 7.86 C 128.86 7.87 130.43 7.87 132.00 7.88 L 132.00 29.00 C 130.41 29.00 128.83 29.00 127.25 28.99 C 127.25 24.29 127.26 19.58 127.24 14.87 C 124.44 19.54 121.70 24.26 119.01 29.00 C 117.42 29.00 115.84 29.00 114.25 29.00 C 114.25 21.95 114.25 14.90 114.25 7.85 Z" />
</g>
</svg>
