<?xml version="1.0" encoding="UTF-8" ?>
<!DOCTYPE svg PUBLIC "-//W3C//DTD SVG 1.1//EN" "http://www.w3.org/Graphics/SVG/1.1/DTD/svg11.dtd">
<svg width="139pt" height="45pt" viewBox="0 0 139 45" version="1.1" xmlns="http://www.w3.org/2000/svg">
<g id="#c35242c4">
<path fill="#c35242" opacity="0.77" d=" M 17.79 0.00 L 121.36 0.00 C 129.05 0.82 136.04 6.43 137.90 14.03 C 139.02 19.22 138.92 24.67 138.15 29.91 C 136.74 37.83 129.72 43.85 121.89 45.00 L 18.46 45.00 C 9.55 44.46 1.55 36.99 0.91 28.01 C 0.61 21.78 -0.01 14.95 3.38 9.38 C 6.36 4.17 11.92 0.84 17.79 0.00 M 58.99 14.28 C 60.23 14.86 61.61 16.49 62.84 14.96 C 63.45 13.45 62.07 12.75 61.11 11.94 C 60.32 12.65 59.62 13.43 58.99 14.28 M 35.16 12.85 C 36.92 15.53 38.67 18.22 40.35 20.96 C 38.51 23.97 36.72 27.00 34.87 30.00 C 36.20 30.00 37.54 30.01 38.87 30.02 C 40.73 27.36 41.42 23.32 44.91 22.29 C 45.00 24.86 45.02 27.43 45.01 30.00 C 45.79 30.00 47.34 30.00 48.12 30.00 C 48.11 27.43 48.12 24.86 48.22 22.30 C 51.62 23.39 52.37 27.28 54.03 30.00 C 55.39 30.00 56.75 29.99 58.11 29.99 C 56.35 26.94 54.54 23.91 52.75 20.88 C 54.44 18.19 56.14 15.51 57.90 12.86 C 56.89 12.87 54.86 12.88 53.85 12.88 C 52.24 15.60 51.28 19.06 48.23 20.54 C 48.12 17.99 48.11 15.43 48.11 12.88 C 47.34 12.88 45.79 12.88 45.01 12.87 C 45.02 15.42 45.00 17.97 44.90 20.52 C 41.77 19.13 40.86 15.56 39.14 12.89 C 38.15 12.88 36.16 12.86 35.16 12.85 M 59.74 17.40 C 59.76 21.60 59.75 25.80 59.76 30.00 C 60.54 30.00 62.09 30.00 62.87 30.00 C 62.87 25.78 62.87 21.57 62.86 17.35 C 61.82 17.36 60.78 17.37 59.74 17.40 M 65.90 17.37 C 65.86 21.58 65.87 25.79 65.88 30.00 C 66.63 30.00 68.12 30.00 68.87 30.00 C 68.87 28.33 68.87 26.67 68.87 25.00 C 70.42 25.00 71.96 25.00 73.51 25.01 C 73.51 26.68 73.51 28.34 73.51 30.01 C 74.29 30.00 75.85 29.99 76.63 29.98 C 76.62 25.78 76.62 21.58 76.61 17.39 C 75.58 17.38 74.54 17.37 73.51 17.38 C 73.51 19.09 73.51 20.79 73.50 22.50 C 71.96 22.51 70.42 22.51 68.88 22.51 C 68.87 20.79 68.87 19.08 68.86 17.36 C 68.12 17.36 66.64 17.37 65.90 17.37 M 79.62 17.38 C 79.63 21.59 79.63 25.80 79.63 30.00 C 80.40 30.00 81.94 30.00 82.71 30.00 C 82.75 28.14 82.79 26.29 82.89 24.44 C 84.77 25.94 86.11 27.94 87.34 29.98 C 88.69 29.99 90.04 30.00 91.39 30.01 C 89.82 27.80 88.24 25.58 86.67 23.36 C 88.11 21.36 89.55 19.35 90.97 17.33 C 89.69 17.35 88.42 17.37 87.15 17.39 C 85.92 19.36 84.59 21.26 82.95 22.90 C 82.82 21.07 82.75 19.23 82.67 17.40 C 81.66 17.37 80.64 17.37 79.62 17.38 M 92.20 21.28 C 94.48 20.96 96.47 19.63 98.75 19.35 C 99.12 20.00 99.87 21.30 100.25 21.95 C 97.40 22.36 92.48 22.14 92.35 26.19 C 92.05 30.02 96.68 30.96 99.45 29.50 C 100.70 29.71 101.94 29.95 103.17 30.23 C 102.81 26.69 103.17 23.08 102.56 19.57 C 100.33 15.39 93.25 16.71 92.20 21.28 Z" />
<path fill="#c35242" opacity="0.77" d=" M 95.45 26.93 C 94.78 24.34 97.94 24.13 99.69 23.87 C 99.72 24.69 99.77 26.33 99.79 27.14 C 98.41 27.37 96.39 28.63 95.45 26.93 Z" />
</g>
<g id="#ffffffff">
<path fill="#ffffff" opacity="1.00" d=" M 58.99 14.28 C 59.62 13.43 60.32 12.65 61.11 11.94 C 62.07 12.75 63.45 13.45 62.84 14.96 C 61.61 16.49 60.23 14.86 58.99 14.28 Z" />
<path fill="#ffffff" opacity="1.00" d=" M 35.16 12.85 C 36.16 12.86 38.15 12.88 39.14 12.89 C 40.86 15.56 41.77 19.13 44.90 20.52 C 45.00 17.97 45.02 15.42 45.01 12.87 C 45.79 12.88 47.34 12.88 48.11 12.88 C 48.11 15.43 48.12 17.99 48.23 20.54 C 51.28 19.06 52.24 15.60 53.85 12.88 C 54.86 12.88 56.89 12.87 57.90 12.86 C 56.14 15.51 54.44 18.19 52.75 20.88 C 54.54 23.91 56.35 26.94 58.11 29.99 C 56.75 29.99 55.39 30.00 54.03 30.00 C 52.37 27.28 51.62 23.39 48.22 22.30 C 48.12 24.86 48.11 27.43 48.12 30.00 C 47.34 30.00 45.79 30.00 45.01 30.00 C 45.02 27.43 45.00 24.86 44.91 22.29 C 41.42 23.32 40.73 27.36 38.87 30.02 C 37.54 30.01 36.20 30.00 34.87 30.00 C 36.72 27.00 38.51 23.97 40.35 20.96 C 38.67 18.22 36.92 15.53 35.16 12.85 Z" />
<path fill="#ffffff" opacity="1.00" d=" M 59.74 17.40 C 60.78 17.37 61.82 17.36 62.86 17.35 C 62.87 21.57 62.87 25.78 62.87 30.00 C 62.09 30.00 60.54 30.00 59.76 30.00 C 59.75 25.80 59.76 21.60 59.74 17.40 Z" />
<path fill="#ffffff" opacity="1.00" d=" M 65.90 17.37 C 66.64 17.37 68.12 17.36 68.86 17.36 C 68.87 19.08 68.87 20.79 68.88 22.51 C 70.42 22.51 71.96 22.51 73.50 22.50 C 73.51 20.79 73.51 19.09 73.51 17.38 C 74.54 17.37 75.58 17.38 76.61 17.39 C 76.62 21.58 76.62 25.78 76.63 29.98 C 75.85 29.99 74.29 30.00 73.51 30.01 C 73.51 28.34 73.51 26.68 73.51 25.01 C 71.96 25.00 70.42 25.00 68.87 25.00 C 68.87 26.67 68.87 28.33 68.87 30.00 C 68.12 30.00 66.63 30.00 65.88 30.00 C 65.87 25.79 65.86 21.58 65.90 17.37 Z" />
<path fill="#ffffff" opacity="1.00" d=" M 79.62 17.38 C 80.64 17.37 81.66 17.37 82.67 17.40 C 82.75 19.23 82.82 21.07 82.95 22.90 C 84.59 21.26 85.92 19.36 87.15 17.39 C 88.42 17.37 89.69 17.35 90.97 17.33 C 89.55 19.35 88.11 21.36 86.67 23.36 C 88.24 25.58 89.82 27.80 91.39 30.01 C 90.04 30.00 88.69 29.99 87.34 29.98 C 86.11 27.94 84.77 25.94 82.89 24.44 C 82.79 26.29 82.75 28.14 82.71 30.00 C 81.94 30.00 80.40 30.00 79.63 30.00 C 79.63 25.80 79.63 21.59 79.62 17.38 Z" />
<path fill="#ffffff" opacity="1.00" d=" M 92.20 21.28 C 93.25 16.71 100.33 15.39 102.56 19.57 C 103.17 23.08 102.81 26.69 103.17 30.23 C 101.94 29.95 100.70 29.71 99.45 29.50 C 96.68 30.96 92.05 30.02 92.35 26.19 C 92.48 22.14 97.40 22.36 100.25 21.95 C 99.87 21.30 99.12 20.00 98.75 19.35 C 96.47 19.63 94.48 20.96 92.20 21.28 M 95.45 26.93 C 96.39 28.63 98.41 27.37 99.79 27.14 C 99.77 26.33 99.72 24.69 99.69 23.87 C 97.94 24.13 94.78 24.34 95.45 26.93 Z" />
</g>
</svg>
